<?xml version="1.0" encoding="UTF-8" standalone="no"?>
<!DOCTYPE svg PUBLIC "-//W3C//DTD SVG 1.1//EN" "http://www.w3.org/Graphics/SVG/1.1/DTD/svg11.dtd">
<svg xmlns="http://www.w3.org/2000/svg" version="1.1" viewBox="0.00 0.00 1080.00 1080.00">
<g stroke-width="2.00" fill="none" stroke-linecap="butt">
<path stroke="#addfbb" vector-effect="non-scaling-stroke" d="
  M 789.11 314.66
  Q 788.25 315.53 728.27 375.52
  C 724.05 379.74 721.72 381.74 716.75 381.74
  Q 693.96 381.75 671.89 381.73
  A 1.31 1.31 0.0 0 1 670.81 381.16
  L 661.46 367.38
  A 0.59 0.57 46.6 0 1 661.47 366.70
  Q 662.99 364.67 664.04 362.57
  Q 681.07 328.72 686.06 318.58
  C 688.97 312.69 690.76 306.99 685.13 302.23
  Q 682.46 299.98 638.52 262.60
  Q 634.57 259.25 628.88 254.83
  Q 623.06 250.31 617.23 254.75
  Q 595.54 271.28 572.99 289.89
  A 3.06 3.05 38.8 0 1 569.65 290.25
  C 554.78 282.59 538.72 277.04 522.35 273.30
  A 2.96 2.95 0.5 0 1 520.11 271.03
  Q 513.74 241.43 508.99 222.51
  C 508.03 218.69 506.39 212.85 502.48 211.75
  C 498.36 210.58 492.50 210.10 487.80 210.07
  Q 460.64 209.91 428.75 210.03
  C 421.11 210.06 415.90 212.95 413.96 220.48
  Q 407.72 244.83 401.40 271.16
  A 3.40 3.40 0.0 0 1 398.88 273.67
  C 382.99 277.42 367.29 283.33 352.31 290.46
  A 0.87 0.87 0.0 0 1 351.38 290.35
  Q 335.22 277.11 308.70 256.96
  C 303.51 253.02 298.56 251.26 293.09 255.85
  Q 268.30 276.71 244.04 297.73
  C 236.40 304.36 231.24 307.13 236.13 317.16
  Q 248.18 341.89 262.42 366.67
  A 1.46 1.46 0.0 0 1 262.34 368.24
  Q 248.15 388.49 238.20 411.70
  A 1.29 1.29 0.0 0 1 237.03 412.48
  Q 232.82 412.49 188.66 412.48
  Q 186.05 412.48 183.84 412.69
  C 178.31 413.23 173.70 413.94 171.71 419.97
  Q 170.74 422.92 170.64 423.45
  Q 166.77 444.09 160.12 478.10
  Q 158.33 487.24 157.93 494.77
  C 157.33 505.85 168.92 507.52 176.62 510.81
  Q 195.93 519.07 214.94 527.36
  A 2.00 2.00 0.0 0 1 216.13 529.09
  Q 217.29 554.35 223.51 577.53
  A 1.33 1.32 -27.5 0 1 223.07 578.91
  Q 218.05 583.01 211.91 588.99
  C 202.16 598.48 188.75 610.25 182.16 616.66
  C 177.07 621.61 179.60 625.14 182.79 631.16
  Q 203.87 670.91 213.26 688.25
  Q 216.98 695.11 220.21 698.56
  C 222.63 701.15 227.16 700.54 230.24 699.72
  Q 254.61 693.28 279.45 685.81
  A 1.83 1.82 -29.2 0 1 281.33 686.34
  Q 296.38 702.99 315.42 716.18
  A 1.32 1.31 -68.2 0 1 315.97 717.47
  Q 311.31 748.01 308.49 768.25
  C 307.48 775.56 307.40 781.18 314.14 784.12
  C 337.56 794.35 353.28 801.10 368.26 808.06
  Q 375.91 811.62 379.48 812.80
  Q 386.63 815.16 390.94 809.43
  Q 404.04 792.06 426.13 763.42
  A 1.16 1.15 -67.2 0 1 427.20 762.98
  C 435.98 764.13 442.50 765.42 451.16 765.57
  Q 467.56 765.86 484.74 765.74
  A 1.53 1.52 84.9 0 1 486.25 767.01
  Q 490.60 792.88 494.79 820.96
  Q 495.93 828.61 500.46 833.79
  Q 509.47 844.08 526.15 861.13
  C 531.20 866.29 534.94 868.67 541.61 865.80
  C 548.56 862.81 550.91 853.88 545.86 847.98
  C 543.26 844.95 540.19 841.12 537.01 838.05
  Q 527.28 828.65 518.81 818.49
  A 3.85 3.78 20.7 0 1 517.97 816.67
  L 508.72 763.24
  A 0.96 0.95 -10.5 0 1 509.48 762.14
  Q 538.51 756.71 564.76 743.47
  Q 568.00 741.83 570.75 744.21
  Q 588.52 759.56 608.25 777.50
  Q 614.63 783.31 618.95 786.28
  C 624.31 789.98 629.46 786.12 633.86 782.77
  Q 663.87 759.95 682.22 746.67
  Q 687.01 743.20 687.80 741.41
  C 690.08 736.25 687.30 730.86 684.78 725.32
  C 679.29 713.27 672.43 701.40 667.60 691.78
  C 665.46 687.52 662.64 683.36 660.86 679.09
  A 0.98 0.98 0.0 0 1 660.98 678.12
  L 670.48 665.48
  A 2.27 2.26 18.1 0 1 672.27 664.58
  Q 698.61 664.34 717.79 664.34
  Q 721.94 664.34 725.21 667.55
  Q 757.33 699.12 788.23 732.01
  A 2.30 2.30 0.0 0 1 788.62 734.60
  C 781.24 749.61 782.99 766.64 795.24 778.30
  C 802.52 785.24 813.43 789.32 823.76 787.87
  Q 830.90 786.87 832.56 786.10
  Q 847.17 779.29 852.95 766.42
  C 860.03 750.66 854.62 732.80 841.33 722.39
  C 832.06 715.13 820.02 713.23 808.88 716.83
  A 2.23 2.22 -31.8 0 1 806.67 716.32
  Q 792.28 702.44 780.58 689.92
  C 768.13 676.63 758.85 667.52 745.26 653.52
  Q 739.05 647.11 729.41 641.36
  A 4.89 4.88 67.9 0 0 728.11 640.81
  C 720.12 638.65 713.20 640.26 705.07 640.25
  Q 676.75 640.20 664.00 640.27
  C 660.09 640.29 657.93 641.36 655.45 644.76
  Q 644.13 660.28 634.69 672.44
  Q 633.58 673.88 633.13 675.96
  A 1.55 1.54 38.5 0 0 633.25 676.98
  Q 647.04 704.79 662.11 731.35
  A 1.02 1.01 -29.5 0 1 661.72 732.73
  Q 658.97 734.28 657.53 735.30
  Q 638.63 748.73 625.63 758.65
  C 623.46 760.30 622.54 758.95 621.00 757.58
  Q 601.28 739.98 575.92 716.86
  C 573.58 714.73 570.93 713.15 568.11 714.57
  Q 550.63 723.36 545.86 725.33
  Q 521.46 735.41 499.13 739.07
  Q 483.62 741.60 464.22 741.67
  C 451.05 741.72 439.13 739.87 422.58 737.45
  Q 416.88 736.62 413.83 740.61
  Q 386.74 776.05 381.83 782.34
  Q 381.04 783.36 378.99 785.61
  A 1.21 1.20 32.8 0 1 377.61 785.90
  L 332.93 766.24
  A 0.66 0.66 0.0 0 1 332.54 765.53
  Q 337.30 737.29 340.76 711.76
  Q 341.11 709.18 340.00 706.45
  A 2.01 1.93 9.6 0 0 339.40 705.64
  C 331.29 699.08 322.91 693.24 316.07 687.11
  Q 303.56 675.93 292.77 662.62
  Q 289.43 658.50 284.08 658.77
  A 2.24 2.19 -53.7 0 0 283.53 658.86
  L 233.07 673.47
  A 0.82 0.81 67.2 0 1 232.13 673.08
  L 207.21 627.29
  A 0.89 0.87 -35.8 0 1 207.39 626.22
  Q 226.25 609.15 245.80 590.32
  C 247.67 588.52 249.54 586.04 248.92 583.54
  Q 244.77 566.66 243.32 559.71
  Q 241.50 551.01 240.20 532.65
  Q 239.28 519.72 239.47 514.05
  A 2.58 2.57 -77.2 0 0 237.93 511.60
  L 183.93 487.84
  A 1.40 1.38 17.5 0 1 183.12 486.31
  L 192.45 437.88
  A 1.38 1.38 0.0 0 1 193.82 436.76
  Q 229.68 436.79 246.00 436.73
  C 250.84 436.71 253.05 434.89 255.23 430.45
  Q 263.31 413.96 268.34 404.07
  Q 275.68 389.67 288.72 372.24
  Q 290.90 369.32 289.36 366.42
  Q 283.85 356.02 269.98 331.79
  C 267.51 327.46 264.63 321.45 261.89 315.96
  A 1.14 1.13 42.0 0 1 261.84 315.04
  Q 262.45 313.48 263.55 312.54
  Q 281.47 297.15 299.96 281.97
  A 1.51 1.50 44.5 0 1 301.84 281.96
  Q 321.68 297.70 341.69 313.06
  Q 344.98 315.58 348.22 317.54
  A 3.04 3.03 -41.2 0 0 351.02 317.72
  Q 360.41 313.55 371.59 307.83
  Q 373.91 306.65 389.81 301.47
  C 399.04 298.47 411.87 296.81 418.81 293.79
  C 421.49 292.63 421.71 290.19 422.32 287.26
  Q 426.40 267.61 431.09 248.36
  Q 432.68 241.86 433.84 235.64
  A 1.67 1.67 0.0 0 1 435.48 234.27
  Q 459.97 234.20 484.26 233.99
  Q 487.29 233.96 487.99 237.00
  Q 490.85 249.36 500.12 287.63
  C 501.02 291.32 502.15 293.97 505.87 294.66
  Q 519.77 297.26 529.74 300.01
  C 544.32 304.04 558.27 311.25 572.05 318.25
  A 2.76 2.74 42.5 0 0 574.74 318.14
  Q 577.61 316.36 579.56 314.82
  Q 602.80 296.36 618.00 284.24
  C 619.67 282.91 621.40 279.53 624.29 281.97
  Q 648.12 302.06 661.46 313.14
  A 0.99 0.98 30.7 0 1 661.75 314.27
  Q 659.20 320.53 655.40 327.68
  Q 638.55 359.44 634.91 365.93
  Q 633.15 369.08 635.27 371.83
  Q 642.34 380.98 654.94 401.04
  Q 658.03 405.98 663.05 405.97
  Q 708.23 405.96 718.03 406.03
  Q 726.33 406.09 733.16 402.50
  Q 737.58 400.18 744.11 393.57
  Q 778.09 359.19 807.87 329.69
  A 0.79 0.79 0.0 0 1 808.65 329.49
  Q 811.64 330.37 813.80 330.89
  C 824.27 333.40 833.80 330.11 842.28 323.37
  C 854.00 314.06 858.70 299.53 854.31 285.23
  C 848.20 265.30 826.62 252.15 806.24 261.22
  Q 787.26 269.68 784.39 290.37
  C 783.51 296.70 784.39 303.79 787.30 309.48
  Q 788.80 312.43 789.30 313.58
  A 0.99 0.97 -35.3 0 1 789.11 314.66"
/>
<path stroke="#addfbb" vector-effect="non-scaling-stroke" d="
  M 610.52 477.72
  Q 613.73 478.99 617.76 478.97
  Q 665.17 478.72 738.24 478.73
  Q 745.54 478.73 754.72 474.98
  A 5.30 5.17 -74.7 0 0 755.98 474.24
  Q 761.15 470.08 761.97 469.21
  Q 789.34 440.17 803.65 426.70
  C 806.90 423.64 808.31 422.76 812.51 422.83
  Q 825.64 423.07 837.52 422.34
  C 841.53 422.09 846.67 422.90 849.45 422.89
  C 850.78 422.89 851.97 422.41 852.95 422.57
  A 1.36 1.35 -8.7 0 1 853.94 423.29
  Q 856.27 427.82 857.20 429.31
  Q 863.98 440.19 877.18 444.00
  C 894.78 449.07 913.57 440.29 920.22 422.72
  Q 926.67 405.68 917.27 389.93
  C 910.72 378.95 897.15 371.40 884.53 372.36
  C 869.46 373.51 858.78 383.11 853.11 396.93
  A 3.00 2.99 -78.6 0 1 850.33 398.78
  Q 830.25 398.64 813.75 398.83
  Q 806.62 398.90 803.13 399.63
  C 796.85 400.94 791.35 404.97 786.81 409.56
  Q 771.41 425.13 751.16 445.47
  C 748.37 448.28 746.17 451.29 743.24 453.37
  A 6.02 5.99 27.2 0 1 739.76 454.48
  L 628.78 454.48
  A 2.38 2.37 -10.7 0 1 626.57 452.98
  C 611.70 415.46 585.45 383.00 550.80 361.97
  Q 531.01 349.96 511.64 344.44
  Q 470.12 332.62 426.27 341.22
  Q 411.64 344.08 400.81 348.35
  C 362.37 363.51 329.65 391.93 309.40 428.02
  C 281.40 477.90 279.86 538.54 304.04 591.00
  Q 311.73 607.68 324.85 624.15
  C 350.94 656.92 387.41 679.48 428.29 687.88
  C 439.92 690.27 452.48 690.94 464.50 691.01
  Q 504.19 691.26 539.13 673.67
  Q 583.91 651.13 612.85 605.61
  Q 616.55 599.78 619.59 592.81
  A 1.75 1.74 -78.1 0 1 621.19 591.76
  Q 673.29 591.77 737.40 591.76
  C 741.59 591.75 744.04 592.43 746.81 595.19
  Q 760.04 608.34 771.82 621.26
  C 777.63 627.63 784.68 634.65 790.52 640.23
  Q 797.52 646.90 806.03 647.85
  C 810.17 648.30 812.51 648.72 816.35 648.75
  Q 835.51 648.88 849.56 648.50
  C 852.02 648.44 852.97 649.63 853.81 651.72
  C 860.42 668.15 878.97 678.67 896.51 673.34
  Q 913.81 668.08 920.57 650.38
  C 931.67 621.33 901.75 592.06 873.00 604.27
  Q 859.82 609.86 854.28 623.69
  A 2.89 2.89 0.0 0 1 851.58 625.51
  Q 842.80 625.45 814.03 625.47
  Q 809.46 625.47 807.48 623.48
  Q 775.87 591.70 773.51 589.26
  C 768.97 584.57 764.00 578.71 759.56 575.20
  Q 749.91 567.55 737.50 567.53
  Q 648.97 567.39 606.99 567.52
  Q 605.03 567.53 604.16 569.68
  C 592.23 599.02 572.25 624.49 545.91 641.79
  C 517.85 660.23 485.64 669.36 452.09 667.13
  C 441.12 666.40 429.37 664.09 419.12 661.10
  Q 383.35 650.66 357.30 624.71
  Q 342.54 610.00 333.83 596.44
  Q 318.53 572.60 312.85 541.41
  C 310.81 530.22 310.77 515.96 311.12 504.78
  Q 311.68 487.54 316.95 470.66
  C 332.24 421.69 369.89 382.64 419.24 367.73
  C 438.14 362.01 459.29 360.62 478.90 362.56
  C 514.50 366.09 547.52 383.12 572.00 409.22
  C 586.55 424.73 597.89 443.86 605.22 463.61
  Q 609.30 474.58 609.82 476.91
  A 1.14 1.12 4.6 0 0 610.52 477.72"
/>
<path stroke="#808080" vector-effect="non-scaling-stroke" d="
  M 418.52 488.00
  A 0.55 0.55 0.0 0 0 417.97 487.45
  L 395.48 487.45
  A 0.55 0.55 0.0 0 0 394.93 488.00
  L 394.93 518.25
  A 0.55 0.55 0.0 0 1 393.94 518.58
  L 371.01 487.65
  A 0.55 0.55 0.0 0 0 370.57 487.43
  L 345.91 487.43
  A 0.55 0.55 0.0 0 0 345.36 487.98
  L 345.36 561.51
  A 0.55 0.55 0.0 0 0 345.91 562.06
  L 368.08 562.06
  A 0.55 0.55 0.0 0 0 368.63 561.51
  L 368.63 531.32
  A 0.55 0.55 0.0 0 1 369.62 530.99
  L 393.26 561.82
  A 0.55 0.55 0.0 0 0 393.70 562.04
  L 417.97 562.04
  A 0.55 0.55 0.0 0 0 418.52 561.49
  L 418.52 488.00"
/>
<path stroke="#808080" vector-effect="non-scaling-stroke" d="
  M 466.87 488.41
  A 0.97 0.97 0.0 0 0 465.90 487.44
  L 439.04 487.44
  A 0.97 0.97 0.0 0 0 438.07 488.41
  L 438.07 561.09
  A 0.97 0.97 0.0 0 0 439.04 562.06
  L 465.90 562.06
  A 0.97 0.97 0.0 0 0 466.87 561.09
  L 466.87 488.41"
/>
<path stroke="#808080" vector-effect="non-scaling-stroke" d="
  M 487.07 487.43
  A 0.96 0.96 0.0 0 0 486.11 488.39
  L 486.11 561.10
  A 0.96 0.96 0.0 0 0 487.07 562.06
  L 512.22 562.06
  A 0.96 0.96 0.0 0 0 513.18 561.10
  L 513.18 535.21
  A 0.96 0.96 0.0 0 1 514.14 534.25
  L 537.74 534.25
  A 0.96 0.96 0.0 0 0 538.70 533.29
  L 538.70 517.44
  A 0.96 0.96 0.0 0 0 537.74 516.48
  L 514.14 516.48
  A 0.96 0.96 0.0 0 1 513.18 515.52
  L 513.18 507.37
  A 0.96 0.96 0.0 0 1 514.14 506.41
  L 539.64 506.41
  A 0.96 0.96 0.0 0 0 540.60 505.45
  L 540.60 488.39
  A 0.96 0.96 0.0 0 0 539.64 487.43
  L 487.07 487.43"
/>
<path stroke="#808080" vector-effect="non-scaling-stroke" d="
  M 582.29 562.07
  Q 595.30 562.04 596.22 562.02
  A 0.65 0.65 0.0 0 0 596.85 561.37
  L 596.85 507.25
  A 0.94 0.94 0.0 0 1 597.79 506.31
  L 611.19 506.31
  A 0.81 0.81 0.0 0 0 612.00 505.49
  L 611.80 487.76
  A 0.38 0.38 0.0 0 0 611.42 487.39
  Q 610.08 487.36 582.09 487.44
  Q 554.10 487.51 552.76 487.54
  A 0.38 0.38 0.0 0 0 552.39 487.92
  L 552.28 505.65
  A 0.81 0.81 0.0 0 0 553.10 506.46
  L 566.50 506.39
  A 0.94 0.94 0.0 0 1 567.44 507.33
  L 567.73 561.45
  A 0.65 0.65 0.0 0 0 568.36 562.09
  Q 569.28 562.10 582.29 562.07"
/>
<path stroke="#808080" vector-effect="non-scaling-stroke" d="
  M 654.02 511.24
  L 646.82 488.11
  A 0.98 0.98 0.0 0 0 645.89 487.43
  L 620.20 487.43
  A 0.56 0.55 78.7 0 0 619.69 488.20
  Q 628.22 508.54 638.50 534.77
  C 641.68 542.89 641.09 553.22 640.77 561.21
  A 0.83 0.83 0.0 0 0 641.60 562.07
  L 667.51 562.07
  A 0.74 0.74 0.0 0 0 668.25 561.34
  Q 668.35 553.38 668.21 548.09
  C 668.03 541.20 669.17 538.04 672.02 531.26
  Q 676.57 520.45 690.16 488.35
  A 0.66 0.66 0.0 0 0 689.55 487.43
  L 662.74 487.43
  A 0.64 0.64 0.0 0 0 662.13 487.88
  L 654.99 511.24
  A 0.51 0.51 0.0 0 1 654.02 511.24"
/>
<path stroke="#addfbb" vector-effect="non-scaling-stroke" d="
  M 962.54 507.07
  L 967.00 492.47
  A 0.66 0.65 23.2 0 0 966.69 491.70
  C 958.56 487.19 951.52 487.46 940.52 487.37
  Q 931.67 487.30 927.34 489.18
  C 917.50 493.46 913.04 503.09 914.76 513.39
  C 917.23 528.22 930.85 530.53 942.76 534.73
  C 944.83 535.46 948.27 536.87 948.49 539.43
  C 948.79 542.97 944.70 543.90 941.51 543.97
  Q 930.59 544.21 920.89 540.25
  A 0.64 0.64 0.0 0 0 920.03 540.65
  L 915.55 555.29
  A 1.78 1.78 0.0 0 0 916.58 557.45
  Q 933.34 564.29 950.94 560.85
  C 960.01 559.07 967.11 553.80 969.33 544.51
  C 971.86 533.93 967.85 524.10 958.40 518.91
  C 952.46 515.64 945.44 513.90 940.46 512.05
  Q 937.50 510.95 936.21 508.23
  A 0.91 0.91 0.0 0 1 936.25 507.39
  Q 938.53 503.47 944.60 504.17
  Q 953.24 505.16 961.08 507.82
  A 1.15 1.14 -72.0 0 0 962.54 507.07"
/>
<path stroke="#addfbb" vector-effect="non-scaling-stroke" d="
  M 765.29 520.83
  C 766.05 520.11 767.48 519.98 768.53 519.32
  Q 774.01 515.84 774.99 509.52
  C 777.36 494.25 762.71 488.50 750.49 488.25
  Q 732.36 487.87 712.83 488.28
  A 0.90 0.89 89.3 0 0 711.96 489.18
  L 711.96 559.87
  A 0.60 0.59 3.3 0 0 712.49 560.46
  Q 731.20 562.58 750.80 561.05
  C 764.36 559.99 780.13 552.56 778.46 536.23
  Q 777.21 524.07 765.47 521.49
  A 0.39 0.39 0.0 0 1 765.29 520.83"
/>
<path stroke="#addfbb" vector-effect="non-scaling-stroke" d="
  M 822.6588 489.1788
  A 1.20 1.20 0.0 0 0 821.4567 487.9809
  L 799.4767 488.0192
  A 1.20 1.20 0.0 0 0 798.2788 489.2213
  L 798.4012 559.3212
  A 1.20 1.20 0.0 0 0 799.6033 560.5191
  L 821.5833 560.4808
  A 1.20 1.20 0.0 0 0 822.7812 559.2787
  L 822.6588 489.1788"
/>
<path stroke="#addfbb" vector-effect="non-scaling-stroke" d="
  M 870.42 560.52
  Q 881.65 560.51 882.16 560.45
  A 0.54 0.54 0.0 0 0 882.64 559.92
  L 882.65 504.87
  A 0.92 0.92 0.0 0 1 883.57 503.95
  L 897.24 503.95
  A 0.53 0.52 0.0 0 0 897.77 503.43
  L 897.77 489.04
  A 0.66 0.66 0.0 0 0 897.22 488.39
  Q 895.58 488.12 893.97 488.10
  Q 889.99 488.03 870.39 488.04
  Q 850.80 488.05 846.82 488.12
  Q 845.21 488.14 843.57 488.41
  A 0.66 0.66 0.0 0 0 843.02 489.06
  L 843.03 503.45
  A 0.53 0.52 -0.0 0 0 843.56 503.97
  L 857.23 503.96
  A 0.92 0.92 0.0 0 1 858.15 504.88
  L 858.20 559.93
  A 0.54 0.54 0.0 0 0 858.68 560.46
  Q 859.19 560.52 870.42 560.52"
/>
<path stroke="#addfbb" vector-effect="non-scaling-stroke" d="
  M 810.4669 285.7625
  A 13.28 12.87 -135.2 0 0 810.8214 304.2522
  A 13.28 12.87 -135.2 0 0 829.3131 304.4775
  A 13.28 12.87 -135.2 0 0 828.9586 285.9878
  A 13.28 12.87 -135.2 0 0 810.4669 285.7625"
/>
<path stroke="#addfbb" vector-effect="non-scaling-stroke" d="
  M 833.22 751.48
  A 13.19 13.19 0.0 0 0 820.03 738.29
  A 13.19 13.19 0.0 0 0 806.84 751.48
  A 13.19 13.19 0.0 0 0 820.03 764.67
  A 13.19 13.19 0.0 0 0 833.22 751.48"
/>
<path stroke="#addfbb" vector-effect="non-scaling-stroke" d="
  M 886.7176 395.8024
  A 13.15 12.87 -91.1 0 0 874.1024 409.1971
  A 13.15 12.87 -91.1 0 0 887.2224 422.0976
  A 13.15 12.87 -91.1 0 0 899.8376 408.7029
  A 13.15 12.87 -91.1 0 0 886.7176 395.8024"
/>
<path stroke="#addfbb" vector-effect="non-scaling-stroke" d="
  M 899.96 638.01
  A 12.98 12.98 0.0 0 0 886.98 625.03
  A 12.98 12.98 0.0 0 0 874.00 638.01
  A 12.98 12.98 0.0 0 0 886.98 650.99
  A 12.98 12.98 0.0 0 0 899.96 638.01"
/>
<path stroke="#808080" vector-effect="non-scaling-stroke" d="
  M 399.09 533.19
  L 368.42 491.79
  A 4.07 4.04 71.5 0 0 365.17 490.15
  L 350.67 490.15
  A 0.68 0.67 90.0 0 0 350.00 490.83
  L 350.00 557.38
  A 0.62 0.61 -0.0 0 0 350.62 557.99
  L 363.11 557.99
  A 0.80 0.80 0.0 0 0 363.91 557.19
  Q 363.93 548.85 363.92 517.32
  Q 363.92 516.98 364.37 516.92
  Q 364.61 516.89 364.77 517.10
  Q 391.03 551.29 395.27 556.61
  A 3.97 3.96 -19.3 0 0 398.37 558.10
  L 413.08 558.10
  A 0.86 0.85 0.0 0 0 413.94 557.25
  L 413.94 490.79
  A 0.63 0.63 0.0 0 0 413.31 490.16
  L 400.23 490.16
  A 0.79 0.78 0.0 0 0 399.44 490.94
  L 399.44 533.07
  A 0.20 0.19 -63.6 0 1 399.09 533.19"
/>
<path stroke="#808080" vector-effect="non-scaling-stroke" d="
  M 462.12 490.93
  A 0.77 0.77 0.0 0 0 461.35 490.16
  L 443.37 490.16
  A 0.77 0.77 0.0 0 0 442.60 490.93
  L 442.60 557.23
  A 0.77 0.77 0.0 0 0 443.37 558.00
  L 461.35 558.00
  A 0.77 0.77 0.0 0 0 462.12 557.23
  L 462.12 490.93"
/>
<path stroke="#808080" vector-effect="non-scaling-stroke" d="
  M 533.15 529.62
  A 0.84 0.84 0.0 0 0 533.99 528.78
  L 533.99 521.84
  A 0.84 0.84 0.0 0 0 533.15 521.00
  L 509.43 521.00
  A 0.84 0.84 0.0 0 1 508.59 520.16
  L 508.59 502.69
  A 0.84 0.84 0.0 0 1 509.43 501.85
  L 535.11 501.85
  A 0.84 0.84 0.0 0 0 535.95 501.01
  L 535.95 491.00
  A 0.84 0.84 0.0 0 0 535.11 490.16
  L 491.55 490.16
  A 0.84 0.84 0.0 0 0 490.71 491.00
  L 490.71 557.16
  A 0.84 0.84 0.0 0 0 491.55 558.00
  L 507.81 558.00
  A 0.84 0.84 0.0 0 0 508.65 557.16
  L 508.65 530.46
  A 0.84 0.84 0.0 0 1 509.49 529.62
  L 533.15 529.62"
/>
<path stroke="#808080" vector-effect="non-scaling-stroke" d="
  M 582.24 558.00
  Q 590.21 558.00 591.19 557.98
  A 1.17 1.17 0.0 0 0 592.33 556.81
  L 592.33 502.32
  A 0.47 0.46 0.0 0 1 592.80 501.86
  L 605.87 501.86
  A 1.57 1.57 0.0 0 0 607.44 500.29
  L 607.42 490.98
  A 0.80 0.79 0.6 0 0 606.64 490.19
  Q 605.95 490.17 582.28 490.15
  Q 558.61 490.14 557.93 490.17
  A 0.80 0.79 -0.5 0 0 557.14 490.95
  L 557.11 500.26
  A 1.57 1.57 0.0 0 0 558.68 501.83
  L 571.75 501.85
  A 0.47 0.46 0.1 0 1 572.22 502.31
  L 572.16 556.80
  A 1.17 1.17 0.0 0 0 573.30 557.97
  Q 574.27 558.00 582.24 558.00"
/>
<path stroke="#808080" vector-effect="non-scaling-stroke" d="
  M 655.10 526.57
  A 0.58 0.58 0.0 0 1 653.99 526.57
  L 642.95 491.10
  A 1.35 1.34 -8.4 0 0 641.66 490.15
  L 626.75 490.15
  A 0.79 0.78 79.5 0 0 626.02 491.22
  Q 636.17 517.16 643.40 534.43
  C 646.31 541.37 645.57 548.97 645.34 556.89
  A 1.08 1.08 0.0 0 0 646.42 558.00
  L 662.97 558.00
  A 0.74 0.74 0.0 0 0 663.71 557.26
  L 663.71 540.33
  A 5.20 5.20 0.0 0 1 664.11 538.33
  L 683.79 491.44
  A 0.92 0.92 0.0 0 0 682.94 490.16
  L 667.40 490.16
  A 1.57 1.57 0.0 0 0 665.90 491.27
  L 655.10 526.57"
/>
<path stroke="#addfbb" vector-effect="non-scaling-stroke" d="
  M 735.50 502.87
  L 735.78 516.08
  A 0.65 0.65 0.0 0 0 736.44 516.72
  L 745.23 516.54
  A 8.22 7.12 -1.2 0 0 753.30 509.25
  L 753.30 508.97
  A 8.22 7.12 -1.2 0 0 744.93 502.02
  L 736.14 502.20
  A 0.65 0.65 0.0 0 0 735.50 502.87"
/>
<path stroke="#addfbb" vector-effect="non-scaling-stroke" d="
  M 735.54 528.92
  L 735.60 544.38
  A 0.62 0.62 0.0 0 0 736.22 545.00
  L 746.06 544.97
  A 9.32 7.92 -0.2 0 0 755.35 537.02
  L 755.35 536.16
  A 9.32 7.92 -0.2 0 0 746.00 528.27
  L 736.16 528.30
  A 0.62 0.62 0.0 0 0 735.54 528.92"
/>
</g>
<path fill="#ff00" d="
  M 1080.00 0.00
  L 1080.00 1080.00
  L 0.00 1080.00
  L 0.00 0.00
  L 1080.00 0.00
  Z
  M 789.11 314.66
  Q 788.25 315.53 728.27 375.52
  C 724.05 379.74 721.72 381.74 716.75 381.74
  Q 693.96 381.75 671.89 381.73
  A 1.31 1.31 0.0 0 1 670.81 381.16
  L 661.46 367.38
  A 0.59 0.57 46.6 0 1 661.47 366.70
  Q 662.99 364.67 664.04 362.57
  Q 681.07 328.72 686.06 318.58
  C 688.97 312.69 690.76 306.99 685.13 302.23
  Q 682.46 299.98 638.52 262.60
  Q 634.57 259.25 628.88 254.83
  Q 623.06 250.31 617.23 254.75
  Q 595.54 271.28 572.99 289.89
  A 3.06 3.05 38.8 0 1 569.65 290.25
  C 554.78 282.59 538.72 277.04 522.35 273.30
  A 2.96 2.95 0.5 0 1 520.11 271.03
  Q 513.74 241.43 508.99 222.51
  C 508.03 218.69 506.39 212.85 502.48 211.75
  C 498.36 210.58 492.50 210.10 487.80 210.07
  Q 460.64 209.91 428.75 210.03
  C 421.11 210.06 415.90 212.95 413.96 220.48
  Q 407.72 244.83 401.40 271.16
  A 3.40 3.40 0.0 0 1 398.88 273.67
  C 382.99 277.42 367.29 283.33 352.31 290.46
  A 0.87 0.87 0.0 0 1 351.38 290.35
  Q 335.22 277.11 308.70 256.96
  C 303.51 253.02 298.56 251.26 293.09 255.85
  Q 268.30 276.71 244.04 297.73
  C 236.40 304.36 231.24 307.13 236.13 317.16
  Q 248.18 341.89 262.42 366.67
  A 1.46 1.46 0.0 0 1 262.34 368.24
  Q 248.15 388.49 238.20 411.70
  A 1.29 1.29 0.0 0 1 237.03 412.48
  Q 232.82 412.49 188.66 412.48
  Q 186.05 412.48 183.84 412.69
  C 178.31 413.23 173.70 413.94 171.71 419.97
  Q 170.74 422.92 170.64 423.45
  Q 166.77 444.09 160.12 478.10
  Q 158.33 487.24 157.93 494.77
  C 157.33 505.85 168.92 507.52 176.62 510.81
  Q 195.93 519.07 214.94 527.36
  A 2.00 2.00 0.0 0 1 216.13 529.09
  Q 217.29 554.35 223.51 577.53
  A 1.33 1.32 -27.5 0 1 223.07 578.91
  Q 218.05 583.01 211.91 588.99
  C 202.16 598.48 188.75 610.25 182.16 616.66
  C 177.07 621.61 179.60 625.14 182.79 631.16
  Q 203.87 670.91 213.26 688.25
  Q 216.98 695.11 220.21 698.56
  C 222.63 701.15 227.16 700.54 230.24 699.72
  Q 254.61 693.28 279.45 685.81
  A 1.83 1.82 -29.2 0 1 281.33 686.34
  Q 296.38 702.99 315.42 716.18
  A 1.32 1.31 -68.2 0 1 315.97 717.47
  Q 311.31 748.01 308.49 768.25
  C 307.48 775.56 307.40 781.18 314.14 784.12
  C 337.56 794.35 353.28 801.10 368.26 808.06
  Q 375.91 811.62 379.48 812.80
  Q 386.63 815.16 390.94 809.43
  Q 404.04 792.06 426.13 763.42
  A 1.16 1.15 -67.2 0 1 427.20 762.98
  C 435.98 764.13 442.50 765.42 451.16 765.57
  Q 467.56 765.86 484.74 765.74
  A 1.53 1.52 84.9 0 1 486.25 767.01
  Q 490.60 792.88 494.79 820.96
  Q 495.93 828.61 500.46 833.79
  Q 509.47 844.08 526.15 861.13
  C 531.20 866.29 534.94 868.67 541.61 865.80
  C 548.56 862.81 550.91 853.88 545.86 847.98
  C 543.26 844.95 540.19 841.12 537.01 838.05
  Q 527.28 828.65 518.81 818.49
  A 3.85 3.78 20.7 0 1 517.97 816.67
  L 508.72 763.24
  A 0.96 0.95 -10.5 0 1 509.48 762.14
  Q 538.51 756.71 564.76 743.47
  Q 568.00 741.83 570.75 744.21
  Q 588.52 759.56 608.25 777.50
  Q 614.63 783.31 618.95 786.28
  C 624.31 789.98 629.46 786.12 633.86 782.77
  Q 663.87 759.95 682.22 746.67
  Q 687.01 743.20 687.80 741.41
  C 690.08 736.25 687.30 730.86 684.78 725.32
  C 679.29 713.27 672.43 701.40 667.60 691.78
  C 665.46 687.52 662.64 683.36 660.86 679.09
  A 0.98 0.98 0.0 0 1 660.98 678.12
  L 670.48 665.48
  A 2.27 2.26 18.1 0 1 672.27 664.58
  Q 698.61 664.34 717.79 664.34
  Q 721.94 664.34 725.21 667.55
  Q 757.33 699.12 788.23 732.01
  A 2.30 2.30 0.0 0 1 788.62 734.60
  C 781.24 749.61 782.99 766.64 795.24 778.30
  C 802.52 785.24 813.43 789.32 823.76 787.87
  Q 830.90 786.87 832.56 786.10
  Q 847.17 779.29 852.95 766.42
  C 860.03 750.66 854.62 732.80 841.33 722.39
  C 832.06 715.13 820.02 713.23 808.88 716.83
  A 2.23 2.22 -31.8 0 1 806.67 716.32
  Q 792.28 702.44 780.58 689.92
  C 768.13 676.63 758.85 667.52 745.26 653.52
  Q 739.05 647.11 729.41 641.36
  A 4.89 4.88 67.9 0 0 728.11 640.81
  C 720.12 638.65 713.20 640.26 705.07 640.25
  Q 676.75 640.20 664.00 640.27
  C 660.09 640.29 657.93 641.36 655.45 644.76
  Q 644.13 660.28 634.69 672.44
  Q 633.58 673.88 633.13 675.96
  A 1.55 1.54 38.5 0 0 633.25 676.98
  Q 647.04 704.79 662.11 731.35
  A 1.02 1.01 -29.5 0 1 661.72 732.73
  Q 658.97 734.28 657.53 735.30
  Q 638.63 748.73 625.63 758.65
  C 623.46 760.30 622.54 758.95 621.00 757.58
  Q 601.28 739.98 575.92 716.86
  C 573.58 714.73 570.93 713.15 568.11 714.57
  Q 550.63 723.36 545.86 725.33
  Q 521.46 735.41 499.13 739.07
  Q 483.62 741.60 464.22 741.67
  C 451.05 741.72 439.13 739.87 422.58 737.45
  Q 416.88 736.62 413.83 740.61
  Q 386.74 776.05 381.83 782.34
  Q 381.04 783.36 378.99 785.61
  A 1.21 1.20 32.8 0 1 377.61 785.90
  L 332.93 766.24
  A 0.66 0.66 0.0 0 1 332.54 765.53
  Q 337.30 737.29 340.76 711.76
  Q 341.11 709.18 340.00 706.45
  A 2.01 1.93 9.6 0 0 339.40 705.64
  C 331.29 699.08 322.91 693.24 316.07 687.11
  Q 303.56 675.93 292.77 662.62
  Q 289.43 658.50 284.08 658.77
  A 2.24 2.19 -53.7 0 0 283.53 658.86
  L 233.07 673.47
  A 0.82 0.81 67.2 0 1 232.13 673.08
  L 207.21 627.29
  A 0.89 0.87 -35.8 0 1 207.39 626.22
  Q 226.25 609.15 245.80 590.32
  C 247.67 588.52 249.54 586.04 248.92 583.54
  Q 244.77 566.66 243.32 559.71
  Q 241.50 551.01 240.20 532.65
  Q 239.28 519.72 239.47 514.05
  A 2.58 2.57 -77.2 0 0 237.93 511.60
  L 183.93 487.84
  A 1.40 1.38 17.5 0 1 183.12 486.31
  L 192.45 437.88
  A 1.38 1.38 0.0 0 1 193.82 436.76
  Q 229.68 436.79 246.00 436.73
  C 250.84 436.71 253.05 434.89 255.23 430.45
  Q 263.31 413.96 268.34 404.07
  Q 275.68 389.67 288.72 372.24
  Q 290.90 369.32 289.36 366.42
  Q 283.85 356.02 269.98 331.79
  C 267.51 327.46 264.63 321.45 261.89 315.96
  A 1.14 1.13 42.0 0 1 261.84 315.04
  Q 262.45 313.48 263.55 312.54
  Q 281.47 297.15 299.96 281.97
  A 1.51 1.50 44.5 0 1 301.84 281.96
  Q 321.68 297.70 341.69 313.06
  Q 344.98 315.58 348.22 317.54
  A 3.04 3.03 -41.2 0 0 351.02 317.72
  Q 360.41 313.55 371.59 307.83
  Q 373.91 306.65 389.81 301.47
  C 399.04 298.47 411.87 296.81 418.81 293.79
  C 421.49 292.63 421.71 290.19 422.32 287.26
  Q 426.40 267.61 431.09 248.36
  Q 432.68 241.86 433.84 235.64
  A 1.67 1.67 0.0 0 1 435.48 234.27
  Q 459.97 234.20 484.26 233.99
  Q 487.29 233.96 487.99 237.00
  Q 490.85 249.36 500.12 287.63
  C 501.02 291.32 502.15 293.97 505.87 294.66
  Q 519.77 297.26 529.74 300.01
  C 544.32 304.04 558.27 311.25 572.05 318.25
  A 2.76 2.74 42.5 0 0 574.74 318.14
  Q 577.61 316.36 579.56 314.82
  Q 602.80 296.36 618.00 284.24
  C 619.67 282.91 621.40 279.53 624.29 281.97
  Q 648.12 302.06 661.46 313.14
  A 0.99 0.98 30.7 0 1 661.75 314.27
  Q 659.20 320.53 655.40 327.68
  Q 638.55 359.44 634.91 365.93
  Q 633.15 369.08 635.27 371.83
  Q 642.34 380.98 654.94 401.04
  Q 658.03 405.98 663.05 405.97
  Q 708.23 405.96 718.03 406.03
  Q 726.33 406.09 733.16 402.50
  Q 737.58 400.18 744.11 393.57
  Q 778.09 359.19 807.87 329.69
  A 0.79 0.79 0.0 0 1 808.65 329.49
  Q 811.64 330.37 813.80 330.89
  C 824.27 333.40 833.80 330.11 842.28 323.37
  C 854.00 314.06 858.70 299.53 854.31 285.23
  C 848.20 265.30 826.62 252.15 806.24 261.22
  Q 787.26 269.68 784.39 290.37
  C 783.51 296.70 784.39 303.79 787.30 309.48
  Q 788.80 312.43 789.30 313.58
  A 0.99 0.97 -35.3 0 1 789.11 314.66
  Z
  M 610.52 477.72
  Q 613.73 478.99 617.76 478.97
  Q 665.17 478.72 738.24 478.73
  Q 745.54 478.73 754.72 474.98
  A 5.30 5.17 -74.7 0 0 755.98 474.24
  Q 761.15 470.08 761.97 469.21
  Q 789.34 440.17 803.65 426.70
  C 806.90 423.64 808.31 422.76 812.51 422.83
  Q 825.64 423.07 837.52 422.34
  C 841.53 422.09 846.67 422.90 849.45 422.89
  C 850.78 422.89 851.97 422.41 852.95 422.57
  A 1.36 1.35 -8.7 0 1 853.94 423.29
  Q 856.27 427.82 857.20 429.31
  Q 863.98 440.19 877.18 444.00
  C 894.78 449.07 913.57 440.29 920.22 422.72
  Q 926.67 405.68 917.27 389.93
  C 910.72 378.95 897.15 371.40 884.53 372.36
  C 869.46 373.51 858.78 383.11 853.11 396.93
  A 3.00 2.99 -78.6 0 1 850.33 398.78
  Q 830.25 398.64 813.75 398.83
  Q 806.62 398.90 803.13 399.63
  C 796.85 400.94 791.35 404.97 786.81 409.56
  Q 771.41 425.13 751.16 445.47
  C 748.37 448.28 746.17 451.29 743.24 453.37
  A 6.02 5.99 27.2 0 1 739.76 454.48
  L 628.78 454.48
  A 2.38 2.37 -10.7 0 1 626.57 452.98
  C 611.70 415.46 585.45 383.00 550.80 361.97
  Q 531.01 349.96 511.64 344.44
  Q 470.12 332.62 426.27 341.22
  Q 411.64 344.08 400.81 348.35
  C 362.37 363.51 329.65 391.93 309.40 428.02
  C 281.40 477.90 279.86 538.54 304.04 591.00
  Q 311.73 607.68 324.85 624.15
  C 350.94 656.92 387.41 679.48 428.29 687.88
  C 439.92 690.27 452.48 690.94 464.50 691.01
  Q 504.19 691.26 539.13 673.67
  Q 583.91 651.13 612.85 605.61
  Q 616.55 599.78 619.59 592.81
  A 1.75 1.74 -78.1 0 1 621.19 591.76
  Q 673.29 591.77 737.40 591.76
  C 741.59 591.75 744.04 592.43 746.81 595.19
  Q 760.04 608.34 771.82 621.26
  C 777.63 627.63 784.68 634.65 790.52 640.23
  Q 797.52 646.90 806.03 647.85
  C 810.17 648.30 812.51 648.72 816.35 648.75
  Q 835.51 648.88 849.56 648.50
  C 852.02 648.44 852.97 649.63 853.81 651.72
  C 860.42 668.15 878.97 678.67 896.51 673.34
  Q 913.81 668.08 920.57 650.38
  C 931.67 621.33 901.75 592.06 873.00 604.27
  Q 859.82 609.86 854.28 623.69
  A 2.89 2.89 0.0 0 1 851.58 625.51
  Q 842.80 625.45 814.03 625.47
  Q 809.46 625.47 807.48 623.48
  Q 775.87 591.70 773.51 589.26
  C 768.97 584.57 764.00 578.71 759.56 575.20
  Q 749.91 567.55 737.50 567.53
  Q 648.97 567.39 606.99 567.52
  Q 605.03 567.53 604.16 569.68
  C 592.23 599.02 572.25 624.49 545.91 641.79
  C 517.85 660.23 485.64 669.36 452.09 667.13
  C 441.12 666.40 429.37 664.09 419.12 661.10
  Q 383.35 650.66 357.30 624.71
  Q 342.54 610.00 333.83 596.44
  Q 318.53 572.60 312.85 541.41
  C 310.81 530.22 310.77 515.96 311.12 504.78
  Q 311.68 487.54 316.95 470.66
  C 332.24 421.69 369.89 382.64 419.24 367.73
  C 438.14 362.01 459.29 360.62 478.90 362.56
  C 514.50 366.09 547.52 383.12 572.00 409.22
  C 586.55 424.73 597.89 443.86 605.22 463.61
  Q 609.30 474.58 609.82 476.91
  A 1.14 1.12 4.6 0 0 610.52 477.72
  Z
  M 418.52 488.00
  A 0.55 0.55 0.0 0 0 417.97 487.45
  L 395.48 487.45
  A 0.55 0.55 0.0 0 0 394.93 488.00
  L 394.93 518.25
  A 0.55 0.55 0.0 0 1 393.94 518.58
  L 371.01 487.65
  A 0.55 0.55 0.0 0 0 370.57 487.43
  L 345.91 487.43
  A 0.55 0.55 0.0 0 0 345.36 487.98
  L 345.36 561.51
  A 0.55 0.55 0.0 0 0 345.91 562.06
  L 368.08 562.06
  A 0.55 0.55 0.0 0 0 368.63 561.51
  L 368.63 531.32
  A 0.55 0.55 0.0 0 1 369.62 530.99
  L 393.26 561.82
  A 0.55 0.55 0.0 0 0 393.70 562.04
  L 417.97 562.04
  A 0.55 0.55 0.0 0 0 418.52 561.49
  L 418.52 488.00
  Z
  M 466.87 488.41
  A 0.97 0.97 0.0 0 0 465.90 487.44
  L 439.04 487.44
  A 0.97 0.97 0.0 0 0 438.07 488.41
  L 438.07 561.09
  A 0.97 0.97 0.0 0 0 439.04 562.06
  L 465.90 562.06
  A 0.97 0.97 0.0 0 0 466.87 561.09
  L 466.87 488.41
  Z
  M 487.07 487.43
  A 0.96 0.96 0.0 0 0 486.11 488.39
  L 486.11 561.10
  A 0.96 0.96 0.0 0 0 487.07 562.06
  L 512.22 562.06
  A 0.96 0.96 0.0 0 0 513.18 561.10
  L 513.18 535.21
  A 0.96 0.96 0.0 0 1 514.14 534.25
  L 537.74 534.25
  A 0.96 0.96 0.0 0 0 538.70 533.29
  L 538.70 517.44
  A 0.96 0.96 0.0 0 0 537.74 516.48
  L 514.14 516.48
  A 0.96 0.96 0.0 0 1 513.18 515.52
  L 513.18 507.37
  A 0.96 0.96 0.0 0 1 514.14 506.41
  L 539.64 506.41
  A 0.96 0.96 0.0 0 0 540.60 505.45
  L 540.60 488.39
  A 0.96 0.96 0.0 0 0 539.64 487.43
  L 487.07 487.43
  Z
  M 582.29 562.07
  Q 595.30 562.04 596.22 562.02
  A 0.65 0.65 0.0 0 0 596.85 561.37
  L 596.85 507.25
  A 0.94 0.94 0.0 0 1 597.79 506.31
  L 611.19 506.31
  A 0.81 0.81 0.0 0 0 612.00 505.49
  L 611.80 487.76
  A 0.38 0.38 0.0 0 0 611.42 487.39
  Q 610.08 487.36 582.09 487.44
  Q 554.10 487.51 552.76 487.54
  A 0.38 0.38 0.0 0 0 552.39 487.92
  L 552.28 505.65
  A 0.81 0.81 0.0 0 0 553.10 506.46
  L 566.50 506.39
  A 0.94 0.94 0.0 0 1 567.44 507.33
  L 567.73 561.45
  A 0.65 0.65 0.0 0 0 568.36 562.09
  Q 569.28 562.10 582.29 562.07
  Z
  M 654.02 511.24
  L 646.82 488.11
  A 0.98 0.98 0.0 0 0 645.89 487.43
  L 620.20 487.43
  A 0.56 0.55 78.7 0 0 619.69 488.20
  Q 628.22 508.54 638.50 534.77
  C 641.68 542.89 641.09 553.22 640.77 561.21
  A 0.83 0.83 0.0 0 0 641.60 562.07
  L 667.51 562.07
  A 0.74 0.74 0.0 0 0 668.25 561.34
  Q 668.35 553.38 668.21 548.09
  C 668.03 541.20 669.17 538.04 672.02 531.26
  Q 676.57 520.45 690.16 488.35
  A 0.66 0.66 0.0 0 0 689.55 487.43
  L 662.74 487.43
  A 0.64 0.64 0.0 0 0 662.13 487.88
  L 654.99 511.24
  A 0.51 0.51 0.0 0 1 654.02 511.24
  Z
  M 962.54 507.07
  L 967.00 492.47
  A 0.66 0.65 23.2 0 0 966.69 491.70
  C 958.56 487.19 951.52 487.46 940.52 487.37
  Q 931.67 487.30 927.34 489.18
  C 917.50 493.46 913.04 503.09 914.76 513.39
  C 917.23 528.22 930.85 530.53 942.76 534.73
  C 944.83 535.46 948.27 536.87 948.49 539.43
  C 948.79 542.97 944.70 543.90 941.51 543.97
  Q 930.59 544.21 920.89 540.25
  A 0.64 0.64 0.0 0 0 920.03 540.65
  L 915.55 555.29
  A 1.78 1.78 0.0 0 0 916.58 557.45
  Q 933.34 564.29 950.94 560.85
  C 960.01 559.07 967.11 553.80 969.33 544.51
  C 971.86 533.93 967.85 524.10 958.40 518.91
  C 952.46 515.64 945.44 513.90 940.46 512.05
  Q 937.50 510.95 936.21 508.23
  A 0.91 0.91 0.0 0 1 936.25 507.39
  Q 938.53 503.47 944.60 504.17
  Q 953.24 505.16 961.08 507.82
  A 1.15 1.14 -72.0 0 0 962.54 507.07
  Z
  M 765.29 520.83
  C 766.05 520.11 767.48 519.98 768.53 519.32
  Q 774.01 515.84 774.99 509.52
  C 777.36 494.25 762.71 488.50 750.49 488.25
  Q 732.36 487.87 712.83 488.28
  A 0.90 0.89 89.3 0 0 711.96 489.18
  L 711.96 559.87
  A 0.60 0.59 3.3 0 0 712.49 560.46
  Q 731.20 562.58 750.80 561.05
  C 764.36 559.99 780.13 552.56 778.46 536.23
  Q 777.21 524.07 765.47 521.49
  A 0.39 0.39 0.0 0 1 765.29 520.83
  Z
  M 822.6588 489.1788
  A 1.20 1.20 0.0 0 0 821.4567 487.9809
  L 799.4767 488.0192
  A 1.20 1.20 0.0 0 0 798.2788 489.2213
  L 798.4012 559.3212
  A 1.20 1.20 0.0 0 0 799.6033 560.5191
  L 821.5833 560.4808
  A 1.20 1.20 0.0 0 0 822.7812 559.2787
  L 822.6588 489.1788
  Z
  M 870.42 560.52
  Q 881.65 560.51 882.16 560.45
  A 0.54 0.54 0.0 0 0 882.64 559.92
  L 882.65 504.87
  A 0.92 0.92 0.0 0 1 883.57 503.95
  L 897.24 503.95
  A 0.53 0.52 0.0 0 0 897.77 503.43
  L 897.77 489.04
  A 0.66 0.66 0.0 0 0 897.22 488.39
  Q 895.58 488.12 893.97 488.10
  Q 889.99 488.03 870.39 488.04
  Q 850.80 488.05 846.82 488.12
  Q 845.21 488.14 843.57 488.41
  A 0.66 0.66 0.0 0 0 843.02 489.06
  L 843.03 503.45
  A 0.53 0.52 -0.0 0 0 843.56 503.97
  L 857.23 503.96
  A 0.92 0.92 0.0 0 1 858.15 504.88
  L 858.20 559.93
  A 0.54 0.54 0.0 0 0 858.68 560.46
  Q 859.19 560.52 870.42 560.52
  Z"
/>
<path fill="#5abf76" d="
  M 789.30 313.58
  Q 788.80 312.43 787.30 309.48
  C 784.39 303.79 783.51 296.70 784.39 290.37
  Q 787.26 269.68 806.24 261.22
  C 826.62 252.15 848.20 265.30 854.31 285.23
  C 858.70 299.53 854.00 314.06 842.28 323.37
  C 833.80 330.11 824.27 333.40 813.80 330.89
  Q 811.64 330.37 808.65 329.49
  A 0.79 0.79 0.0 0 0 807.87 329.69
  Q 778.09 359.19 744.11 393.57
  Q 737.58 400.18 733.16 402.50
  Q 726.33 406.09 718.03 406.03
  Q 708.23 405.96 663.05 405.97
  Q 658.03 405.98 654.94 401.04
  Q 642.34 380.98 635.27 371.83
  Q 633.15 369.08 634.91 365.93
  Q 638.55 359.44 655.40 327.68
  Q 659.20 320.53 661.75 314.27
  A 0.99 0.98 30.7 0 0 661.46 313.14
  Q 648.12 302.06 624.29 281.97
  C 621.40 279.53 619.67 282.91 618.00 284.24
  Q 602.80 296.36 579.56 314.82
  Q 577.61 316.36 574.74 318.14
  A 2.76 2.74 42.5 0 1 572.05 318.25
  C 558.27 311.25 544.32 304.04 529.74 300.01
  Q 519.77 297.26 505.87 294.66
  C 502.15 293.97 501.02 291.32 500.12 287.63
  Q 490.85 249.36 487.99 237.00
  Q 487.29 233.96 484.26 233.99
  Q 459.97 234.20 435.48 234.27
  A 1.67 1.67 0.0 0 0 433.84 235.64
  Q 432.68 241.86 431.09 248.36
  Q 426.40 267.61 422.32 287.26
  C 421.71 290.19 421.49 292.63 418.81 293.79
  C 411.87 296.81 399.04 298.47 389.81 301.47
  Q 373.91 306.65 371.59 307.83
  Q 360.41 313.55 351.02 317.72
  A 3.04 3.03 -41.2 0 1 348.22 317.54
  Q 344.98 315.58 341.69 313.06
  Q 321.68 297.70 301.84 281.96
  A 1.51 1.50 44.5 0 0 299.96 281.97
  Q 281.47 297.15 263.55 312.54
  Q 262.45 313.48 261.84 315.04
  A 1.14 1.13 42.0 0 0 261.89 315.96
  C 264.63 321.45 267.51 327.46 269.98 331.79
  Q 283.85 356.02 289.36 366.42
  Q 290.90 369.32 288.72 372.24
  Q 275.68 389.67 268.34 404.07
  Q 263.31 413.96 255.23 430.45
  C 253.05 434.89 250.84 436.71 246.00 436.73
  Q 229.68 436.79 193.82 436.76
  A 1.38 1.38 0.0 0 0 192.45 437.88
  L 183.12 486.31
  A 1.40 1.38 17.5 0 0 183.93 487.84
  L 237.93 511.60
  A 2.58 2.57 -77.2 0 1 239.47 514.05
  Q 239.28 519.72 240.20 532.65
  Q 241.50 551.01 243.32 559.71
  Q 244.77 566.66 248.92 583.54
  C 249.54 586.04 247.67 588.52 245.80 590.32
  Q 226.25 609.15 207.39 626.22
  A 0.89 0.87 -35.8 0 0 207.21 627.29
  L 232.13 673.08
  A 0.82 0.81 67.2 0 0 233.07 673.47
  L 283.53 658.86
  A 2.24 2.19 -53.7 0 1 284.08 658.77
  Q 289.43 658.50 292.77 662.62
  Q 303.56 675.93 316.07 687.11
  C 322.91 693.24 331.29 699.08 339.40 705.64
  A 2.01 1.93 9.6 0 1 340.00 706.45
  Q 341.11 709.18 340.76 711.76
  Q 337.30 737.29 332.54 765.53
  A 0.66 0.66 0.0 0 0 332.93 766.24
  L 377.61 785.90
  A 1.21 1.20 32.8 0 0 378.99 785.61
  Q 381.04 783.36 381.83 782.34
  Q 386.74 776.05 413.83 740.61
  Q 416.88 736.62 422.58 737.45
  C 439.13 739.87 451.05 741.72 464.22 741.67
  Q 483.62 741.60 499.13 739.07
  Q 521.46 735.41 545.86 725.33
  Q 550.63 723.36 568.11 714.57
  C 570.93 713.15 573.58 714.73 575.92 716.86
  Q 601.28 739.98 621.00 757.58
  C 622.54 758.95 623.46 760.30 625.63 758.65
  Q 638.63 748.73 657.53 735.30
  Q 658.97 734.28 661.72 732.73
  A 1.02 1.01 -29.5 0 0 662.11 731.35
  Q 647.04 704.79 633.25 676.98
  A 1.55 1.54 38.5 0 1 633.13 675.96
  Q 633.58 673.88 634.69 672.44
  Q 644.13 660.28 655.45 644.76
  C 657.93 641.36 660.09 640.29 664.00 640.27
  Q 676.75 640.20 705.07 640.25
  C 713.20 640.26 720.12 638.65 728.11 640.81
  A 4.89 4.88 67.9 0 1 729.41 641.36
  Q 739.05 647.11 745.26 653.52
  C 758.85 667.52 768.13 676.63 780.58 689.92
  Q 792.28 702.44 806.67 716.32
  A 2.23 2.22 -31.8 0 0 808.88 716.83
  C 820.02 713.23 832.06 715.13 841.33 722.39
  C 854.62 732.80 860.03 750.66 852.95 766.42
  Q 847.17 779.29 832.56 786.10
  Q 830.90 786.87 823.76 787.87
  C 813.43 789.32 802.52 785.24 795.24 778.30
  C 782.99 766.64 781.24 749.61 788.62 734.60
  A 2.30 2.30 0.0 0 0 788.23 732.01
  Q 757.33 699.12 725.21 667.55
  Q 721.94 664.34 717.79 664.34
  Q 698.61 664.34 672.27 664.58
  A 2.27 2.26 18.1 0 0 670.48 665.48
  L 660.98 678.12
  A 0.98 0.98 0.0 0 0 660.86 679.09
  C 662.64 683.36 665.46 687.52 667.60 691.78
  C 672.43 701.40 679.29 713.27 684.78 725.32
  C 687.30 730.86 690.08 736.25 687.80 741.41
  Q 687.01 743.20 682.22 746.67
  Q 663.87 759.95 633.86 782.77
  C 629.46 786.12 624.31 789.98 618.95 786.28
  Q 614.63 783.31 608.25 777.50
  Q 588.52 759.56 570.75 744.21
  Q 568.00 741.83 564.76 743.47
  Q 538.51 756.71 509.48 762.14
  A 0.96 0.95 -10.5 0 0 508.72 763.24
  L 517.97 816.67
  A 3.85 3.78 20.7 0 0 518.81 818.49
  Q 527.28 828.65 537.01 838.05
  C 540.19 841.12 543.26 844.95 545.86 847.98
  C 550.91 853.88 548.56 862.81 541.61 865.80
  C 534.94 868.67 531.20 866.29 526.15 861.13
  Q 509.47 844.08 500.46 833.79
  Q 495.93 828.61 494.79 820.96
  Q 490.60 792.88 486.25 767.01
  A 1.53 1.52 84.9 0 0 484.74 765.74
  Q 467.56 765.86 451.16 765.57
  C 442.50 765.42 435.98 764.13 427.20 762.98
  A 1.16 1.15 -67.2 0 0 426.13 763.42
  Q 404.04 792.06 390.94 809.43
  Q 386.63 815.16 379.48 812.80
  Q 375.91 811.62 368.26 808.06
  C 353.28 801.10 337.56 794.35 314.14 784.12
  C 307.40 781.18 307.48 775.56 308.49 768.25
  Q 311.31 748.01 315.97 717.47
  A 1.32 1.31 -68.2 0 0 315.42 716.18
  Q 296.38 702.99 281.33 686.34
  A 1.83 1.82 -29.2 0 0 279.45 685.81
  Q 254.61 693.28 230.24 699.72
  C 227.16 700.54 222.63 701.15 220.21 698.56
  Q 216.98 695.11 213.26 688.25
  Q 203.87 670.91 182.79 631.16
  C 179.60 625.14 177.07 621.61 182.16 616.66
  C 188.75 610.25 202.16 598.48 211.91 588.99
  Q 218.05 583.01 223.07 578.91
  A 1.33 1.32 -27.5 0 0 223.51 577.53
  Q 217.29 554.35 216.13 529.09
  A 2.00 2.00 0.0 0 0 214.94 527.36
  Q 195.93 519.07 176.62 510.81
  C 168.92 507.52 157.33 505.85 157.93 494.77
  Q 158.33 487.24 160.12 478.10
  Q 166.77 444.09 170.64 423.45
  Q 170.74 422.92 171.71 419.97
  C 173.70 413.94 178.31 413.23 183.84 412.69
  Q 186.05 412.48 188.66 412.48
  Q 232.82 412.49 237.03 412.48
  A 1.29 1.29 0.0 0 0 238.20 411.70
  Q 248.15 388.49 262.34 368.24
  A 1.46 1.46 0.0 0 0 262.42 366.67
  Q 248.18 341.89 236.13 317.16
  C 231.24 307.13 236.40 304.36 244.04 297.73
  Q 268.30 276.71 293.09 255.85
  C 298.56 251.26 303.51 253.02 308.70 256.96
  Q 335.22 277.11 351.38 290.35
  A 0.87 0.87 0.0 0 0 352.31 290.46
  C 367.29 283.33 382.99 277.42 398.88 273.67
  A 3.40 3.40 0.0 0 0 401.40 271.16
  Q 407.72 244.83 413.96 220.48
  C 415.90 212.95 421.11 210.06 428.75 210.03
  Q 460.64 209.91 487.80 210.07
  C 492.50 210.10 498.36 210.58 502.48 211.75
  C 506.39 212.85 508.03 218.69 508.99 222.51
  Q 513.74 241.43 520.11 271.03
  A 2.96 2.95 0.5 0 0 522.35 273.30
  C 538.72 277.04 554.78 282.59 569.65 290.25
  A 3.06 3.05 38.8 0 0 572.99 289.89
  Q 595.54 271.28 617.23 254.75
  Q 623.06 250.31 628.88 254.83
  Q 634.57 259.25 638.52 262.60
  Q 682.46 299.98 685.13 302.23
  C 690.76 306.99 688.97 312.69 686.06 318.58
  Q 681.07 328.72 664.04 362.57
  Q 662.99 364.67 661.47 366.70
  A 0.59 0.57 46.6 0 0 661.46 367.38
  L 670.81 381.16
  A 1.31 1.31 0.0 0 0 671.89 381.73
  Q 693.96 381.75 716.75 381.74
  C 721.72 381.74 724.05 379.74 728.27 375.52
  Q 788.25 315.53 789.11 314.66
  A 0.99 0.97 -35.3 0 0 789.30 313.58
  Z
  M 810.4669 285.7625
  A 13.28 12.87 -135.2 0 0 810.8214 304.2522
  A 13.28 12.87 -135.2 0 0 829.3131 304.4775
  A 13.28 12.87 -135.2 0 0 828.9586 285.9878
  A 13.28 12.87 -135.2 0 0 810.4669 285.7625
  Z
  M 833.22 751.48
  A 13.19 13.19 0.0 0 0 820.03 738.29
  A 13.19 13.19 0.0 0 0 806.84 751.48
  A 13.19 13.19 0.0 0 0 820.03 764.67
  A 13.19 13.19 0.0 0 0 833.22 751.48
  Z"
/>
<ellipse fill="#fff0" cx="0.00" cy="0.00" transform="translate(819.89,295.12) rotate(-135.2)" rx="13.28" ry="12.87"/>
<path fill="#5abf76" d="
  M 609.82 476.91
  Q 609.30 474.58 605.22 463.61
  C 597.89 443.86 586.55 424.73 572.00 409.22
  C 547.52 383.12 514.50 366.09 478.90 362.56
  C 459.29 360.62 438.14 362.01 419.24 367.73
  C 369.89 382.64 332.24 421.69 316.95 470.66
  Q 311.68 487.54 311.12 504.78
  C 310.77 515.96 310.81 530.22 312.85 541.41
  Q 318.53 572.60 333.83 596.44
  Q 342.54 610.00 357.30 624.71
  Q 383.35 650.66 419.12 661.10
  C 429.37 664.09 441.12 666.40 452.09 667.13
  C 485.64 669.36 517.85 660.23 545.91 641.79
  C 572.25 624.49 592.23 599.02 604.16 569.68
  Q 605.03 567.53 606.99 567.52
  Q 648.97 567.39 737.50 567.53
  Q 749.91 567.55 759.56 575.20
  C 764.00 578.71 768.97 584.57 773.51 589.26
  Q 775.87 591.70 807.48 623.48
  Q 809.46 625.47 814.03 625.47
  Q 842.80 625.45 851.58 625.51
  A 2.89 2.89 0.0 0 0 854.28 623.69
  Q 859.82 609.86 873.00 604.27
  C 901.75 592.06 931.67 621.33 920.57 650.38
  Q 913.81 668.08 896.51 673.34
  C 878.97 678.67 860.42 668.15 853.81 651.72
  C 852.97 649.63 852.02 648.44 849.56 648.50
  Q 835.51 648.88 816.35 648.75
  C 812.51 648.72 810.17 648.30 806.03 647.85
  Q 797.52 646.90 790.52 640.23
  C 784.68 634.65 777.63 627.63 771.82 621.26
  Q 760.04 608.34 746.81 595.19
  C 744.04 592.43 741.59 591.75 737.40 591.76
  Q 673.29 591.77 621.19 591.76
  A 1.75 1.74 -78.1 0 0 619.59 592.81
  Q 616.55 599.78 612.85 605.61
  Q 583.91 651.13 539.13 673.67
  Q 504.19 691.26 464.50 691.01
  C 452.48 690.94 439.92 690.27 428.29 687.88
  C 387.41 679.48 350.94 656.92 324.85 624.15
  Q 311.73 607.68 304.04 591.00
  C 279.86 538.54 281.40 477.90 309.40 428.02
  C 329.65 391.93 362.37 363.51 400.81 348.35
  Q 411.64 344.08 426.27 341.22
  Q 470.12 332.62 511.64 344.44
  Q 531.01 349.96 550.80 361.97
  C 585.45 383.00 611.70 415.46 626.57 452.98
  A 2.38 2.37 -10.7 0 0 628.78 454.48
  L 739.76 454.48
  A 6.02 5.99 27.2 0 0 743.24 453.37
  C 746.17 451.29 748.37 448.28 751.16 445.47
  Q 771.41 425.13 786.81 409.56
  C 791.35 404.97 796.85 400.94 803.13 399.63
  Q 806.62 398.90 813.75 398.83
  Q 830.25 398.64 850.33 398.78
  A 3.00 2.99 -78.6 0 0 853.11 396.93
  C 858.78 383.11 869.46 373.51 884.53 372.36
  C 897.15 371.40 910.72 378.95 917.27 389.93
  Q 926.67 405.68 920.22 422.72
  C 913.57 440.29 894.78 449.07 877.18 444.00
  Q 863.98 440.19 857.20 429.31
  Q 856.27 427.82 853.94 423.29
  A 1.36 1.35 -8.7 0 0 852.95 422.57
  C 851.97 422.41 850.78 422.89 849.45 422.89
  C 846.67 422.90 841.53 422.09 837.52 422.34
  Q 825.64 423.07 812.51 422.83
  C 808.31 422.76 806.90 423.64 803.65 426.70
  Q 789.34 440.17 761.97 469.21
  Q 761.15 470.08 755.98 474.24
  A 5.30 5.17 -74.7 0 1 754.72 474.98
  Q 745.54 478.73 738.24 478.73
  Q 665.17 478.72 617.76 478.97
  Q 613.73 478.99 610.52 477.72
  A 1.14 1.12 4.6 0 1 609.82 476.91
  Z
  M 886.7176 395.8024
  A 13.15 12.87 -91.1 0 0 874.1024 409.1971
  A 13.15 12.87 -91.1 0 0 887.2224 422.0976
  A 13.15 12.87 -91.1 0 0 899.8376 408.7029
  A 13.15 12.87 -91.1 0 0 886.7176 395.8024
  Z
  M 899.96 638.01
  A 12.98 12.98 0.0 0 0 886.98 625.03
  A 12.98 12.98 0.0 0 0 874.00 638.01
  A 12.98 12.98 0.0 0 0 886.98 650.99
  A 12.98 12.98 0.0 0 0 899.96 638.01
  Z"
/>
<ellipse fill="#ff00" cx="0.00" cy="0.00" transform="translate(886.97,408.95) rotate(-91.1)" rx="13.15" ry="12.87"/>
<path fill="#000000" d="
  M 418.52 488.00
  L 418.52 561.49
  A 0.55 0.55 0.0 0 1 417.97 562.04
  L 393.70 562.04
  A 0.55 0.55 0.0 0 1 393.26 561.82
  L 369.62 530.99
  A 0.55 0.55 0.0 0 0 368.63 531.32
  L 368.63 561.51
  A 0.55 0.55 0.0 0 1 368.08 562.06
  L 345.91 562.06
  A 0.55 0.55 0.0 0 1 345.36 561.51
  L 345.36 487.98
  A 0.55 0.55 0.0 0 1 345.91 487.43
  L 370.57 487.43
  A 0.55 0.55 0.0 0 1 371.01 487.65
  L 393.94 518.58
  A 0.55 0.55 0.0 0 0 394.93 518.25
  L 394.93 488.00
  A 0.55 0.55 0.0 0 1 395.48 487.45
  L 417.97 487.45
  A 0.55 0.55 0.0 0 1 418.52 488.00
  Z
  M 399.09 533.19
  L 368.42 491.79
  A 4.07 4.04 71.5 0 0 365.17 490.15
  L 350.67 490.15
  A 0.68 0.67 90.0 0 0 350.00 490.83
  L 350.00 557.38
  A 0.62 0.61 -0.0 0 0 350.62 557.99
  L 363.11 557.99
  A 0.80 0.80 0.0 0 0 363.91 557.19
  Q 363.93 548.85 363.92 517.32
  Q 363.92 516.98 364.37 516.92
  Q 364.61 516.89 364.77 517.10
  Q 391.03 551.29 395.27 556.61
  A 3.97 3.96 -19.3 0 0 398.37 558.10
  L 413.08 558.10
  A 0.86 0.85 0.0 0 0 413.94 557.25
  L 413.94 490.79
  A 0.63 0.63 0.0 0 0 413.31 490.16
  L 400.23 490.16
  A 0.79 0.78 0.0 0 0 399.44 490.94
  L 399.44 533.07
  A 0.20 0.19 -63.6 0 1 399.09 533.19
  Z"
/>
<path fill="#000000" d="
  M 466.87 561.09
  A 0.97 0.97 0.0 0 1 465.90 562.06
  L 439.04 562.06
  A 0.97 0.97 0.0 0 1 438.07 561.09
  L 438.07 488.41
  A 0.97 0.97 0.0 0 1 439.04 487.44
  L 465.90 487.44
  A 0.97 0.97 0.0 0 1 466.87 488.41
  L 466.87 561.09
  Z
  M 462.12 490.93
  A 0.77 0.77 0.0 0 0 461.35 490.16
  L 443.37 490.16
  A 0.77 0.77 0.0 0 0 442.60 490.93
  L 442.60 557.23
  A 0.77 0.77 0.0 0 0 443.37 558.00
  L 461.35 558.00
  A 0.77 0.77 0.0 0 0 462.12 557.23
  L 462.12 490.93
  Z"
/>
<path fill="#000000" d="
  M 487.07 487.43
  L 539.64 487.43
  A 0.96 0.96 0.0 0 1 540.60 488.39
  L 540.60 505.45
  A 0.96 0.96 0.0 0 1 539.64 506.41
  L 514.14 506.41
  A 0.96 0.96 0.0 0 0 513.18 507.37
  L 513.18 515.52
  A 0.96 0.96 0.0 0 0 514.14 516.48
  L 537.74 516.48
  A 0.96 0.96 0.0 0 1 538.70 517.44
  L 538.70 533.29
  A 0.96 0.96 0.0 0 1 537.74 534.25
  L 514.14 534.25
  A 0.96 0.96 0.0 0 0 513.18 535.21
  L 513.18 561.10
  A 0.96 0.96 0.0 0 1 512.22 562.06
  L 487.07 562.06
  A 0.96 0.96 0.0 0 1 486.11 561.10
  L 486.11 488.39
  A 0.96 0.96 0.0 0 1 487.07 487.43
  Z
  M 533.15 529.62
  A 0.84 0.84 0.0 0 0 533.99 528.78
  L 533.99 521.84
  A 0.84 0.84 0.0 0 0 533.15 521.00
  L 509.43 521.00
  A 0.84 0.84 0.0 0 1 508.59 520.16
  L 508.59 502.69
  A 0.84 0.84 0.0 0 1 509.43 501.85
  L 535.11 501.85
  A 0.84 0.84 0.0 0 0 535.95 501.01
  L 535.95 491.00
  A 0.84 0.84 0.0 0 0 535.11 490.16
  L 491.55 490.16
  A 0.84 0.84 0.0 0 0 490.71 491.00
  L 490.71 557.16
  A 0.84 0.84 0.0 0 0 491.55 558.00
  L 507.81 558.00
  A 0.84 0.84 0.0 0 0 508.65 557.16
  L 508.65 530.46
  A 0.84 0.84 0.0 0 1 509.49 529.62
  L 533.15 529.62
  Z"
/>
<path fill="#000000" d="
  M 582.09 487.44
  Q 610.08 487.36 611.42 487.39
  A 0.38 0.38 0.0 0 1 611.80 487.76
  L 612.00 505.49
  A 0.81 0.81 0.0 0 1 611.19 506.31
  L 597.79 506.31
  A 0.94 0.94 0.0 0 0 596.85 507.25
  L 596.85 561.37
  A 0.65 0.65 0.0 0 1 596.22 562.02
  Q 595.30 562.04 582.29 562.07
  Q 569.28 562.10 568.36 562.09
  A 0.65 0.65 0.0 0 1 567.73 561.45
  L 567.44 507.33
  A 0.94 0.94 0.0 0 0 566.50 506.39
  L 553.10 506.46
  A 0.81 0.81 0.0 0 1 552.28 505.65
  L 552.39 487.92
  A 0.38 0.38 0.0 0 1 552.76 487.54
  Q 554.10 487.51 582.09 487.44
  Z
  M 582.24 558.00
  Q 590.21 558.00 591.19 557.98
  A 1.17 1.17 0.0 0 0 592.33 556.81
  L 592.33 502.32
  A 0.47 0.46 0.0 0 1 592.80 501.86
  L 605.87 501.86
  A 1.57 1.57 0.0 0 0 607.44 500.29
  L 607.42 490.98
  A 0.80 0.79 0.6 0 0 606.64 490.19
  Q 605.95 490.17 582.28 490.15
  Q 558.61 490.14 557.93 490.17
  A 0.80 0.79 -0.5 0 0 557.14 490.95
  L 557.11 500.26
  A 1.57 1.57 0.0 0 0 558.68 501.83
  L 571.75 501.85
  A 0.47 0.46 0.1 0 1 572.22 502.31
  L 572.16 556.80
  A 1.17 1.17 0.0 0 0 573.30 557.97
  Q 574.27 558.00 582.24 558.00
  Z"
/>
<path fill="#000000" d="
  M 654.02 511.24
  A 0.51 0.51 0.0 0 0 654.99 511.24
  L 662.13 487.88
  A 0.64 0.64 0.0 0 1 662.74 487.43
  L 689.55 487.43
  A 0.66 0.66 0.0 0 1 690.16 488.35
  Q 676.57 520.45 672.02 531.26
  C 669.17 538.04 668.03 541.20 668.21 548.09
  Q 668.35 553.38 668.25 561.34
  A 0.74 0.74 0.0 0 1 667.51 562.07
  L 641.60 562.07
  A 0.83 0.83 0.0 0 1 640.77 561.21
  C 641.09 553.22 641.68 542.89 638.50 534.77
  Q 628.22 508.54 619.69 488.20
  A 0.56 0.55 78.7 0 1 620.20 487.43
  L 645.89 487.43
  A 0.98 0.98 0.0 0 1 646.82 488.11
  L 654.02 511.24
  Z
  M 655.10 526.57
  A 0.58 0.58 0.0 0 1 653.99 526.57
  L 642.95 491.10
  A 1.35 1.34 -8.4 0 0 641.66 490.15
  L 626.75 490.15
  A 0.79 0.78 79.5 0 0 626.02 491.22
  Q 636.17 517.16 643.40 534.43
  C 646.31 541.37 645.57 548.97 645.34 556.89
  A 1.08 1.08 0.0 0 0 646.42 558.00
  L 662.97 558.00
  A 0.74 0.74 0.0 0 0 663.71 557.26
  L 663.71 540.33
  A 5.20 5.20 0.0 0 1 664.11 538.33
  L 683.79 491.44
  A 0.92 0.92 0.0 0 0 682.94 490.16
  L 667.40 490.16
  A 1.57 1.57 0.0 0 0 665.90 491.27
  L 655.10 526.57
  Z"
/>
<path fill="#5abf76" d="
  M 962.54 507.07
  A 1.15 1.14 -72.0 0 1 961.08 507.82
  Q 953.24 505.16 944.60 504.17
  Q 938.53 503.47 936.25 507.39
  A 0.91 0.91 0.0 0 0 936.21 508.23
  Q 937.50 510.95 940.46 512.05
  C 945.44 513.90 952.46 515.64 958.40 518.91
  C 967.85 524.10 971.86 533.93 969.33 544.51
  C 967.11 553.80 960.01 559.07 950.94 560.85
  Q 933.34 564.29 916.58 557.45
  A 1.78 1.78 0.0 0 1 915.55 555.29
  L 920.03 540.65
  A 0.64 0.64 0.0 0 1 920.89 540.25
  Q 930.59 544.21 941.51 543.97
  C 944.70 543.90 948.79 542.97 948.49 539.43
  C 948.27 536.87 944.83 535.46 942.76 534.73
  C 930.85 530.53 917.23 528.22 914.76 513.39
  C 913.04 503.09 917.50 493.46 927.34 489.18
  Q 931.67 487.30 940.52 487.37
  C 951.52 487.46 958.56 487.19 966.69 491.70
  A 0.66 0.65 23.2 0 1 967.00 492.47
  L 962.54 507.07
  Z"
/>
<path fill="#5abf76" d="
  M 765.29 520.83
  A 0.39 0.39 0.0 0 0 765.47 521.49
  Q 777.21 524.07 778.46 536.23
  C 780.13 552.56 764.36 559.99 750.80 561.05
  Q 731.20 562.58 712.49 560.46
  A 0.60 0.59 3.3 0 1 711.96 559.87
  L 711.96 489.18
  A 0.90 0.89 89.3 0 1 712.83 488.28
  Q 732.36 487.87 750.49 488.25
  C 762.71 488.50 777.36 494.25 774.99 509.52
  Q 774.01 515.84 768.53 519.32
  C 767.48 519.98 766.05 520.11 765.29 520.83
  Z
  M 735.50 502.87
  L 735.78 516.08
  A 0.65 0.65 0.0 0 0 736.44 516.72
  L 745.23 516.54
  A 8.22 7.12 -1.2 0 0 753.30 509.25
  L 753.30 508.97
  A 8.22 7.12 -1.2 0 0 744.93 502.02
  L 736.14 502.20
  A 0.65 0.65 0.0 0 0 735.50 502.87
  Z
  M 735.54 528.92
  L 735.60 544.38
  A 0.62 0.62 0.0 0 0 736.22 545.00
  L 746.06 544.97
  A 9.32 7.92 -0.2 0 0 755.35 537.02
  L 755.35 536.16
  A 9.32 7.92 -0.2 0 0 746.00 528.27
  L 736.16 528.30
  A 0.62 0.62 0.0 0 0 735.54 528.92
  Z"
/>
<rect fill="#5abf76" x="-12.19" y="-36.25" transform="translate(810.53,524.25) rotate(-0.1)" width="24.38" height="72.50" rx="1.20"/>
<path fill="#5abf76" d="
  M 870.39 488.04
  Q 889.99 488.03 893.97 488.10
  Q 895.58 488.12 897.22 488.39
  A 0.66 0.66 0.0 0 1 897.77 489.04
  L 897.77 503.43
  A 0.53 0.52 0.0 0 1 897.24 503.95
  L 883.57 503.95
  A 0.92 0.92 0.0 0 0 882.65 504.87
  L 882.64 559.92
  A 0.54 0.54 0.0 0 1 882.16 560.45
  Q 881.65 560.51 870.42 560.52
  Q 859.19 560.52 858.68 560.46
  A 0.54 0.54 0.0 0 1 858.20 559.93
  L 858.15 504.88
  A 0.92 0.92 0.0 0 0 857.23 503.96
  L 843.56 503.97
  A 0.53 0.52 -0.0 0 1 843.03 503.45
  L 843.02 489.06
  A 0.66 0.66 0.0 0 1 843.57 488.41
  Q 845.21 488.14 846.82 488.12
  Q 850.80 488.05 870.39 488.04
  Z"
/>
<path fill="#ffffff" d="
  M 399.09 533.19
  A 0.20 0.19 -63.6 0 0 399.44 533.07
  L 399.44 490.94
  A 0.79 0.78 0.0 0 1 400.23 490.16
  L 413.31 490.16
  A 0.63 0.63 0.0 0 1 413.94 490.79
  L 413.94 557.25
  A 0.86 0.85 -0.0 0 1 413.08 558.10
  L 398.37 558.10
  A 3.97 3.96 -19.3 0 1 395.27 556.61
  Q 391.03 551.29 364.77 517.10
  Q 364.61 516.89 364.37 516.92
  Q 363.92 516.98 363.92 517.32
  Q 363.93 548.85 363.91 557.19
  A 0.80 0.80 0.0 0 1 363.11 557.99
  L 350.62 557.99
  A 0.62 0.61 -0.0 0 1 350.00 557.38
  L 350.00 490.83
  A 0.68 0.67 90.0 0 1 350.67 490.15
  L 365.17 490.15
  A 4.07 4.04 71.5 0 1 368.42 491.79
  L 399.09 533.19
  Z"
/>
<rect fill="#ffffff" x="442.60" y="490.16" width="19.52" height="67.84" rx="0.77"/>
<path fill="#ffffff" d="
  M 533.15 529.62
  L 509.49 529.62
  A 0.84 0.84 0.0 0 0 508.65 530.46
  L 508.65 557.16
  A 0.84 0.84 0.0 0 1 507.81 558.00
  L 491.55 558.00
  A 0.84 0.84 0.0 0 1 490.71 557.16
  L 490.71 491.00
  A 0.84 0.84 0.0 0 1 491.55 490.16
  L 535.11 490.16
  A 0.84 0.84 0.0 0 1 535.95 491.00
  L 535.95 501.01
  A 0.84 0.84 0.0 0 1 535.11 501.85
  L 509.43 501.85
  A 0.84 0.84 0.0 0 0 508.59 502.69
  L 508.59 520.16
  A 0.84 0.84 0.0 0 0 509.43 521.00
  L 533.15 521.00
  A 0.84 0.84 0.0 0 1 533.99 521.84
  L 533.99 528.78
  A 0.84 0.84 0.0 0 1 533.15 529.62
  Z"
/>
<path fill="#ffffff" d="
  M 582.28 490.15
  Q 605.95 490.17 606.64 490.19
  A 0.80 0.79 0.6 0 1 607.42 490.98
  L 607.44 500.29
  A 1.57 1.57 0.0 0 1 605.87 501.86
  L 592.80 501.86
  A 0.47 0.46 0.0 0 0 592.33 502.32
  L 592.33 556.81
  A 1.17 1.17 0.0 0 1 591.19 557.98
  Q 590.21 558.00 582.24 558.00
  Q 574.27 558.00 573.30 557.97
  A 1.17 1.17 0.0 0 1 572.16 556.80
  L 572.22 502.31
  A 0.47 0.46 0.1 0 0 571.75 501.85
  L 558.68 501.83
  A 1.57 1.57 0.0 0 1 557.11 500.26
  L 557.14 490.95
  A 0.80 0.79 -0.5 0 1 557.93 490.17
  Q 558.61 490.14 582.28 490.15
  Z"
/>
<path fill="#ffffff" d="
  M 655.10 526.57
  L 665.90 491.27
  A 1.57 1.57 0.0 0 1 667.40 490.16
  L 682.94 490.16
  A 0.92 0.92 0.0 0 1 683.79 491.44
  L 664.11 538.33
  A 5.20 5.20 0.0 0 0 663.71 540.33
  L 663.71 557.26
  A 0.74 0.74 0.0 0 1 662.97 558.00
  L 646.42 558.00
  A 1.08 1.08 0.0 0 1 645.34 556.89
  C 645.57 548.97 646.31 541.37 643.40 534.43
  Q 636.17 517.16 626.02 491.22
  A 0.79 0.78 79.5 0 1 626.75 490.15
  L 641.66 490.15
  A 1.35 1.34 -8.4 0 1 642.95 491.10
  L 653.99 526.57
  A 0.58 0.58 0.0 0 0 655.10 526.57
  Z"
/>
<path fill="#ff00" d="
  M 735.50 502.87
  A 0.65 0.65 0.0 0 1 736.14 502.20
  L 744.93 502.02
  A 8.22 7.12 -1.2 0 1 753.30 508.97
  L 753.30 509.25
  A 8.22 7.12 -1.2 0 1 745.23 516.54
  L 736.44 516.72
  A 0.65 0.65 0.0 0 1 735.78 516.08
  L 735.50 502.87
  Z"
/>
<path fill="#ff00" d="
  M 735.54 528.92
  A 0.62 0.62 0.0 0 1 736.16 528.30
  L 746.00 528.27
  A 9.32 7.92 -0.2 0 1 755.35 536.16
  L 755.35 537.02
  A 9.32 7.92 -0.2 0 1 746.06 544.97
  L 736.22 545.00
  A 0.62 0.62 0.0 0 1 735.60 544.38
  L 735.54 528.92
  Z"
/>
<circle fill="#ff00" cx="886.98" cy="638.01" r="12.98"/>
<circle fill="#ff00" cx="820.03" cy="751.48" r="13.19"/>
</svg>
