<?xml version="1.0" encoding="UTF-8"?>
<!DOCTYPE svg PUBLIC "-//W3C//DTD SVG 1.1//EN" "http://www.w3.org/Graphics/SVG/1.1/DTD/svg11.dtd">
<svg xmlns="http://www.w3.org/2000/svg" version="1.1" width="1024px" height="1024px" style="shape-rendering:geometricPrecision; text-rendering:geometricPrecision; image-rendering:optimizeQuality; fill-rule:evenodd; clip-rule:evenodd" xmlns:xlink="http://www.w3.org/1999/xlink">
<g><path style="opacity:1" fill="#fdfdfd" d="M -0.5,-0.5 C 340.833,-0.5 682.167,-0.5 1023.5,-0.5C 1023.5,340.833 1023.5,682.167 1023.5,1023.5C 682.167,1023.5 340.833,1023.5 -0.5,1023.5C -0.5,682.167 -0.5,340.833 -0.5,-0.5 Z"/></g>
<g><path style="opacity:1" fill="#3bbc79" d="M 437.5,308.5 C 437.414,309.496 437.748,310.329 438.5,311C 432.009,314.588 425.009,316.588 417.5,317C 413.344,317.824 409.511,319.324 406,321.5C 405.085,320.672 404.419,319.672 404,318.5C 403.658,320.619 402.825,320.953 401.5,319.5C 401.5,315.5 401.5,311.5 401.5,307.5C 413.678,307.172 425.678,307.505 437.5,308.5 Z"/></g>
<g><path style="opacity:1" fill="#2bb08b" d="M 504.5,307.5 C 504.5,310.833 504.5,314.167 504.5,317.5C 516.54,316.796 528.54,315.629 540.5,314C 544.32,313.15 547.653,311.483 550.5,309C 554.688,308.824 558.688,308.324 562.5,307.5C 571.715,306.903 580.715,307.903 589.5,310.5C 586.359,311.321 583.025,311.821 579.5,312C 580.634,313.016 580.301,313.683 578.5,314C 569.631,316.434 560.631,318.267 551.5,319.5C 537.636,318.697 523.803,319.364 510,321.5C 508.527,321.097 507.194,320.43 506,319.5C 505.768,320.737 505.268,321.737 504.5,322.5C 504.768,320.901 504.434,319.568 503.5,318.5C 503.185,314.629 503.518,310.962 504.5,307.5 Z"/></g>
<g><path style="opacity:1" fill="#2fb484" d="M 504.5,307.5 C 523.833,307.5 543.167,307.5 562.5,307.5C 558.688,308.324 554.688,308.824 550.5,309C 547.653,311.483 544.32,313.15 540.5,314C 528.54,315.629 516.54,316.796 504.5,317.5C 504.5,314.167 504.5,310.833 504.5,307.5 Z"/></g>
<g><path style="opacity:1" fill="#1eaa93" d="M 589.5,310.5 C 596.296,312.059 601.962,315.392 606.5,320.5C 606.209,321.649 605.376,322.316 604,322.5C 601.645,321.487 599.311,320.487 597,319.5C 595.987,321.846 594.321,323.513 592,324.5C 589.811,323.351 587.811,322.685 586,322.5C 581.131,323.101 576.464,324.435 572,326.5C 569.891,326.434 567.725,326.101 565.5,325.5C 560.279,326.677 555.112,327.677 550,328.5C 549.439,327.978 548.772,327.645 548,327.5C 533.564,329.7 519.064,331.367 504.5,332.5C 504.5,329.167 504.5,325.833 504.5,322.5C 505.268,321.737 505.768,320.737 506,319.5C 507.194,320.43 508.527,321.097 510,321.5C 523.803,319.364 537.636,318.697 551.5,319.5C 560.631,318.267 569.631,316.434 578.5,314C 580.301,313.683 580.634,313.016 579.5,312C 583.025,311.821 586.359,311.321 589.5,310.5 Z"/></g>
<g><path style="opacity:1" fill="#30b685" d="M 437.5,308.5 C 440.848,311.851 443.848,315.518 446.5,319.5C 444.863,318.782 443.197,318.616 441.5,319C 437.779,320.854 434.446,323.187 431.5,326C 423.743,329.058 415.743,331.558 407.5,333.5C 405.181,331.945 403.681,332.612 403,335.5C 402.768,334.263 402.268,333.263 401.5,332.5C 401.5,328.167 401.5,323.833 401.5,319.5C 402.825,320.953 403.658,320.619 404,318.5C 404.419,319.672 405.085,320.672 406,321.5C 409.511,319.324 413.344,317.824 417.5,317C 425.009,316.588 432.009,314.588 438.5,311C 437.748,310.329 437.414,309.496 437.5,308.5 Z"/></g>
<g><path style="opacity:1" fill="#28b18d" d="M 446.5,319.5 C 448.471,321.808 450.471,324.142 452.5,326.5C 451.883,326.611 451.383,326.944 451,327.5C 449.184,325.559 447.184,324.892 445,325.5C 436.795,331.486 427.295,335.319 416.5,337C 412.986,337.831 409.819,339.331 407,341.5C 404.833,340.512 403,339.179 401.5,337.5C 401.5,335.833 401.5,334.167 401.5,332.5C 402.268,333.263 402.768,334.263 403,335.5C 403.681,332.612 405.181,331.945 407.5,333.5C 415.743,331.558 423.743,329.058 431.5,326C 434.446,323.187 437.779,320.854 441.5,319C 443.197,318.616 444.863,318.782 446.5,319.5 Z"/></g>
<g><path style="opacity:1" fill="#1aa698" d="M 503.5,318.5 C 504.434,319.568 504.768,320.901 504.5,322.5C 504.5,325.833 504.5,329.167 504.5,332.5C 519.064,331.367 533.564,329.7 548,327.5C 548.772,327.645 549.439,327.978 550,328.5C 555.112,327.677 560.279,326.677 565.5,325.5C 567.725,326.101 569.891,326.434 572,326.5C 576.464,324.435 581.131,323.101 586,322.5C 587.811,322.685 589.811,323.351 592,324.5C 594.321,323.513 595.987,321.846 597,319.5C 599.311,320.487 601.645,321.487 604,322.5C 605.376,322.316 606.209,321.649 606.5,320.5C 608.833,322.167 610.833,324.167 612.5,326.5C 611.292,327.234 609.959,327.567 608.5,327.5C 606.516,322.764 603.516,322.264 599.5,326C 587.902,327.752 576.402,329.585 565,331.5C 564.586,331.043 564.086,330.709 563.5,330.5C 557.215,332.952 551.382,333.619 546,332.5C 544.921,334.394 543.587,334.727 542,333.5C 534.042,334.872 526.042,335.872 518,336.5C 514.32,335.955 510.654,335.621 507,335.5C 504.835,337.653 504.002,340.319 504.5,343.5C 504.167,343.5 503.833,343.5 503.5,343.5C 503.5,335.167 503.5,326.833 503.5,318.5 Z"/></g>
<g><path style="opacity:1" fill="#1dab91" d="M 452.5,326.5 C 454.885,328.884 456.885,331.55 458.5,334.5C 456.501,335.857 455.335,335.19 455,332.5C 453.513,333.253 453.346,334.086 454.5,335C 452.559,335.743 450.726,335.576 449,334.5C 436.423,342.052 422.923,346.552 408.5,348C 407.667,348.833 406.833,349.667 406,350.5C 404.235,348.922 402.735,347.255 401.5,345.5C 401.5,342.833 401.5,340.167 401.5,337.5C 403,339.179 404.833,340.512 407,341.5C 409.819,339.331 412.986,337.831 416.5,337C 427.295,335.319 436.795,331.486 445,325.5C 447.184,324.892 449.184,325.559 451,327.5C 451.383,326.944 451.883,326.611 452.5,326.5 Z"/></g>
<g><path style="opacity:1" fill="#0fa099" d="M 612.5,326.5 C 613.401,327.29 614.068,328.29 614.5,329.5C 613.778,329.918 613.278,330.584 613,331.5C 612.261,330.426 611.261,329.759 610,329.5C 605.159,331.149 600.159,332.149 595,332.5C 591.103,334.356 587.103,336.023 583,337.5C 579.536,334.887 576.036,334.887 572.5,337.5C 567.87,335.476 563.203,335.643 558.5,338C 555.287,338.703 552.121,338.536 549,337.5C 545.783,338.985 542.616,340.318 539.5,341.5C 539.5,341.833 539.5,342.167 539.5,342.5C 538.849,341.909 538.182,341.243 537.5,340.5C 534.256,341.07 530.922,341.07 527.5,340.5C 519.477,342.057 511.81,343.057 504.5,343.5C 504.002,340.319 504.835,337.653 507,335.5C 510.654,335.621 514.32,335.955 518,336.5C 526.042,335.872 534.042,334.872 542,333.5C 543.587,334.727 544.921,334.394 546,332.5C 551.382,333.619 557.215,332.952 563.5,330.5C 564.086,330.709 564.586,331.043 565,331.5C 576.402,329.585 587.902,327.752 599.5,326C 603.516,322.264 606.516,322.764 608.5,327.5C 609.959,327.567 611.292,327.234 612.5,326.5 Z"/></g>
<g><path style="opacity:1" fill="#139b9e" d="M 614.5,329.5 C 616.358,331.883 617.692,334.55 618.5,337.5C 616.467,337.513 614.3,336.846 612,335.5C 608.326,336.587 604.826,338.087 601.5,340C 597.072,340.587 592.739,341.587 588.5,343C 586.456,343.498 585.122,344.665 584.5,346.5C 581.569,344.203 578.236,342.703 574.5,342C 563.172,341.5 551.838,341.333 540.5,341.5C 540.167,341.5 539.833,341.5 539.5,341.5C 542.616,340.318 545.783,338.985 549,337.5C 552.121,338.536 555.287,338.703 558.5,338C 563.203,335.643 567.87,335.476 572.5,337.5C 576.036,334.887 579.536,334.887 583,337.5C 587.103,336.023 591.103,334.356 595,332.5C 600.159,332.149 605.159,331.149 610,329.5C 611.261,329.759 612.261,330.426 613,331.5C 613.278,330.584 613.778,329.918 614.5,329.5 Z"/></g>
<g><path style="opacity:1" fill="#fbfcfd" d="M 540.5,341.5 C 551.838,341.333 563.172,341.5 574.5,342C 578.236,342.703 581.569,344.203 584.5,346.5C 586.667,348.83 588.334,351.497 589.5,354.5C 589.5,357.167 589.5,359.833 589.5,362.5C 586.744,368.923 582.078,373.257 575.5,375.5C 570.747,376.667 566.081,377.667 561.5,378.5C 558.455,378.508 555.455,378.841 552.5,379.5C 552.5,380.833 552.5,382.167 552.5,383.5C 552.5,392.5 552.5,401.5 552.5,410.5C 562.224,410.141 571.891,410.641 581.5,412C 588.425,413.437 593.425,417.27 596.5,423.5C 598.16,430.518 596.827,436.851 592.5,442.5C 588.75,445.645 584.417,447.645 579.5,448.5C 566.5,448.5 553.5,448.5 540.5,448.5C 540.5,412.833 540.5,377.167 540.5,341.5 Z"/></g>
<g><path style="opacity:1" fill="#15a595" d="M 458.5,334.5 C 460.156,336.46 461.823,338.46 463.5,340.5C 460.276,342.501 456.943,344.501 453.5,346.5C 449.708,345.016 446.042,345.516 442.5,348C 433.513,349.601 424.513,351.267 415.5,353C 410.543,354.034 405.876,353.534 401.5,351.5C 401.5,349.5 401.5,347.5 401.5,345.5C 402.735,347.255 404.235,348.922 406,350.5C 406.833,349.667 407.667,348.833 408.5,348C 422.923,346.552 436.423,342.052 449,334.5C 450.726,335.576 452.559,335.743 454.5,335C 453.346,334.086 453.513,333.253 455,332.5C 455.335,335.19 456.501,335.857 458.5,334.5 Z"/></g>
<g><path style="opacity:1" fill="#068f9e" d="M 618.5,337.5 C 620.277,340.505 621.277,343.838 621.5,347.5C 620.71,348.609 620.21,349.942 620,351.5C 619.333,350.167 618.333,349.167 617,348.5C 615.024,351.016 612.69,351.682 610,350.5C 604.57,351.584 599.237,352.918 594,354.5C 592.442,353.655 591.442,354.321 591,356.5C 590.722,355.584 590.222,354.918 589.5,354.5C 588.334,351.497 586.667,348.83 584.5,346.5C 585.122,344.665 586.456,343.498 588.5,343C 592.739,341.587 597.072,340.587 601.5,340C 604.826,338.087 608.326,336.587 612,335.5C 614.3,336.846 616.467,337.513 618.5,337.5 Z"/></g>
<g><path style="opacity:1" fill="#0d9f98" d="M 463.5,340.5 C 464.5,340.833 465.167,341.5 465.5,342.5C 459.172,347.335 452.172,351.169 444.5,354C 437.954,354.908 431.621,356.575 425.5,359C 419.523,359.831 413.523,360.331 407.5,360.5C 407.5,361.5 407.5,362.5 407.5,363.5C 404.612,363.78 403.112,362.447 403,359.5C 402.617,360.056 402.117,360.389 401.5,360.5C 401.5,357.5 401.5,354.5 401.5,351.5C 405.876,353.534 410.543,354.034 415.5,353C 424.513,351.267 433.513,349.601 442.5,348C 446.042,345.516 449.708,345.016 453.5,346.5C 456.943,344.501 460.276,342.501 463.5,340.5 Z"/></g>
<g><path style="opacity:1" fill="#11979f" d="M 539.5,342.5 C 539.5,344.5 539.5,346.5 539.5,348.5C 537.476,351.108 534.976,352.108 532,351.5C 523.339,354.367 514.673,356.034 506,356.5C 505.667,355.833 505.333,355.167 505,354.5C 504.501,358.486 504.334,362.486 504.5,366.5C 504.5,370.5 504.5,374.5 504.5,378.5C 504.5,381.833 504.5,385.167 504.5,388.5C 503.833,389.833 503.167,389.833 502.5,388.5C 503.496,373.676 503.829,358.676 503.5,343.5C 503.833,343.5 504.167,343.5 504.5,343.5C 511.81,343.057 519.477,342.057 527.5,340.5C 530.922,341.07 534.256,341.07 537.5,340.5C 538.182,341.243 538.849,341.909 539.5,342.5 Z"/></g>
<g><path style="opacity:1" fill="#05969a" d="M 465.5,342.5 C 470.217,347.882 474.55,353.549 478.5,359.5C 475.674,358.029 473.174,356.696 471,355.5C 470.781,356.938 470.281,358.271 469.5,359.5C 465.041,362.065 460.374,364.065 455.5,365.5C 454.103,363.394 452.27,361.727 450,360.5C 449.626,361.416 449.126,362.25 448.5,363C 445.376,363.479 442.543,364.646 440,366.5C 438.644,365.62 437.144,365.286 435.5,365.5C 435.498,369.349 433.665,372.015 430,373.5C 424.532,372.812 419.032,372.145 413.5,371.5C 412.304,371.846 412.304,372.346 413.5,373C 411.129,373.735 408.795,374.568 406.5,375.5C 405.252,374.96 404.085,374.293 403,373.5C 402.768,374.737 402.268,375.737 401.5,376.5C 401.5,371.167 401.5,365.833 401.5,360.5C 402.117,360.389 402.617,360.056 403,359.5C 403.112,362.447 404.612,363.78 407.5,363.5C 407.5,362.5 407.5,361.5 407.5,360.5C 413.523,360.331 419.523,359.831 425.5,359C 431.621,356.575 437.954,354.908 444.5,354C 452.172,351.169 459.172,347.335 465.5,342.5 Z"/></g>
<g><path style="opacity:1" fill="#01829d" d="M 621.5,347.5 C 622.833,353.833 622.833,360.167 621.5,366.5C 621.509,364.692 621.009,363.025 620,361.5C 612.854,361.285 605.687,361.952 598.5,363.5C 595.421,363.35 592.421,363.016 589.5,362.5C 589.5,359.833 589.5,357.167 589.5,354.5C 590.222,354.918 590.722,355.584 591,356.5C 591.442,354.321 592.442,353.655 594,354.5C 599.237,352.918 604.57,351.584 610,350.5C 612.69,351.682 615.024,351.016 617,348.5C 618.333,349.167 619.333,350.167 620,351.5C 620.21,349.942 620.71,348.609 621.5,347.5 Z"/></g>
<g><path style="opacity:1" fill="#00889c" d="M 539.5,348.5 C 539.5,353.167 539.5,357.833 539.5,362.5C 532.056,363.36 524.722,364.86 517.5,367C 512.811,367.579 508.478,367.412 504.5,366.5C 504.334,362.486 504.501,358.486 505,354.5C 505.333,355.167 505.667,355.833 506,356.5C 514.673,356.034 523.339,354.367 532,351.5C 534.976,352.108 537.476,351.108 539.5,348.5 Z"/></g>
<g><path style="opacity:1" fill="#1592a0" d="M 478.5,359.5 C 480.167,360.5 481.5,361.833 482.5,363.5C 471.993,367.169 461.326,370.335 450.5,373C 448.883,374.092 447.883,375.592 447.5,377.5C 443.878,374.278 440.712,370.612 438,366.5C 437.5,376.161 437.334,385.828 437.5,395.5C 436.527,393.052 436.194,390.385 436.5,387.5C 436.666,383.486 436.499,379.486 436,375.5C 430.655,378.576 424.988,379.242 419,377.5C 414.706,378.02 410.54,379.02 406.5,380.5C 405.186,379.687 404.019,378.687 403,377.5C 402.79,379.058 402.29,380.391 401.5,381.5C 401.5,379.833 401.5,378.167 401.5,376.5C 402.268,375.737 402.768,374.737 403,373.5C 404.085,374.293 405.252,374.96 406.5,375.5C 408.795,374.568 411.129,373.735 413.5,373C 412.304,372.346 412.304,371.846 413.5,371.5C 419.032,372.145 424.532,372.812 430,373.5C 433.665,372.015 435.498,369.349 435.5,365.5C 437.144,365.286 438.644,365.62 440,366.5C 442.543,364.646 445.376,363.479 448.5,363C 449.126,362.25 449.626,361.416 450,360.5C 452.27,361.727 454.103,363.394 455.5,365.5C 460.374,364.065 465.041,362.065 469.5,359.5C 470.281,358.271 470.781,356.938 471,355.5C 473.174,356.696 475.674,358.029 478.5,359.5 Z"/></g>
<g><path style="opacity:1" fill="#05769b" d="M 621.5,366.5 C 621.333,370.673 620,374.34 617.5,377.5C 617.082,376.778 616.416,376.278 615.5,376C 615.833,375.667 616.167,375.333 616.5,375C 614.351,374.421 612.185,373.921 610,373.5C 601.313,376.069 592.647,376.069 584,373.5C 581.361,374.994 578.528,375.661 575.5,375.5C 582.078,373.257 586.744,368.923 589.5,362.5C 592.421,363.016 595.421,363.35 598.5,363.5C 605.687,361.952 612.854,361.285 620,361.5C 621.009,363.025 621.509,364.692 621.5,366.5 Z"/></g>
<g><path style="opacity:1" fill="#007b9b" d="M 539.5,362.5 C 539.5,368.167 539.5,373.833 539.5,379.5C 538.21,378.942 537.377,377.942 537,376.5C 529.543,376.965 521.876,377.632 514,378.5C 511.576,378.47 509.243,378.137 507,377.5C 506.658,379.619 505.825,379.953 504.5,378.5C 504.5,374.5 504.5,370.5 504.5,366.5C 508.478,367.412 512.811,367.579 517.5,367C 524.722,364.86 532.056,363.36 539.5,362.5 Z"/></g>
<g><path style="opacity:1" fill="#03829d" d="M 482.5,363.5 C 486.167,368.167 489.833,372.833 493.5,377.5C 492.85,377.804 492.183,378.137 491.5,378.5C 489.456,376.645 487.289,375.978 485,376.5C 475.992,380.625 466.492,382.625 456.5,382.5C 456.634,384.292 456.301,385.958 455.5,387.5C 452.484,384.48 449.817,381.146 447.5,377.5C 447.883,375.592 448.883,374.092 450.5,373C 461.326,370.335 471.993,367.169 482.5,363.5 Z"/></g>
<g><path style="opacity:1" fill="#066d9a" d="M 617.5,377.5 C 615.623,383.27 612.29,387.937 607.5,391.5C 607.167,391.5 606.833,391.5 606.5,391.5C 606.5,390.833 606.167,390.5 605.5,390.5C 603.451,390.294 603.117,389.461 604.5,388C 601.377,388.209 598.543,387.043 596,384.5C 589.151,383.362 582.484,381.696 576,379.5C 573.766,380.705 572.099,380.039 571,377.5C 570.667,378.167 570.333,378.833 570,379.5C 567.281,378.556 564.448,378.223 561.5,378.5C 566.081,377.667 570.747,376.667 575.5,375.5C 578.528,375.661 581.361,374.994 584,373.5C 592.647,376.069 601.313,376.069 610,373.5C 612.185,373.921 614.351,374.421 616.5,375C 616.167,375.333 615.833,375.667 615.5,376C 616.416,376.278 617.082,376.778 617.5,377.5 Z"/></g>
<g><path style="opacity:1" fill="#02679a" d="M 605.5,390.5 C 603.054,393.231 600.054,395.231 596.5,396.5C 591.59,392.866 585.923,391.032 579.5,391C 572.45,390.203 565.45,390.37 558.5,391.5C 555.965,389.199 553.965,386.533 552.5,383.5C 552.5,382.167 552.5,380.833 552.5,379.5C 555.455,378.841 558.455,378.508 561.5,378.5C 564.448,378.223 567.281,378.556 570,379.5C 570.333,378.833 570.667,378.167 571,377.5C 572.099,380.039 573.766,380.705 576,379.5C 582.484,381.696 589.151,383.362 596,384.5C 598.543,387.043 601.377,388.209 604.5,388C 603.117,389.461 603.451,390.294 605.5,390.5 Z"/></g>
<g><path style="opacity:1" fill="#00819d" d="M 436.5,387.5 C 435.732,388.263 435.232,389.263 435,390.5C 434.439,389.978 433.772,389.645 433,389.5C 428.02,391.733 422.854,392.067 417.5,390.5C 413.833,391.167 410.167,391.833 406.5,392.5C 405.186,391.687 404.019,390.687 403,389.5C 402.802,391.382 402.302,393.048 401.5,394.5C 401.5,390.167 401.5,385.833 401.5,381.5C 402.29,380.391 402.79,379.058 403,377.5C 404.019,378.687 405.186,379.687 406.5,380.5C 410.54,379.02 414.706,378.02 419,377.5C 424.988,379.242 430.655,378.576 436,375.5C 436.499,379.486 436.666,383.486 436.5,387.5 Z"/></g>
<g><path style="opacity:1" fill="#006f9b" d="M 539.5,379.5 C 539.5,383.167 539.5,386.833 539.5,390.5C 528.495,390.256 517.162,390.589 505.5,391.5C 505.737,390.209 505.404,389.209 504.5,388.5C 504.5,385.167 504.5,381.833 504.5,378.5C 505.825,379.953 506.658,379.619 507,377.5C 509.243,378.137 511.576,378.47 514,378.5C 521.876,377.632 529.543,376.965 537,376.5C 537.377,377.942 538.21,378.942 539.5,379.5 Z"/></g>
<g><path style="opacity:1" fill="#03759d" d="M 493.5,377.5 C 495.471,379.808 497.471,382.142 499.5,384.5C 488.853,388.913 477.853,392.246 466.5,394.5C 465.914,394.291 465.414,393.957 465,393.5C 465.771,395.18 465.605,396.847 464.5,398.5C 461.152,395.149 458.152,391.482 455.5,387.5C 456.301,385.958 456.634,384.292 456.5,382.5C 466.492,382.625 475.992,380.625 485,376.5C 487.289,375.978 489.456,376.645 491.5,378.5C 492.183,378.137 492.85,377.804 493.5,377.5 Z"/></g>
<g><path style="opacity:1" fill="#01689a" d="M 499.5,384.5 C 500.5,385.833 501.5,387.167 502.5,388.5C 503.167,389.833 503.833,389.833 504.5,388.5C 505.404,389.209 505.737,390.209 505.5,391.5C 517.162,390.589 528.495,390.256 539.5,390.5C 539.5,395.833 539.5,401.167 539.5,406.5C 538.683,404.031 538.183,401.365 538,398.5C 532.585,398.64 526.751,398.807 520.5,399C 519.391,399.638 518.225,400.138 517,400.5C 512.747,400.003 508.247,399.669 503.5,399.5C 499.014,399.44 495.014,400.773 491.5,403.5C 490.914,403.291 490.414,402.957 490,402.5C 484.637,403.631 479.471,405.297 474.5,407.5C 475.791,408.527 475.791,409.527 474.5,410.5C 470.82,406.817 467.486,402.817 464.5,398.5C 465.605,396.847 465.771,395.18 465,393.5C 465.414,393.957 465.914,394.291 466.5,394.5C 477.853,392.246 488.853,388.913 499.5,384.5 Z"/></g>
<g><path style="opacity:1" fill="#1a779f" d="M 436.5,387.5 C 436.194,390.385 436.527,393.052 437.5,395.5C 437.831,425.338 437.498,455.005 436.5,484.5C 436.5,469.167 436.5,453.833 436.5,438.5C 436.5,433.167 436.5,427.833 436.5,422.5C 436.5,418.833 436.5,415.167 436.5,411.5C 436.666,407.154 436.499,402.821 436,398.5C 433.048,400.166 430.048,401.833 427,403.5C 426.667,403.167 426.333,402.833 426,402.5C 419.531,403.185 413.031,403.851 406.5,404.5C 404.364,403.528 403.197,401.861 403,399.5C 402.802,401.382 402.302,403.048 401.5,404.5C 401.5,401.167 401.5,397.833 401.5,394.5C 402.302,393.048 402.802,391.382 403,389.5C 404.019,390.687 405.186,391.687 406.5,392.5C 410.167,391.833 413.833,391.167 417.5,390.5C 422.854,392.067 428.02,391.733 433,389.5C 433.772,389.645 434.439,389.978 435,390.5C 435.232,389.263 435.732,388.263 436.5,387.5 Z"/></g>
<g><path style="opacity:1" fill="#035a96" d="M 552.5,383.5 C 553.965,386.533 555.965,389.199 558.5,391.5C 565.45,390.37 572.45,390.203 579.5,391C 585.923,391.032 591.59,392.866 596.5,396.5C 593.188,396.265 592.355,397.265 594,399.5C 598.979,397.937 603.146,395.271 606.5,391.5C 606.833,391.5 607.167,391.5 607.5,391.5C 617.294,397.292 624.627,405.292 629.5,415.5C 627.408,415.439 625.908,414.439 625,412.5C 624.061,416.386 621.561,418.553 617.5,419C 610.591,420.873 603.758,420.706 597,418.5C 596.506,420.134 596.34,421.801 596.5,423.5C 593.425,417.27 588.425,413.437 581.5,412C 571.891,410.641 562.224,410.141 552.5,410.5C 552.5,401.5 552.5,392.5 552.5,383.5 Z"/></g>
<g><path style="opacity:1" fill="#081823" d="M 605.5,390.5 C 606.167,390.5 606.5,390.833 606.5,391.5C 603.146,395.271 598.979,397.937 594,399.5C 592.355,397.265 593.188,396.265 596.5,396.5C 600.054,395.231 603.054,393.231 605.5,390.5 Z"/></g>
<g><path style="opacity:1" fill="#01609a" d="M 539.5,406.5 C 539.5,408.833 539.5,411.167 539.5,413.5C 538.717,411.657 538.05,409.657 537.5,407.5C 534.84,407.18 532.173,406.846 529.5,406.5C 524.429,408.019 519.263,409.019 514,409.5C 506.568,407.94 499.068,408.607 491.5,411.5C 489.665,410.808 487.832,411.142 486,412.5C 484.038,412.031 482.205,412.697 480.5,414.5C 481.791,415.527 481.791,416.527 480.5,417.5C 478.273,415.393 476.273,413.06 474.5,410.5C 475.791,409.527 475.791,408.527 474.5,407.5C 479.471,405.297 484.637,403.631 490,402.5C 490.414,402.957 490.914,403.291 491.5,403.5C 495.014,400.773 499.014,399.44 503.5,399.5C 508.247,399.669 512.747,400.003 517,400.5C 518.225,400.138 519.391,399.638 520.5,399C 526.751,398.807 532.585,398.64 538,398.5C 538.183,401.365 538.683,404.031 539.5,406.5 Z"/></g>
<g><path style="opacity:1" fill="#005a99" d="M 539.5,413.5 C 539.5,415.167 539.5,416.833 539.5,418.5C 538.859,416.958 537.859,415.624 536.5,414.5C 521.399,419.28 506.066,420.28 490.5,417.5C 488.133,417.842 485.8,418.342 483.5,419C 484.328,419.915 485.328,420.581 486.5,421C 485.584,421.278 484.918,421.778 484.5,422.5C 482.937,421.055 481.604,419.389 480.5,417.5C 481.791,416.527 481.791,415.527 480.5,414.5C 482.205,412.697 484.038,412.031 486,412.5C 487.832,411.142 489.665,410.808 491.5,411.5C 499.068,408.607 506.568,407.94 514,409.5C 519.263,409.019 524.429,408.019 529.5,406.5C 532.173,406.846 534.84,407.18 537.5,407.5C 538.05,409.657 538.717,411.657 539.5,413.5 Z"/></g>
<g><path style="opacity:1" fill="#00699b" d="M 436.5,411.5 C 435.71,412.609 435.21,413.942 435,415.5C 434.667,414.833 434.333,414.167 434,413.5C 430.903,415.61 427.57,417.277 424,418.5C 422.333,417.833 420.667,417.167 419,416.5C 417.039,416.975 414.873,416.975 412.5,416.5C 410.285,416.67 408.285,417.337 406.5,418.5C 404.568,417.855 403.401,416.521 403,414.5C 402.824,418.688 402.324,422.688 401.5,426.5C 401.5,419.167 401.5,411.833 401.5,404.5C 402.302,403.048 402.802,401.382 403,399.5C 403.197,401.861 404.364,403.528 406.5,404.5C 413.031,403.851 419.531,403.185 426,402.5C 426.333,402.833 426.667,403.167 427,403.5C 430.048,401.833 433.048,400.166 436,398.5C 436.499,402.821 436.666,407.154 436.5,411.5 Z"/></g>
<g><path style="opacity:1" fill="#005497" d="M 539.5,418.5 C 539.5,420.5 539.5,422.5 539.5,424.5C 538.698,425.952 538.198,427.618 538,429.5C 537.71,427.956 537.044,426.623 536,425.5C 530.725,427.555 525.225,428.722 519.5,429C 520.696,429.654 520.696,430.154 519.5,430.5C 517.941,429.926 516.441,429.26 515,428.5C 514.667,429.167 514.333,429.833 514,430.5C 511.667,429.833 509.333,429.167 507,428.5C 501.704,429.141 496.204,428.141 490.5,425.5C 490.483,426.394 490.149,427.394 489.5,428.5C 487.367,426.909 485.701,424.909 484.5,422.5C 484.918,421.778 485.584,421.278 486.5,421C 485.328,420.581 484.328,419.915 483.5,419C 485.8,418.342 488.133,417.842 490.5,417.5C 506.066,420.28 521.399,419.28 536.5,414.5C 537.859,415.624 538.859,416.958 539.5,418.5 Z"/></g>
<g><path style="opacity:1" fill="#005c99" d="M 436.5,411.5 C 436.5,415.167 436.5,418.833 436.5,422.5C 435.698,423.952 435.198,425.618 435,427.5C 434.667,427.167 434.333,426.833 434,426.5C 431.708,429.118 428.874,430.951 425.5,432C 419.118,431.89 412.785,432.057 406.5,432.5C 404.362,431.571 403.196,429.904 403,427.5C 402.501,432.823 402.334,438.156 402.5,443.5C 402.768,445.099 402.434,446.432 401.5,447.5C 401.5,440.5 401.5,433.5 401.5,426.5C 402.324,422.688 402.824,418.688 403,414.5C 403.401,416.521 404.568,417.855 406.5,418.5C 408.285,417.337 410.285,416.67 412.5,416.5C 414.873,416.975 417.039,416.975 419,416.5C 420.667,417.167 422.333,417.833 424,418.5C 427.57,417.277 430.903,415.61 434,413.5C 434.333,414.167 434.667,414.833 435,415.5C 435.21,413.942 435.71,412.609 436.5,411.5 Z"/></g>
<g><path style="opacity:1" fill="#045193" d="M 452.5,405.5 C 459.833,414.5 467.167,423.5 474.5,432.5C 473.624,434.922 472.124,435.588 470,434.5C 467,435.833 464,437.167 461,438.5C 460.228,438.355 459.561,438.022 459,437.5C 456.272,438.447 453.772,439.78 451.5,441.5C 451.172,429.322 451.505,417.322 452.5,405.5 Z"/></g>
<g><path style="opacity:1" fill="#034c91" d="M 539.5,424.5 C 539.5,432.5 539.5,440.5 539.5,448.5C 538.25,448.577 537.417,449.244 537,450.5C 529.094,447.31 521.26,447.31 513.5,450.5C 512.678,452.139 512.011,453.805 511.5,455.5C 503.459,447.09 496.126,438.09 489.5,428.5C 490.149,427.394 490.483,426.394 490.5,425.5C 496.204,428.141 501.704,429.141 507,428.5C 509.333,429.167 511.667,429.833 514,430.5C 514.333,429.833 514.667,429.167 515,428.5C 516.441,429.26 517.941,429.926 519.5,430.5C 520.696,430.154 520.696,429.654 519.5,429C 525.225,428.722 530.725,427.555 536,425.5C 537.044,426.623 537.71,427.956 538,429.5C 538.198,427.618 538.698,425.952 539.5,424.5 Z"/></g>
<g><path style="opacity:1" fill="#054b8e" d="M 629.5,415.5 C 632.342,420.689 633.675,426.356 633.5,432.5C 632.175,433.953 631.342,433.619 631,431.5C 628.586,433.291 626.086,434.957 623.5,436.5C 614.736,433.256 606.403,434.423 598.5,440C 599.308,440.308 599.975,440.808 600.5,441.5C 598.758,447.987 597.591,447.654 597,440.5C 595.89,442.037 594.39,442.703 592.5,442.5C 596.827,436.851 598.16,430.518 596.5,423.5C 596.34,421.801 596.506,420.134 597,418.5C 603.758,420.706 610.591,420.873 617.5,419C 621.561,418.553 624.061,416.386 625,412.5C 625.908,414.439 627.408,415.439 629.5,415.5 Z"/></g>
<g><path style="opacity:1" fill="#004f93" d="M 436.5,422.5 C 436.5,427.833 436.5,433.167 436.5,438.5C 436.746,446.354 432.413,451.687 423.5,454.5C 422.167,453.167 420.833,453.167 419.5,454.5C 418.522,454.023 417.689,453.357 417,452.5C 414.154,452.918 411.32,452.252 408.5,450.5C 407.833,450.833 407.167,451.167 406.5,451.5C 404.321,449.16 402.987,446.493 402.5,443.5C 402.334,438.156 402.501,432.823 403,427.5C 403.196,429.904 404.362,431.571 406.5,432.5C 412.785,432.057 419.118,431.89 425.5,432C 428.874,430.951 431.708,429.118 434,426.5C 434.333,426.833 434.667,427.167 435,427.5C 435.198,425.618 435.698,423.952 436.5,422.5 Z"/></g>
<g><path style="opacity:1" fill="#0c4287" d="M 633.5,432.5 C 633.428,456.454 622.095,472.621 599.5,481C 596.471,481.539 593.471,482.206 590.5,483C 571.868,484.571 553.201,484.904 534.5,484C 526.217,474.896 518.551,465.396 511.5,455.5C 512.011,453.805 512.678,452.139 513.5,450.5C 521.26,447.31 529.094,447.31 537,450.5C 537.417,449.244 538.25,448.577 539.5,448.5C 552.833,449.833 566.167,449.833 579.5,448.5C 584.417,447.645 588.75,445.645 592.5,442.5C 594.39,442.703 595.89,442.037 597,440.5C 597.591,447.654 598.758,447.987 600.5,441.5C 599.975,440.808 599.308,440.308 598.5,440C 606.403,434.423 614.736,433.256 623.5,436.5C 626.086,434.957 628.586,433.291 631,431.5C 631.342,433.619 632.175,433.953 633.5,432.5 Z"/></g>
<g><path style="opacity:1" fill="#c2d5e3" d="M 539.5,341.5 C 539.833,341.5 540.167,341.5 540.5,341.5C 540.5,377.167 540.5,412.833 540.5,448.5C 553.5,448.5 566.5,448.5 579.5,448.5C 566.167,449.833 552.833,449.833 539.5,448.5C 539.5,440.5 539.5,432.5 539.5,424.5C 539.5,422.5 539.5,420.5 539.5,418.5C 539.5,416.833 539.5,415.167 539.5,413.5C 539.5,411.167 539.5,408.833 539.5,406.5C 539.5,401.167 539.5,395.833 539.5,390.5C 539.5,386.833 539.5,383.167 539.5,379.5C 539.5,373.833 539.5,368.167 539.5,362.5C 539.5,357.833 539.5,353.167 539.5,348.5C 539.5,346.5 539.5,344.5 539.5,342.5C 539.5,342.167 539.5,341.833 539.5,341.5 Z"/></g>
<g><path style="opacity:1" fill="#094388" d="M 474.5,432.5 C 488.213,448.878 501.547,465.545 514.5,482.5C 493.673,483.497 472.673,483.831 451.5,483.5C 451.5,469.5 451.5,455.5 451.5,441.5C 453.772,439.78 456.272,438.447 459,437.5C 459.561,438.022 460.228,438.355 461,438.5C 464,437.167 467,435.833 470,434.5C 472.124,435.588 473.624,434.922 474.5,432.5 Z"/></g>
<g><path style="opacity:1" fill="#084288" d="M 436.5,438.5 C 436.5,453.833 436.5,469.167 436.5,484.5C 424.833,484.5 413.167,484.5 401.5,484.5C 401.5,472.167 401.5,459.833 401.5,447.5C 402.434,446.432 402.768,445.099 402.5,443.5C 402.987,446.493 404.321,449.16 406.5,451.5C 407.167,451.167 407.833,450.833 408.5,450.5C 411.32,452.252 414.154,452.918 417,452.5C 417.689,453.357 418.522,454.023 419.5,454.5C 420.833,453.167 422.167,453.167 423.5,454.5C 432.413,451.687 436.746,446.354 436.5,438.5 Z"/></g>
<g><path style="opacity:1" fill="#bfcfdf" d="M 452.5,405.5 C 451.505,417.322 451.172,429.322 451.5,441.5C 451.5,455.5 451.5,469.5 451.5,483.5C 451.5,483.833 451.5,484.167 451.5,484.5C 450.171,457.997 450.171,431.33 451.5,404.5C 452.107,404.624 452.44,404.957 452.5,405.5 Z"/></g>
<g><path style="opacity:1" fill="#215290" d="M 514.5,482.5 C 515.167,482.5 515.5,482.833 515.5,483.5C 494.34,484.497 473.007,484.831 451.5,484.5C 451.5,484.167 451.5,483.833 451.5,483.5C 472.673,483.831 493.673,483.497 514.5,482.5 Z"/></g>
<g><path style="opacity:1" fill="#e3e7ef" d="M 515.5,483.5 C 516.043,483.56 516.376,483.893 516.5,484.5C 494.67,485.828 473.004,485.828 451.5,484.5C 473.007,484.831 494.34,484.497 515.5,483.5 Z"/></g>
<g><path style="opacity:1" fill="#18959e" d="M 375.5,544.5 C 374.677,541.023 374.177,537.356 374,533.5C 370.046,534.106 365.879,534.772 361.5,535.5C 360.276,535.879 359.943,538.546 360.5,543.5C 360.737,544.791 360.404,545.791 359.5,546.5C 359.212,539.437 359.712,532.437 361,525.5C 363.743,520.419 367.91,517.253 373.5,516C 381.535,515.264 389.535,515.431 397.5,516.5C 397.5,520.167 397.5,523.833 397.5,527.5C 390.76,526.037 384.094,526.203 377.5,528C 376.874,528.75 376.374,529.584 376,530.5C 375.501,535.155 375.334,539.821 375.5,544.5 Z"/></g>
<g><path style="opacity:1" fill="#0a6899" d="M 609.5,520.5 C 627.694,521.666 635.361,531 632.5,548.5C 632.666,544.486 632.499,540.486 632,536.5C 631.086,540.185 630.419,539.852 630,535.5C 629.667,536.167 629.333,536.833 629,537.5C 624.153,538.674 619.987,538.674 616.5,537.5C 613.402,533.951 609.402,531.951 604.5,531.5C 595.342,530.67 586.009,530.17 576.5,530C 580.83,527.868 585.497,526.868 590.5,527C 592.949,526.275 595.283,525.275 597.5,524C 597.167,523.667 596.833,523.333 596.5,523C 597.833,522.667 599.167,522.333 600.5,522C 598.167,521.667 595.833,521.333 593.5,521C 598.823,520.501 604.156,520.334 609.5,520.5 Z"/></g>
<g><path style="opacity:1" fill="#116597" d="M 650.5,518.5 C 655.099,518.2 659.599,518.533 664,519.5C 664.499,524.489 664.666,529.489 664.5,534.5C 659.833,534.5 655.167,534.5 650.5,534.5C 650.5,529.167 650.5,523.833 650.5,518.5 Z"/></g>
<g><path style="opacity:1" fill="#23a0a4" d="M 292.5,519.5 C 297.833,519.5 303.167,519.5 308.5,519.5C 308.5,530.5 308.5,541.5 308.5,552.5C 308.167,552.5 307.833,552.5 307.5,552.5C 307.5,551.833 307.5,551.167 307.5,550.5C 307.5,545.167 307.5,539.833 307.5,534.5C 307.666,529.821 307.499,525.155 307,520.5C 305.788,525.878 302.622,527.545 297.5,525.5C 295.15,526.577 293.483,528.244 292.5,530.5C 292.5,526.833 292.5,523.167 292.5,519.5 Z"/></g>
<g><path style="opacity:1" fill="#1c7da2" d="M 609.5,520.5 C 604.156,520.334 598.823,520.501 593.5,521C 595.833,521.333 598.167,521.667 600.5,522C 599.167,522.333 597.833,522.667 596.5,523C 596.833,523.333 597.167,523.667 597.5,524C 595.283,525.275 592.949,526.275 590.5,527C 585.497,526.868 580.83,527.868 576.5,530C 586.009,530.17 595.342,530.67 604.5,531.5C 592.5,531.5 580.5,531.5 568.5,531.5C 568.5,540.5 568.5,549.5 568.5,558.5C 567.662,558.158 567.328,557.492 567.5,556.5C 567.666,548.16 567.5,539.827 567,531.5C 566.667,532.167 566.333,532.833 566,533.5C 562.333,532.833 558.667,532.167 555,531.5C 554.667,531.833 554.333,532.167 554,532.5C 553.802,530.618 553.302,528.952 552.5,527.5C 552.5,525.167 552.5,522.833 552.5,520.5C 571.5,519.167 590.5,519.167 609.5,520.5 Z"/></g>
<g><path style="opacity:1" fill="#139c9d" d="M 243.5,529.5 C 238.05,532.124 232.217,532.124 226,529.5C 224.715,529.95 223.548,530.617 222.5,531.5C 220.801,530.185 219.135,530.185 217.5,531.5C 217.5,527.5 217.5,523.5 217.5,519.5C 223.842,519.334 230.175,519.5 236.5,520C 239.051,523.044 241.384,526.211 243.5,529.5 Z"/></g>
<g><path style="opacity:1" fill="#1698a4" d="M 324.5,518.5 C 329.167,518.5 333.833,518.5 338.5,518.5C 338.5,523.833 338.5,529.167 338.5,534.5C 333.57,534.803 328.737,534.469 324,533.5C 323.337,528.463 323.504,523.463 324.5,518.5 Z"/></g>
<g><path style="opacity:1" fill="#3fa0b5" d="M 429.5,546.5 C 428.532,544.393 428.198,542.059 428.5,539.5C 428.5,535.833 428.5,532.167 428.5,528.5C 423.833,528.5 419.167,528.5 414.5,528.5C 414.5,531.833 414.5,535.167 414.5,538.5C 414.806,541.385 414.473,544.052 413.5,546.5C 413.5,540.167 413.5,533.833 413.5,527.5C 418.833,527.5 424.167,527.5 429.5,527.5C 429.5,533.833 429.5,540.167 429.5,546.5 Z"/></g>
<g><path style="opacity:1" fill="#017f9d" d="M 428.5,539.5 C 427.732,540.263 427.232,541.263 427,542.5C 426.51,541.207 426.343,539.873 426.5,538.5C 423.164,538.533 419.997,537.866 417,536.5C 416.583,537.756 415.75,538.423 414.5,538.5C 414.5,535.167 414.5,531.833 414.5,528.5C 419.167,528.5 423.833,528.5 428.5,528.5C 428.5,532.167 428.5,535.833 428.5,539.5 Z"/></g>
<g><path style="opacity:1" fill="#12929d" d="M 243.5,529.5 C 247.922,533.587 251.589,538.254 254.5,543.5C 252.339,543.174 250.506,542.174 249,540.5C 247.984,541.634 247.317,541.301 247,539.5C 244.859,540.075 242.359,540.408 239.5,540.5C 239.5,542.5 239.5,544.5 239.5,546.5C 237.686,544.236 235.853,541.903 234,539.5C 233.5,555.497 233.333,571.497 233.5,587.5C 233.167,587.5 232.833,587.5 232.5,587.5C 232.5,584.167 232.5,580.833 232.5,577.5C 232.5,574.833 232.5,572.167 232.5,569.5C 232.5,565.5 232.5,561.5 232.5,557.5C 232.76,552.632 231.926,547.965 230,543.5C 227.568,543.477 225.068,543.81 222.5,544.5C 220.889,543.68 220.222,542.346 220.5,540.5C 219.5,540.5 218.5,540.5 217.5,540.5C 217.5,537.5 217.5,534.5 217.5,531.5C 219.135,530.185 220.801,530.185 222.5,531.5C 223.548,530.617 224.715,529.95 226,529.5C 232.217,532.124 238.05,532.124 243.5,529.5 Z"/></g>
<g><path style="opacity:1" fill="#008e9c" d="M 307.5,534.5 C 306.732,535.263 306.232,536.263 306,537.5C 301.348,536.505 296.848,536.505 292.5,537.5C 292.5,535.167 292.5,532.833 292.5,530.5C 293.483,528.244 295.15,526.577 297.5,525.5C 302.622,527.545 305.788,525.878 307,520.5C 307.499,525.155 307.666,529.821 307.5,534.5 Z"/></g>
<g><path style="opacity:1" fill="#066197" d="M 701.5,546.5 C 699.371,546.484 697.538,547.151 696,548.5C 693.667,547.5 691.333,546.5 689,545.5C 688.5,546 688,546.5 687.5,547C 683.179,547.499 678.846,547.666 674.5,547.5C 678.298,546.517 682.298,546.183 686.5,546.5C 686.5,540.167 686.5,533.833 686.5,527.5C 691.5,527.5 696.5,527.5 701.5,527.5C 701.5,533.833 701.5,540.167 701.5,546.5 Z"/></g>
<g><path style="opacity:1" fill="#fafcfc" d="M 604.5,531.5 C 609.402,531.951 613.402,533.951 616.5,537.5C 617.762,542.152 617.762,546.819 616.5,551.5C 614.766,554.2 612.432,556.2 609.5,557.5C 595.87,558.446 582.203,558.78 568.5,558.5C 568.5,549.5 568.5,540.5 568.5,531.5C 580.5,531.5 592.5,531.5 604.5,531.5 Z"/></g>
<g><path style="opacity:1" fill="#007a96" d="M 375.5,544.5 C 375.5,545.167 375.5,545.833 375.5,546.5C 372.437,545.632 369.104,545.632 365.5,546.5C 364.353,546.182 363.519,545.516 363,544.5C 362.667,545.167 362.333,545.833 362,546.5C 361.768,545.263 361.268,544.263 360.5,543.5C 359.943,538.546 360.276,535.879 361.5,535.5C 365.879,534.772 370.046,534.106 374,533.5C 374.177,537.356 374.677,541.023 375.5,544.5 Z"/></g>
<g><path style="opacity:1" fill="#00819c" d="M 307.5,534.5 C 307.5,539.833 307.5,545.167 307.5,550.5C 306.778,550.918 306.278,551.584 306,552.5C 305.667,551.833 305.333,551.167 305,550.5C 302.525,552.752 299.859,552.752 297,550.5C 296.667,550.833 296.333,551.167 296,551.5C 294.908,549.069 293.741,549.069 292.5,551.5C 292.5,546.833 292.5,542.167 292.5,537.5C 296.848,536.505 301.348,536.505 306,537.5C 306.232,536.263 306.732,535.263 307.5,534.5 Z"/></g>
<g><path style="opacity:1" fill="#017299" d="M 360.5,543.5 C 361.268,544.263 361.768,545.263 362,546.5C 362.333,545.833 362.667,545.167 363,544.5C 363.519,545.516 364.353,546.182 365.5,546.5C 369.104,545.632 372.437,545.632 375.5,546.5C 381.979,547.491 388.646,547.824 395.5,547.5C 395.5,550.5 395.5,553.5 395.5,556.5C 388.646,556.176 381.979,556.509 375.5,557.5C 375.5,561.167 375.5,564.833 375.5,568.5C 374.795,565.772 374.128,562.939 373.5,560C 369.44,559.85 365.607,560.017 362,560.5C 361.768,559.263 361.268,558.263 360.5,557.5C 360.167,557.5 359.833,557.5 359.5,557.5C 355.833,557.5 352.167,557.5 348.5,557.5C 348.5,554.167 348.5,550.833 348.5,547.5C 352.371,547.815 356.038,547.482 359.5,546.5C 360.404,545.791 360.737,544.791 360.5,543.5 Z"/></g>
<g><path style="opacity:1" fill="#006294" d="M 552.5,527.5 C 553.302,528.952 553.802,530.618 554,532.5C 554.333,532.167 554.667,531.833 555,531.5C 558.667,532.167 562.333,532.833 566,533.5C 566.333,532.833 566.667,532.167 567,531.5C 567.5,539.827 567.666,548.16 567.5,556.5C 566.883,556.611 566.383,556.944 566,557.5C 563.939,554.872 561.439,554.205 558.5,555.5C 556.866,555.032 555.7,554.032 555,552.5C 554.667,553.167 554.333,553.833 554,554.5C 553.768,553.263 553.268,552.263 552.5,551.5C 552.5,543.5 552.5,535.5 552.5,527.5 Z"/></g>
<g><path style="opacity:1" fill="#177ba1" d="M 428.5,539.5 C 428.198,542.059 428.532,544.393 429.5,546.5C 437.167,546.5 444.833,546.5 452.5,546.5C 452.5,550.167 452.5,553.833 452.5,557.5C 444.833,557.5 437.167,557.5 429.5,557.5C 436.648,556.508 443.981,556.175 451.5,556.5C 451.5,553.5 451.5,550.5 451.5,547.5C 444.825,547.334 438.158,547.5 431.5,548C 432.833,548.333 434.167,548.667 435.5,549C 427.897,552.46 420.564,552.126 413.5,548C 409.848,547.501 406.182,547.335 402.5,547.5C 402.5,550.5 402.5,553.5 402.5,556.5C 406.371,556.185 410.038,556.518 413.5,557.5C 409.5,557.5 405.5,557.5 401.5,557.5C 401.5,553.833 401.5,550.167 401.5,546.5C 405.5,546.5 409.5,546.5 413.5,546.5C 414.473,544.052 414.806,541.385 414.5,538.5C 415.75,538.423 416.583,537.756 417,536.5C 419.997,537.866 423.164,538.533 426.5,538.5C 426.343,539.873 426.51,541.207 427,542.5C 427.232,541.263 427.732,540.263 428.5,539.5 Z"/></g>
<g><path style="opacity:1" fill="#04578f" d="M 632.5,548.5 C 632.498,552.165 631.165,555.165 628.5,557.5C 628.196,556.85 627.863,556.183 627.5,555.5C 629.124,554.131 629.624,552.464 629,550.5C 625.929,551.803 623.096,553.47 620.5,555.5C 618.627,555.518 618.294,555.018 619.5,554C 618.309,553.302 617.309,552.469 616.5,551.5C 617.762,546.819 617.762,542.152 616.5,537.5C 619.987,538.674 624.153,538.674 629,537.5C 629.333,536.833 629.667,536.167 630,535.5C 630.419,539.852 631.086,540.185 632,536.5C 632.499,540.486 632.666,544.486 632.5,548.5 Z"/></g>
<g><path style="opacity:1" fill="#548fbb" d="M 774.5,545.5 C 767.151,545.549 759.817,545.882 752.5,546.5C 756.921,545.088 761.588,544.421 766.5,544.5C 769.355,544.503 772.022,544.836 774.5,545.5 Z"/></g>
<g><path style="opacity:1" fill="#03518f" d="M 701.5,546.5 C 708.648,547.492 715.981,547.825 723.5,547.5C 723.5,550.5 723.5,553.5 723.5,556.5C 715.981,556.175 708.648,556.508 701.5,557.5C 701.5,562.833 701.5,568.167 701.5,573.5C 700.549,574.919 700.216,576.585 700.5,578.5C 696.202,580.005 692.035,581.005 688,581.5C 687.501,587.491 687.334,593.491 687.5,599.5C 686.504,585.677 686.171,571.677 686.5,557.5C 682.5,557.5 678.5,557.5 674.5,557.5C 674.5,554.167 674.5,550.833 674.5,547.5C 678.846,547.666 683.179,547.499 687.5,547C 688,546.5 688.5,546 689,545.5C 691.333,546.5 693.667,547.5 696,548.5C 697.538,547.151 699.371,546.484 701.5,546.5 Z"/></g>
<g><path style="opacity:1" fill="#008299" d="M 217.5,540.5 C 218.5,540.5 219.5,540.5 220.5,540.5C 220.222,542.346 220.889,543.68 222.5,544.5C 225.068,543.81 227.568,543.477 230,543.5C 231.926,547.965 232.76,552.632 232.5,557.5C 231.883,557.611 231.383,557.944 231,558.5C 228.961,555.469 226.295,554.469 223,555.5C 221.662,552.918 219.829,552.251 217.5,553.5C 217.5,549.167 217.5,544.833 217.5,540.5 Z"/></g>
<g><path style="opacity:1" fill="#0a849c" d="M 254.5,543.5 C 257.55,545.549 259.883,548.216 261.5,551.5C 257.821,551.363 254.321,552.029 251,553.5C 248.693,552.61 247.527,553.61 247.5,556.5C 244.484,553.48 241.817,550.146 239.5,546.5C 239.5,544.5 239.5,542.5 239.5,540.5C 242.359,540.408 244.859,540.075 247,539.5C 247.317,541.301 247.984,541.634 249,540.5C 250.506,542.174 252.339,543.174 254.5,543.5 Z"/></g>
<g><path style="opacity:1" fill="#126d9a" d="M 429.5,557.5 C 429.5,569.5 429.5,581.5 429.5,593.5C 428.523,590.713 428.19,587.713 428.5,584.5C 428.665,580.818 428.499,577.152 428,573.5C 427.667,573.833 427.333,574.167 427,574.5C 424.845,572.833 422.345,571.833 419.5,571.5C 418.158,572.902 417.324,572.569 417,570.5C 416.667,571.833 416.333,573.167 416,574.5C 415.667,571.833 415.333,569.167 415,566.5C 414.501,572.491 414.334,578.491 414.5,584.5C 414.5,588.167 414.5,591.833 414.5,595.5C 413.505,583.011 413.171,570.344 413.5,557.5C 410.038,556.518 406.371,556.185 402.5,556.5C 402.5,553.5 402.5,550.5 402.5,547.5C 406.182,547.335 409.848,547.501 413.5,548C 420.564,552.126 427.897,552.46 435.5,549C 434.167,548.667 432.833,548.333 431.5,548C 438.158,547.5 444.825,547.334 451.5,547.5C 451.5,550.5 451.5,553.5 451.5,556.5C 443.981,556.175 436.648,556.508 429.5,557.5 Z"/></g>
<g><path style="opacity:1" fill="#0c6c9b" d="M 483.5,560.5 C 479.231,562.816 475.064,563.149 471,561.5C 469.961,562.244 469.461,563.244 469.5,564.5C 465.941,559.061 462.608,553.394 459.5,547.5C 465.167,546.167 470.833,546.167 476.5,547.5C 479.1,551.701 481.434,556.034 483.5,560.5 Z"/></g>
<g><path style="opacity:1" fill="#084d8b" d="M 628.5,557.5 C 628.047,558.458 627.381,559.292 626.5,560C 623.798,561.34 621.131,562.673 618.5,564C 633.844,567.008 640.011,576.175 637,591.5C 636.128,595.181 634.294,598.181 631.5,600.5C 630.933,598.97 630.267,597.47 629.5,596C 630.717,594.352 631.55,592.519 632,590.5C 633.487,589.845 634.653,588.845 635.5,587.5C 631.821,585.745 627.988,584.412 624,583.5C 622.989,584.056 622.156,584.722 621.5,585.5C 621.849,576.512 617.516,571.512 608.5,570.5C 595.34,569.669 582.006,569.169 568.5,569C 579.833,568.667 591.167,568.333 602.5,568C 598.833,567.667 595.167,567.333 591.5,567C 595.5,566.667 599.5,566.333 603.5,566C 603.041,564.057 604.041,562.724 606.5,562C 606.167,561.667 605.833,561.333 605.5,561C 607.246,560.529 608.913,559.862 610.5,559C 609.944,558.617 609.611,558.117 609.5,557.5C 612.432,556.2 614.766,554.2 616.5,551.5C 617.309,552.469 618.309,553.302 619.5,554C 618.294,555.018 618.627,555.518 620.5,555.5C 623.096,553.47 625.929,551.803 629,550.5C 629.624,552.464 629.124,554.131 627.5,555.5C 627.863,556.183 628.196,556.85 628.5,557.5 Z"/></g>
<g><path style="opacity:1" fill="#0c5f95" d="M 529.5,569.5 C 529.047,568.542 528.381,567.708 527.5,567C 529.628,565.257 530.461,563.091 530,560.5C 529.241,562.635 527.741,563.968 525.5,564.5C 522.979,563.215 520.313,562.548 517.5,562.5C 519.503,556.995 522.169,551.828 525.5,547C 530.864,546.171 536.198,546.337 541.5,547.5C 537.472,554.895 533.472,562.229 529.5,569.5 Z"/></g>
<g><path style="opacity:1" fill="#085494" d="M 774.5,545.5 C 781.588,546.355 788.588,547.689 795.5,549.5C 795.824,553.555 795.491,557.555 794.5,561.5C 782.727,555.993 770.393,554.16 757.5,556C 754.767,556.904 752.433,558.404 750.5,560.5C 748.678,558.766 746.345,557.766 743.5,557.5C 742.614,556.675 742.281,555.675 742.5,554.5C 741.167,554.5 739.833,554.5 738.5,554.5C 742.212,550.306 746.879,547.64 752.5,546.5C 759.817,545.882 767.151,545.549 774.5,545.5 Z"/></g>
<g><path style="opacity:1" fill="#cae6e9" d="M 292.5,519.5 C 292.5,523.167 292.5,526.833 292.5,530.5C 292.5,532.833 292.5,535.167 292.5,537.5C 292.5,542.167 292.5,546.833 292.5,551.5C 292.5,557.167 292.5,562.833 292.5,568.5C 292.825,575.687 292.491,582.687 291.5,589.5C 291.167,588.833 290.833,588.167 290.5,587.5C 291.167,564.833 291.833,542.167 292.5,519.5 Z"/></g>
<g><path style="opacity:1" fill="#09779c" d="M 261.5,551.5 C 265.394,555.608 269.061,559.941 272.5,564.5C 271.12,565.706 269.953,565.373 269,563.5C 268.667,563.833 268.333,564.167 268,564.5C 264.37,562.905 260.537,561.905 256.5,561.5C 254.962,561.453 253.962,562.12 253.5,563.5C 251.273,561.393 249.273,559.06 247.5,556.5C 247.527,553.61 248.693,552.61 251,553.5C 254.321,552.029 257.821,551.363 261.5,551.5 Z"/></g>
<g><path style="opacity:1" fill="#5cacc3" d="M 359.5,546.5 C 356.038,547.482 352.371,547.815 348.5,547.5C 348.5,550.833 348.5,554.167 348.5,557.5C 347.518,554.038 347.185,550.371 347.5,546.5C 351.5,546.5 355.5,546.5 359.5,546.5 Z"/></g>
<g><path style="opacity:1" fill="#00759c" d="M 307.5,550.5 C 307.5,551.167 307.5,551.833 307.5,552.5C 307.5,556.833 307.5,561.167 307.5,565.5C 305.932,565.641 304.265,565.974 302.5,566.5C 300.78,565.066 298.78,564.233 296.5,564C 295.283,562.352 294.45,560.519 294,558.5C 293.821,562.025 293.321,565.359 292.5,568.5C 292.5,562.833 292.5,557.167 292.5,551.5C 293.741,549.069 294.908,549.069 296,551.5C 296.333,551.167 296.667,550.833 297,550.5C 299.859,552.752 302.525,552.752 305,550.5C 305.333,551.167 305.667,551.833 306,552.5C 306.278,551.584 306.778,550.918 307.5,550.5 Z"/></g>
<g><path style="opacity:1" fill="#4097b3" d="M 375.5,546.5 C 382.5,546.5 389.5,546.5 396.5,546.5C 396.5,550.167 396.5,553.833 396.5,557.5C 389.5,557.5 382.5,557.5 375.5,557.5C 381.979,556.509 388.646,556.176 395.5,556.5C 395.5,553.5 395.5,550.5 395.5,547.5C 388.646,547.824 381.979,547.491 375.5,546.5 Z"/></g>
<g><path style="opacity:1" fill="#2e70a1" d="M 701.5,546.5 C 709.167,546.5 716.833,546.5 724.5,546.5C 724.5,550.167 724.5,553.833 724.5,557.5C 716.833,557.5 709.167,557.5 701.5,557.5C 708.648,556.508 715.981,556.175 723.5,556.5C 723.5,553.5 723.5,550.5 723.5,547.5C 715.981,547.825 708.648,547.492 701.5,546.5 Z"/></g>
<g><path style="opacity:1" fill="#007599" d="M 232.5,557.5 C 232.5,561.5 232.5,565.5 232.5,569.5C 231.438,567.518 230.105,565.685 228.5,564C 226.432,563.313 224.432,563.48 222.5,564.5C 221.5,563.833 220.5,563.167 219.5,562.5C 218.828,563.949 218.161,565.282 217.5,566.5C 217.5,562.167 217.5,557.833 217.5,553.5C 219.829,552.251 221.662,552.918 223,555.5C 226.295,554.469 228.961,555.469 231,558.5C 231.383,557.944 231.883,557.611 232.5,557.5 Z"/></g>
<g><path style="opacity:1" fill="#006091" d="M 360.5,557.5 C 361.268,558.263 361.768,559.263 362,560.5C 365.607,560.017 369.44,559.85 373.5,560C 374.128,562.939 374.795,565.772 375.5,568.5C 375.5,576.5 375.5,584.5 375.5,592.5C 374.517,588.702 374.183,584.702 374.5,580.5C 372.856,580.714 371.356,580.38 370,579.5C 368.636,580.696 367.136,581.696 365.5,582.5C 364.353,582.182 363.519,581.516 363,580.5C 362.667,581.5 362.333,582.5 362,583.5C 361.827,577.984 361.327,572.651 360.5,567.5C 360.5,564.167 360.5,560.833 360.5,557.5 Z"/></g>
<g><path style="opacity:1" fill="#175d97" d="M 552.5,551.5 C 553.268,552.263 553.768,553.263 554,554.5C 554.333,553.833 554.667,553.167 555,552.5C 555.7,554.032 556.866,555.032 558.5,555.5C 561.439,554.205 563.939,554.872 566,557.5C 566.383,556.944 566.883,556.611 567.5,556.5C 567.328,557.492 567.662,558.158 568.5,558.5C 582.203,558.78 595.87,558.446 609.5,557.5C 609.611,558.117 609.944,558.617 610.5,559C 608.913,559.862 607.246,560.529 605.5,561C 605.833,561.333 606.167,561.667 606.5,562C 604.041,562.724 603.041,564.057 603.5,566C 599.5,566.333 595.5,566.667 591.5,567C 595.167,567.333 598.833,567.667 602.5,568C 591.167,568.333 579.833,568.667 568.5,569C 582.006,569.169 595.34,569.669 608.5,570.5C 595.167,570.5 581.833,570.5 568.5,570.5C 568.5,579.5 568.5,588.5 568.5,597.5C 567.67,588.676 567.17,579.676 567,570.5C 566.667,571.833 566.333,573.167 566,574.5C 562.244,573.922 558.577,573.922 555,574.5C 554.667,575.167 554.333,575.833 554,576.5C 553.826,571.649 553.326,566.982 552.5,562.5C 552.5,558.833 552.5,555.167 552.5,551.5 Z"/></g>
<g><path style="opacity:1" fill="#094b8d" d="M 738.5,554.5 C 739.833,554.5 741.167,554.5 742.5,554.5C 742.281,555.675 742.614,556.675 743.5,557.5C 746.345,557.766 748.678,558.766 750.5,560.5C 750.267,565.448 752.601,568.615 757.5,570C 765.821,571.415 774.155,572.748 782.5,574C 785.718,574.9 788.718,576.067 791.5,577.5C 787.158,579.175 784.158,582.175 782.5,586.5C 771.597,583.928 760.597,581.761 749.5,580C 735.72,575.624 732.053,567.124 738.5,554.5 Z"/></g>
<g><path style="opacity:1" fill="#006896" d="M 232.5,569.5 C 232.5,572.167 232.5,574.833 232.5,577.5C 231.778,577.918 231.278,578.584 231,579.5C 229.067,575.212 226.233,574.546 222.5,577.5C 221.5,576.833 220.5,576.167 219.5,575.5C 218.832,578.306 218.166,580.972 217.5,583.5C 217.5,577.833 217.5,572.167 217.5,566.5C 218.161,565.282 218.828,563.949 219.5,562.5C 220.5,563.167 221.5,563.833 222.5,564.5C 224.432,563.48 226.432,563.313 228.5,564C 230.105,565.685 231.438,567.518 232.5,569.5 Z"/></g>
<g><path style="opacity:1" fill="#086b9b" d="M 272.5,564.5 C 274.555,566.555 276.221,568.888 277.5,571.5C 273.413,573.721 269.413,576.054 265.5,578.5C 261.271,573.722 257.271,568.722 253.5,563.5C 253.962,562.12 254.962,561.453 256.5,561.5C 260.537,561.905 264.37,562.905 268,564.5C 268.333,564.167 268.667,563.833 269,563.5C 269.953,565.373 271.12,565.706 272.5,564.5 Z"/></g>
<g><path style="opacity:1" fill="#02699a" d="M 307.5,565.5 C 307.5,568.833 307.5,572.167 307.5,575.5C 306.732,576.263 306.232,577.263 306,578.5C 305.667,578.167 305.333,577.833 305,577.5C 304.261,578.574 303.261,579.241 302,579.5C 299.272,579.236 296.939,578.236 295,576.5C 294.077,581.479 293.244,586.479 292.5,591.5C 291.702,591.043 291.369,590.376 291.5,589.5C 292.491,582.687 292.825,575.687 292.5,568.5C 293.321,565.359 293.821,562.025 294,558.5C 294.45,560.519 295.283,562.352 296.5,564C 298.78,564.233 300.78,565.066 302.5,566.5C 304.265,565.974 305.932,565.641 307.5,565.5 Z"/></g>
<g><path style="opacity:1" fill="#055892" d="M 483.5,560.5 C 486.767,566.035 489.767,571.702 492.5,577.5C 491.778,577.918 491.278,578.584 491,579.5C 488.177,579.08 485.344,578.747 482.5,578.5C 480.825,578.868 479.825,579.868 479.5,581.5C 475.929,576.033 472.596,570.367 469.5,564.5C 469.461,563.244 469.961,562.244 471,561.5C 475.064,563.149 479.231,562.816 483.5,560.5 Z"/></g>
<g><path style="opacity:1" fill="#08528f" d="M 529.5,569.5 C 526.991,575.192 523.991,580.526 520.5,585.5C 520.389,584.883 520.056,584.383 519.5,584C 516.47,583.712 513.636,583.545 511,583.5C 510.667,584.5 510.333,585.5 510,586.5C 508.549,586.736 507.049,586.736 505.5,586.5C 508.992,578.182 512.992,570.182 517.5,562.5C 520.313,562.548 522.979,563.215 525.5,564.5C 527.741,563.968 529.241,562.635 530,560.5C 530.461,563.091 529.628,565.257 527.5,567C 528.381,567.708 529.047,568.542 529.5,569.5 Z"/></g>
<g><path style="opacity:1" fill="#fcfcfd" d="M 608.5,570.5 C 617.516,571.512 621.849,576.512 621.5,585.5C 619.407,593.571 614.073,597.571 605.5,597.5C 593.167,597.5 580.833,597.5 568.5,597.5C 568.5,588.5 568.5,579.5 568.5,570.5C 581.833,570.5 595.167,570.5 608.5,570.5 Z"/></g>
<g><path style="opacity:1" fill="#055e95" d="M 277.5,571.5 C 282.302,576.427 286.635,581.76 290.5,587.5C 290.833,588.167 291.167,588.833 291.5,589.5C 290.12,590.706 288.953,590.373 288,588.5C 287.5,589 287,589.5 286.5,590C 283.805,590.254 281.305,590.421 279,590.5C 278.974,587.895 277.807,586.729 275.5,587C 277.49,588.84 277.49,590.007 275.5,590.5C 271.82,586.817 268.486,582.817 265.5,578.5C 269.413,576.054 273.413,573.721 277.5,571.5 Z"/></g>
<g><path style="opacity:1" fill="#005b93" d="M 428.5,584.5 C 424.665,584.541 420.832,584.541 417,584.5C 416.667,585.167 416.333,585.833 416,586.5C 415.722,585.584 415.222,584.918 414.5,584.5C 414.334,578.491 414.501,572.491 415,566.5C 415.333,569.167 415.667,571.833 416,574.5C 416.333,573.167 416.667,571.833 417,570.5C 417.324,572.569 418.158,572.902 419.5,571.5C 422.345,571.833 424.845,572.833 427,574.5C 427.333,574.167 427.667,573.833 428,573.5C 428.499,577.152 428.665,580.818 428.5,584.5 Z"/></g>
<g><path style="opacity:1" fill="#034889" d="M 552.5,562.5 C 553.326,566.982 553.826,571.649 554,576.5C 554.333,575.833 554.667,575.167 555,574.5C 558.577,573.922 562.244,573.922 566,574.5C 566.333,573.167 566.667,571.833 567,570.5C 567.17,579.676 567.67,588.676 568.5,597.5C 580.833,597.5 593.167,597.5 605.5,597.5C 593.34,598.331 581.007,598.831 568.5,599C 565.671,600.509 562.838,600.675 560,599.5C 558.428,601.563 556.595,602.229 554.5,601.5C 553.833,595.012 553.167,588.679 552.5,582.5C 552.5,575.833 552.5,569.167 552.5,562.5 Z"/></g>
<g><path style="opacity:1" fill="#005c93" d="M 232.5,577.5 C 232.5,580.833 232.5,584.167 232.5,587.5C 232.5,588.167 232.5,588.833 232.5,589.5C 231.71,590.609 231.21,591.942 231,593.5C 230.667,592.167 230.333,590.833 230,589.5C 228.87,590.114 227.537,590.114 226,589.5C 223.905,590.344 221.905,591.344 220,592.5C 219.667,592.167 219.333,591.833 219,591.5C 218.823,595.356 218.323,599.023 217.5,602.5C 217.5,596.167 217.5,589.833 217.5,583.5C 218.166,580.972 218.832,578.306 219.5,575.5C 220.5,576.167 221.5,576.833 222.5,577.5C 226.233,574.546 229.067,575.212 231,579.5C 231.278,578.584 231.778,577.918 232.5,577.5 Z"/></g>
<g><path style="opacity:1" fill="#074b8c" d="M 492.5,577.5 C 495.892,582.605 499.059,587.938 502,593.5C 502.67,590.826 503.837,588.493 505.5,586.5C 507.049,586.736 508.549,586.736 510,586.5C 510.333,585.5 510.667,584.5 511,583.5C 513.636,583.545 516.47,583.712 519.5,584C 520.056,584.383 520.389,584.883 520.5,585.5C 518.008,591.818 515.008,597.818 511.5,603.5C 511.282,599.819 510.116,599.152 508,601.5C 507.009,600.061 505.676,599.061 504,598.5C 501.081,599.187 498.248,600.187 495.5,601.5C 494.83,603.291 494.163,604.958 493.5,606.5C 488.077,598.659 483.41,590.326 479.5,581.5C 479.825,579.868 480.825,578.868 482.5,578.5C 485.344,578.747 488.177,579.08 491,579.5C 491.278,578.584 491.778,577.918 492.5,577.5 Z"/></g>
<g><path style="opacity:1" fill="#88a4c4" d="M 650.5,546.5 C 650.5,553.5 650.5,560.5 650.5,567.5C 650.5,581.167 650.5,594.833 650.5,608.5C 655.5,608.5 660.5,608.5 665.5,608.5C 665.5,602.5 665.5,596.5 665.5,590.5C 665.5,579.833 665.5,569.167 665.5,558.5C 665.5,554.5 665.5,550.5 665.5,546.5C 666.497,567.327 666.831,588.327 666.5,609.5C 660.833,609.5 655.167,609.5 649.5,609.5C 649.169,588.327 649.503,567.327 650.5,546.5 Z"/></g>
<g><path style="opacity:1" fill="#014686" d="M 665.5,558.5 C 665.5,569.167 665.5,579.833 665.5,590.5C 663.935,587.957 661.602,586.623 658.5,586.5C 656.461,587.01 654.628,587.01 653,586.5C 652.667,587.5 652.333,588.5 652,589.5C 651.5,583.175 651.334,576.842 651.5,570.5C 652.268,569.737 652.768,568.737 653,567.5C 654.684,569.459 656.684,569.459 659,567.5C 660.693,568.184 662.193,569.184 663.5,570.5C 664.167,566.353 664.834,562.353 665.5,558.5 Z"/></g>
<g><path style="opacity:1" fill="#034f8c" d="M 650.5,546.5 C 655.5,546.5 660.5,546.5 665.5,546.5C 665.5,550.5 665.5,554.5 665.5,558.5C 664.834,562.353 664.167,566.353 663.5,570.5C 662.193,569.184 660.693,568.184 659,567.5C 656.684,569.459 654.684,569.459 653,567.5C 652.768,568.737 652.268,569.737 651.5,570.5C 651.737,569.209 651.404,568.209 650.5,567.5C 650.5,560.5 650.5,553.5 650.5,546.5 Z"/></g>
<g><path style="opacity:1" fill="#025491" d="M 307.5,575.5 C 307.5,586.5 307.5,597.5 307.5,608.5C 301.5,608.5 295.5,608.5 289.5,608.5C 284.427,602.767 279.761,596.767 275.5,590.5C 277.49,590.007 277.49,588.84 275.5,587C 277.807,586.729 278.974,587.895 279,590.5C 281.305,590.421 283.805,590.254 286.5,590C 287,589.5 287.5,589 288,588.5C 288.953,590.373 290.12,590.706 291.5,589.5C 291.369,590.376 291.702,591.043 292.5,591.5C 293.244,586.479 294.077,581.479 295,576.5C 296.939,578.236 299.272,579.236 302,579.5C 303.261,579.241 304.261,578.574 305,577.5C 305.333,577.833 305.667,578.167 306,578.5C 306.232,577.263 306.732,576.263 307.5,575.5 Z"/></g>
<g><path style="opacity:1" fill="#3c83a8" d="M 323.5,546.5 C 328.833,546.5 334.167,546.5 339.5,546.5C 339.5,567.5 339.5,588.5 339.5,609.5C 334.167,609.5 328.833,609.5 323.5,609.5C 323.5,588.5 323.5,567.5 323.5,546.5 Z"/></g>
<g><path style="opacity:1" fill="#005591" d="M 324.5,573.5 C 325.302,574.952 325.802,576.618 326,578.5C 326.333,577.5 326.667,576.5 327,575.5C 330.42,576.182 333.754,577.182 337,578.5C 337.278,577.584 337.778,576.918 338.5,576.5C 338.5,581.5 338.5,586.5 338.5,591.5C 334.63,590.574 330.797,589.574 327,588.5C 326.667,589.167 326.333,589.833 326,590.5C 325.722,589.584 325.222,588.918 324.5,588.5C 324.5,583.5 324.5,578.5 324.5,573.5 Z"/></g>
<g><path style="opacity:1" fill="#006195" d="M 324.5,554.5 C 325.317,556.969 325.817,559.635 326,562.5C 326.333,561.833 326.667,561.167 327,560.5C 330.285,562.137 333.785,562.804 337.5,562.5C 337.263,561.209 337.596,560.209 338.5,559.5C 338.5,565.167 338.5,570.833 338.5,576.5C 337.778,576.918 337.278,577.584 337,578.5C 333.754,577.182 330.42,576.182 327,575.5C 326.667,576.5 326.333,577.5 326,578.5C 325.802,576.618 325.302,574.952 324.5,573.5C 324.5,567.167 324.5,560.833 324.5,554.5 Z"/></g>
<g><path style="opacity:1" fill="#00709b" d="M 338.5,559.5 C 337.596,560.209 337.263,561.209 337.5,562.5C 333.785,562.804 330.285,562.137 327,560.5C 326.667,561.167 326.333,561.833 326,562.5C 325.817,559.635 325.317,556.969 324.5,554.5C 324.5,552.167 324.5,549.833 324.5,547.5C 329.167,547.5 333.833,547.5 338.5,547.5C 338.5,551.5 338.5,555.5 338.5,559.5 Z"/></g>
<g><path style="opacity:1" fill="#00528f" d="M 232.5,589.5 C 232.5,595.833 232.5,602.167 232.5,608.5C 227.5,608.5 222.5,608.5 217.5,608.5C 217.5,606.5 217.5,604.5 217.5,602.5C 218.323,599.023 218.823,595.356 219,591.5C 219.333,591.833 219.667,592.167 220,592.5C 221.905,591.344 223.905,590.344 226,589.5C 227.537,590.114 228.87,590.114 230,589.5C 230.333,590.833 230.667,592.167 231,593.5C 231.21,591.942 231.71,590.609 232.5,589.5 Z"/></g>
<g><path style="opacity:1" fill="#084e8f" d="M 414.5,584.5 C 415.222,584.918 415.722,585.584 416,586.5C 416.333,585.833 416.667,585.167 417,584.5C 420.832,584.541 424.665,584.541 428.5,584.5C 428.19,587.713 428.523,590.713 429.5,593.5C 431.548,599.858 435.881,602.025 442.5,600C 445.72,598.648 449.053,597.814 452.5,597.5C 452.448,599.903 452.781,602.236 453.5,604.5C 452.409,606.534 450.743,607.868 448.5,608.5C 440.92,610.232 433.254,610.732 425.5,610C 418.172,607.85 414.506,603.017 414.5,595.5C 414.5,591.833 414.5,588.167 414.5,584.5 Z"/></g>
<g><path style="opacity:1" fill="#07397d" d="M 650.5,567.5 C 651.404,568.209 651.737,569.209 651.5,570.5C 651.334,576.842 651.5,583.175 652,589.5C 652.333,588.5 652.667,587.5 653,586.5C 654.628,587.01 656.461,587.01 658.5,586.5C 661.602,586.623 663.935,587.957 665.5,590.5C 665.5,596.5 665.5,602.5 665.5,608.5C 660.5,608.5 655.5,608.5 650.5,608.5C 650.5,594.833 650.5,581.167 650.5,567.5 Z"/></g>
<g><path style="opacity:1" fill="#014b8d" d="M 324.5,588.5 C 325.222,588.918 325.722,589.584 326,590.5C 326.333,589.833 326.667,589.167 327,588.5C 330.797,589.574 334.63,590.574 338.5,591.5C 338.5,597.167 338.5,602.833 338.5,608.5C 333.833,608.5 329.167,608.5 324.5,608.5C 324.5,601.833 324.5,595.167 324.5,588.5 Z"/></g>
<g><path style="opacity:1" fill="#589bbb" d="M 307.5,552.5 C 307.833,552.5 308.167,552.5 308.5,552.5C 308.5,571.5 308.5,590.5 308.5,609.5C 301.978,609.823 295.645,609.49 289.5,608.5C 295.5,608.5 301.5,608.5 307.5,608.5C 307.5,597.5 307.5,586.5 307.5,575.5C 307.5,572.167 307.5,568.833 307.5,565.5C 307.5,561.167 307.5,556.833 307.5,552.5 Z"/></g>
<g><path style="opacity:1" fill="#5595bc" d="M 232.5,587.5 C 232.833,587.5 233.167,587.5 233.5,587.5C 233.5,594.833 233.5,602.167 233.5,609.5C 227.974,609.821 222.64,609.488 217.5,608.5C 222.5,608.5 227.5,608.5 232.5,608.5C 232.5,602.167 232.5,595.833 232.5,589.5C 232.5,588.833 232.5,588.167 232.5,587.5 Z"/></g>
<g><path style="opacity:1" fill="#0d4388" d="M 701.5,573.5 C 701.068,581.279 701.568,588.946 703,596.5C 705,599.167 707.667,600.5 711,600.5C 715.172,600.133 719.172,599.133 723,597.5C 725.379,600.316 726.545,603.649 726.5,607.5C 721.789,608.01 717.122,608.844 712.5,610C 705.479,611.194 698.813,610.194 692.5,607C 689.8,605.143 688.134,602.643 687.5,599.5C 687.334,593.491 687.501,587.491 688,581.5C 692.035,581.005 696.202,580.005 700.5,578.5C 700.216,576.585 700.549,574.919 701.5,573.5 Z"/></g>
<g><path style="opacity:1" fill="#014a8a" d="M 360.5,567.5 C 361.327,572.651 361.827,577.984 362,583.5C 362.333,582.5 362.667,581.5 363,580.5C 363.519,581.516 364.353,582.182 365.5,582.5C 367.136,581.696 368.636,580.696 370,579.5C 371.356,580.38 372.856,580.714 374.5,580.5C 374.183,584.702 374.517,588.702 375.5,592.5C 375.5,597.833 375.5,603.167 375.5,608.5C 370.5,608.5 365.5,608.5 360.5,608.5C 360.5,594.833 360.5,581.167 360.5,567.5 Z"/></g>
<g><path style="opacity:1" fill="#094186" d="M 511.5,603.5 C 506.487,613.527 501.487,623.527 496.5,633.5C 491.067,634.802 485.734,634.802 480.5,633.5C 484.599,624.305 488.932,615.305 493.5,606.5C 494.163,604.958 494.83,603.291 495.5,601.5C 498.248,600.187 501.081,599.187 504,598.5C 505.676,599.061 507.009,600.061 508,601.5C 510.116,599.152 511.282,599.819 511.5,603.5 Z"/></g>
<g><path style="opacity:1" fill="#094086" d="M 552.5,582.5 C 553.167,588.679 553.833,595.012 554.5,601.5C 556.595,602.229 558.428,601.563 560,599.5C 562.838,600.675 565.671,600.509 568.5,599C 581.007,598.831 593.34,598.331 605.5,597.5C 614.073,597.571 619.407,593.571 621.5,585.5C 622.156,584.722 622.989,584.056 624,583.5C 627.988,584.412 631.821,585.745 635.5,587.5C 634.653,588.845 633.487,589.845 632,590.5C 631.55,592.519 630.717,594.352 629.5,596C 630.267,597.47 630.933,598.97 631.5,600.5C 627.321,604.408 622.321,606.908 616.5,608C 613.518,608.498 610.518,608.665 607.5,608.5C 589.167,608.5 570.833,608.5 552.5,608.5C 552.5,599.833 552.5,591.167 552.5,582.5 Z"/></g>
<g><path style="opacity:1" fill="#124489" d="M 791.5,577.5 C 798.047,579.556 801.381,584.056 801.5,591C 801.144,598.554 797.477,603.721 790.5,606.5C 776.751,610.741 762.751,611.575 748.5,609C 744.198,607.641 739.864,606.474 735.5,605.5C 735.21,601.064 735.71,596.73 737,592.5C 752.061,601.444 767.727,602.777 784,596.5C 786.271,592.697 785.771,589.363 782.5,586.5C 784.158,582.175 787.158,579.175 791.5,577.5 Z"/></g>
<g><path style="opacity:1" fill="#81aecb" d="M 359.5,557.5 C 359.833,557.5 360.167,557.5 360.5,557.5C 360.5,560.833 360.5,564.167 360.5,567.5C 360.5,581.167 360.5,594.833 360.5,608.5C 365.5,608.5 370.5,608.5 375.5,608.5C 370.36,609.488 365.026,609.821 359.5,609.5C 359.5,592.167 359.5,574.833 359.5,557.5 Z"/></g>
<g><path style="opacity:1" fill="#a6c0da" d="M 453.5,604.5 C 454.776,605.386 454.776,606.386 453.5,607.5C 451.929,608.309 450.262,608.643 448.5,608.5C 450.743,607.868 452.409,606.534 453.5,604.5 Z"/></g>
<g><path style="opacity:1" fill="#7297bf" d="M 552.5,520.5 C 552.5,522.833 552.5,525.167 552.5,527.5C 552.5,535.5 552.5,543.5 552.5,551.5C 552.5,555.167 552.5,558.833 552.5,562.5C 552.5,569.167 552.5,575.833 552.5,582.5C 552.5,591.167 552.5,599.833 552.5,608.5C 570.833,608.5 589.167,608.5 607.5,608.5C 589.007,609.497 570.341,609.83 551.5,609.5C 551.169,579.662 551.502,549.995 552.5,520.5 Z"/></g>
<g><path style="opacity:1" fill="#c9d0e4" d="M 480.5,633.5 C 485.734,634.802 491.067,634.802 496.5,633.5C 494.085,634.814 491.252,635.481 488,635.5C 485.167,635.167 482.333,634.833 479.5,634.5C 479.624,633.893 479.957,633.56 480.5,633.5 Z"/></g>
</svg>
