<?xml version="1.0" encoding="UTF-8"?>
<!DOCTYPE svg PUBLIC "-//W3C//DTD SVG 1.1//EN" "http://www.w3.org/Graphics/SVG/1.1/DTD/svg11.dtd">
<svg xmlns="http://www.w3.org/2000/svg" version="1.1" width="1024px" height="1024px" style="shape-rendering:geometricPrecision; text-rendering:geometricPrecision; image-rendering:optimizeQuality; fill-rule:evenodd; clip-rule:evenodd" xmlns:xlink="http://www.w3.org/1999/xlink">
<g><path style="opacity:1" fill="#4cc181" d="M 437.5,308.5 C 437.414,309.496 437.748,310.329 438.5,311C 432.009,314.588 425.009,316.588 417.5,317C 413.344,317.824 409.511,319.324 406,321.5C 405.085,320.672 404.419,319.672 404,318.5C 403.658,320.619 402.825,320.953 401.5,319.5C 401.5,315.5 401.5,311.5 401.5,307.5C 412.993,306.341 424.659,306.174 436.5,307C 437.056,307.383 437.389,307.883 437.5,308.5 Z"/></g>
<g><path style="opacity:1" fill="#40b790" d="M 576.5,307.5 C 579.625,308.1 579.958,309.267 577.5,311C 569.176,312.047 560.842,313.047 552.5,314C 547.852,315.549 542.852,317.216 537.5,319C 528.267,319.249 519.101,320.082 510,321.5C 508.527,321.097 507.194,320.43 506,319.5C 505.667,320.5 505.333,321.5 505,322.5C 504.768,321.263 504.268,320.263 503.5,319.5C 503.5,315.167 503.5,310.833 503.5,306.5C 527.866,306.196 552.199,306.529 576.5,307.5 Z"/></g>
<g><path style="opacity:1" fill="#32b785" d="M 437.5,308.5 C 440.848,311.851 443.848,315.518 446.5,319.5C 444.863,318.782 443.197,318.616 441.5,319C 437.779,320.854 434.446,323.187 431.5,326C 423.743,329.058 415.743,331.558 407.5,333.5C 405.181,331.945 403.681,332.612 403,335.5C 402.768,334.263 402.268,333.263 401.5,332.5C 401.5,328.167 401.5,323.833 401.5,319.5C 402.825,320.953 403.658,320.619 404,318.5C 404.419,319.672 405.085,320.672 406,321.5C 409.511,319.324 413.344,317.824 417.5,317C 425.009,316.588 432.009,314.588 438.5,311C 437.748,310.329 437.414,309.496 437.5,308.5 Z"/></g>
<g><path style="opacity:1" fill="#22aa93" d="M 576.5,307.5 C 584.523,307.999 591.856,310.333 598.5,314.5C 598.567,317.766 596.901,319.266 593.5,319C 592.5,320 591.5,321 590.5,322C 584.384,322.659 578.218,324.159 572,326.5C 569.891,326.434 567.725,326.101 565.5,325.5C 564.808,326.025 564.308,326.692 564,327.5C 561.568,326.707 559.234,326.374 557,326.5C 539.796,328.919 522.296,330.919 504.5,332.5C 504.5,334.167 504.5,335.833 504.5,337.5C 504.167,337.5 503.833,337.5 503.5,337.5C 503.5,331.5 503.5,325.5 503.5,319.5C 504.268,320.263 504.768,321.263 505,322.5C 505.333,321.5 505.667,320.5 506,319.5C 507.194,320.43 508.527,321.097 510,321.5C 519.101,320.082 528.267,319.249 537.5,319C 542.852,317.216 547.852,315.549 552.5,314C 560.842,313.047 569.176,312.047 577.5,311C 579.958,309.267 579.625,308.1 576.5,307.5 Z"/></g>
<g><path style="opacity:1" fill="#26b08d" d="M 446.5,319.5 C 448.633,321.091 450.299,323.091 451.5,325.5C 451.5,326.833 451.5,328.167 451.5,329.5C 446.591,330.602 441.758,331.935 437,333.5C 436,332.833 435,332.167 434,331.5C 428.48,334.344 422.647,336.177 416.5,337C 412.916,339.041 409.416,341.208 406,343.5C 405.667,342.833 405.333,342.167 405,341.5C 404.311,342.357 403.478,343.023 402.5,343.5C 401.511,339.893 401.177,336.226 401.5,332.5C 402.268,333.263 402.768,334.263 403,335.5C 403.681,332.612 405.181,331.945 407.5,333.5C 415.743,331.558 423.743,329.058 431.5,326C 434.446,323.187 437.779,320.854 441.5,319C 443.197,318.616 444.863,318.782 446.5,319.5 Z"/></g>
<g><path style="opacity:1" fill="#13a299" d="M 598.5,314.5 C 604.374,317.102 609.04,321.102 612.5,326.5C 612.5,327.5 612.5,328.5 612.5,329.5C 606.786,330.945 600.952,331.945 595,332.5C 592.254,333.745 589.421,334.745 586.5,335.5C 578.202,333.151 569.869,332.985 561.5,335C 558.048,338.629 553.882,339.462 549,337.5C 545.783,338.985 542.616,340.318 539.5,341.5C 539.5,341.833 539.5,342.167 539.5,342.5C 538.849,341.909 538.182,341.243 537.5,340.5C 534.256,341.07 530.922,341.07 527.5,340.5C 519.763,341.864 512.43,342.864 505.5,343.5C 504.534,341.604 504.201,339.604 504.5,337.5C 504.5,335.833 504.5,334.167 504.5,332.5C 522.296,330.919 539.796,328.919 557,326.5C 559.234,326.374 561.568,326.707 564,327.5C 564.308,326.692 564.808,326.025 565.5,325.5C 567.725,326.101 569.891,326.434 572,326.5C 578.218,324.159 584.384,322.659 590.5,322C 591.5,321 592.5,320 593.5,319C 596.901,319.266 598.567,317.766 598.5,314.5 Z"/></g>
<g><path style="opacity:1" fill="#179c9f" d="M 612.5,326.5 C 617.023,331.216 619.69,336.883 620.5,343.5C 619.778,343.918 619.278,344.584 619,345.5C 618.333,344.167 617.667,342.833 617,341.5C 616.026,343.878 615.359,343.544 615,340.5C 614.667,341.833 614.333,343.167 614,344.5C 613.667,344.167 613.333,343.833 613,343.5C 606.984,345.334 600.817,346.667 594.5,347.5C 591.528,348.148 589.528,349.815 588.5,352.5C 586.261,347.766 582.594,344.599 577.5,343C 565.22,341.606 552.886,341.106 540.5,341.5C 540.167,341.5 539.833,341.5 539.5,341.5C 542.616,340.318 545.783,338.985 549,337.5C 553.882,339.462 558.048,338.629 561.5,335C 569.869,332.985 578.202,333.151 586.5,335.5C 589.421,334.745 592.254,333.745 595,332.5C 600.952,331.945 606.786,330.945 612.5,329.5C 612.5,328.5 612.5,327.5 612.5,326.5 Z"/></g>
<g><path style="opacity:1" fill="#2caa98" d="M 401.5,307.5 C 401.5,311.5 401.5,315.5 401.5,319.5C 401.5,323.833 401.5,328.167 401.5,332.5C 401.177,336.226 401.511,339.893 402.5,343.5C 403.478,343.023 404.311,342.357 405,341.5C 405.333,342.167 405.667,342.833 406,343.5C 409.416,341.208 412.916,339.041 416.5,337C 422.647,336.177 428.48,334.344 434,331.5C 435,332.167 436,332.833 437,333.5C 441.758,331.935 446.591,330.602 451.5,329.5C 451.5,328.167 451.5,326.833 451.5,325.5C 456.21,329.913 460.21,334.913 463.5,340.5C 460.276,342.501 456.943,344.501 453.5,346.5C 449.708,345.016 446.042,345.516 442.5,348C 431.472,349.672 420.472,351.672 409.5,354C 407.699,356.389 405.532,356.889 403,355.5C 401.97,355.836 401.47,356.503 401.5,357.5C 400.167,340.833 400.167,324.167 401.5,307.5 Z"/></g>
<g><path style="opacity:1" fill="#0b959d" d="M 503.5,337.5 C 503.833,337.5 504.167,337.5 504.5,337.5C 504.201,339.604 504.534,341.604 505.5,343.5C 512.43,342.864 519.763,341.864 527.5,340.5C 530.922,341.07 534.256,341.07 537.5,340.5C 538.182,341.243 538.849,341.909 539.5,342.5C 539.5,344.5 539.5,346.5 539.5,348.5C 537.476,351.108 534.976,352.108 532,351.5C 523.339,354.367 514.673,356.034 506,356.5C 505.667,355.833 505.333,355.167 505,354.5C 504.5,362.493 504.334,370.493 504.5,378.5C 504.823,382.226 504.489,385.893 503.5,389.5C 502.893,389.376 502.56,389.043 502.5,388.5C 503.497,371.675 503.83,354.675 503.5,337.5 Z"/></g>
<g><path style="opacity:1" fill="#128a9f" d="M 620.5,343.5 C 623.756,351.417 624.089,359.417 621.5,367.5C 621.656,363.418 621.156,359.418 620,355.5C 610.616,355.92 601.116,357.254 591.5,359.5C 590.306,360.799 589.306,362.132 588.5,363.5C 589.539,359.873 589.539,356.206 588.5,352.5C 589.528,349.815 591.528,348.148 594.5,347.5C 600.817,346.667 606.984,345.334 613,343.5C 613.333,343.833 613.667,344.167 614,344.5C 614.333,343.167 614.667,341.833 615,340.5C 615.359,343.544 616.026,343.878 617,341.5C 617.667,342.833 618.333,344.167 619,345.5C 619.278,344.584 619.778,343.918 620.5,343.5 Z"/></g>
<g><path style="opacity:1" fill="#0b999a" d="M 463.5,340.5 C 469.311,346.793 474.645,353.46 479.5,360.5C 476.476,358.794 473.476,357.127 470.5,355.5C 470.762,356.978 470.429,358.311 469.5,359.5C 465.041,362.065 460.374,364.065 455.5,365.5C 454.103,363.394 452.27,361.727 450,360.5C 449.626,361.416 449.126,362.25 448.5,363C 445.376,363.479 442.543,364.646 440,366.5C 438.644,365.62 437.144,365.286 435.5,365.5C 435.498,369.349 433.665,372.015 430,373.5C 424.532,372.812 419.032,372.145 413.5,371.5C 412.304,371.846 412.304,372.346 413.5,373C 411.129,373.735 408.795,374.568 406.5,375.5C 404.379,373.446 402.712,373.446 401.5,375.5C 401.5,369.5 401.5,363.5 401.5,357.5C 401.47,356.503 401.97,355.836 403,355.5C 405.532,356.889 407.699,356.389 409.5,354C 420.472,351.672 431.472,349.672 442.5,348C 446.042,345.516 449.708,345.016 453.5,346.5C 456.943,344.501 460.276,342.501 463.5,340.5 Z"/></g>
<g><path style="opacity:1" fill="#0d909f" d="M 479.5,360.5 C 480.833,361.167 481.833,362.167 482.5,363.5C 471.993,367.169 461.326,370.335 450.5,373C 448.883,374.092 447.883,375.592 447.5,377.5C 443.835,374.667 440.668,371.334 438,367.5C 437.5,376.827 437.334,386.161 437.5,395.5C 436.527,393.052 436.194,390.385 436.5,387.5C 436.666,383.486 436.499,379.486 436,375.5C 430.655,378.576 424.988,379.242 419,377.5C 414.706,378.02 410.54,379.02 406.5,380.5C 405.186,379.687 404.019,378.687 403,377.5C 402.79,379.058 402.29,380.391 401.5,381.5C 401.5,379.5 401.5,377.5 401.5,375.5C 402.712,373.446 404.379,373.446 406.5,375.5C 408.795,374.568 411.129,373.735 413.5,373C 412.304,372.346 412.304,371.846 413.5,371.5C 419.032,372.145 424.532,372.812 430,373.5C 433.665,372.015 435.498,369.349 435.5,365.5C 437.144,365.286 438.644,365.62 440,366.5C 442.543,364.646 445.376,363.479 448.5,363C 449.126,362.25 449.626,361.416 450,360.5C 452.27,361.727 454.103,363.394 455.5,365.5C 460.374,364.065 465.041,362.065 469.5,359.5C 470.429,358.311 470.762,356.978 470.5,355.5C 473.476,357.127 476.476,358.794 479.5,360.5 Z"/></g>
<g><path style="opacity:1" fill="#00819b" d="M 539.5,348.5 C 539.5,358.833 539.5,369.167 539.5,379.5C 538.21,378.942 537.377,377.942 537,376.5C 529.543,376.965 521.876,377.632 514,378.5C 511.576,378.47 509.243,378.137 507,377.5C 506.658,379.619 505.825,379.953 504.5,378.5C 504.334,370.493 504.5,362.493 505,354.5C 505.333,355.167 505.667,355.833 506,356.5C 514.673,356.034 523.339,354.367 532,351.5C 534.976,352.108 537.476,351.108 539.5,348.5 Z"/></g>
<g><path style="opacity:1" fill="#09779c" d="M 621.5,367.5 C 620.975,371.533 619.642,375.2 617.5,378.5C 617.423,377.25 616.756,376.417 615.5,376C 615.833,375.667 616.167,375.333 616.5,375C 614.351,374.421 612.185,373.921 610,373.5C 599.611,376.023 589.444,376.023 579.5,373.5C 583.865,371.465 586.865,368.131 588.5,363.5C 589.306,362.132 590.306,360.799 591.5,359.5C 601.116,357.254 610.616,355.92 620,355.5C 621.156,359.418 621.656,363.418 621.5,367.5 Z"/></g>
<g><path style="opacity:1" fill="#0b849f" d="M 482.5,363.5 C 486.47,368.476 490.47,373.476 494.5,378.5C 491.264,377.293 488.097,376.627 485,376.5C 475.992,380.625 466.492,382.625 456.5,382.5C 456.935,384.703 456.935,386.703 456.5,388.5C 452.785,385.393 449.785,381.727 447.5,377.5C 447.883,375.592 448.883,374.092 450.5,373C 461.326,370.335 471.993,367.169 482.5,363.5 Z"/></g>
<g><path style="opacity:1" fill="#13719d" d="M 579.5,373.5 C 589.444,376.023 599.611,376.023 610,373.5C 612.185,373.921 614.351,374.421 616.5,375C 616.167,375.333 615.833,375.667 615.5,376C 616.756,376.417 617.423,377.25 617.5,378.5C 615.696,383.642 612.696,387.975 608.5,391.5C 607.833,391.5 607.167,391.5 606.5,391.5C 606.5,390.833 606.167,390.5 605.5,390.5C 603.451,390.294 603.117,389.461 604.5,388C 601.377,388.209 598.543,387.043 596,384.5C 589.151,383.362 582.484,381.696 576,379.5C 573.766,380.705 572.099,380.039 571,377.5C 570.667,378.167 570.333,378.833 570,379.5C 567.281,378.556 564.448,378.223 561.5,378.5C 567.477,377.169 573.477,375.503 579.5,373.5 Z"/></g>
<g><path style="opacity:1" fill="#176b9d" d="M 605.5,390.5 C 603.054,393.231 600.054,395.231 596.5,396.5C 591.59,392.866 585.923,391.032 579.5,391C 572.45,390.203 565.45,390.37 558.5,391.5C 555.858,389.452 554.025,386.786 553,383.5C 552.5,392.494 552.334,401.494 552.5,410.5C 551.506,400.347 551.172,390.014 551.5,379.5C 554.807,378.949 558.14,378.616 561.5,378.5C 564.448,378.223 567.281,378.556 570,379.5C 570.333,378.833 570.667,378.167 571,377.5C 572.099,380.039 573.766,380.705 576,379.5C 582.484,381.696 589.151,383.362 596,384.5C 598.543,387.043 601.377,388.209 604.5,388C 603.117,389.461 603.451,390.294 605.5,390.5 Z"/></g>
<g><path style="opacity:1" fill="#0b799f" d="M 494.5,378.5 C 496.804,381.141 499.138,383.808 501.5,386.5C 500.761,386.369 500.094,386.536 499.5,387C 500.696,387.654 500.696,388.154 499.5,388.5C 498.719,387.271 498.219,385.938 498,384.5C 487.941,389.141 477.441,392.475 466.5,394.5C 465.914,394.291 465.414,393.957 465,393.5C 465.148,394.825 464.982,395.992 464.5,397C 465.793,397.49 467.127,397.657 468.5,397.5C 468.371,399.216 468.038,400.883 467.5,402.5C 463.353,398.205 459.687,393.538 456.5,388.5C 456.935,386.703 456.935,384.703 456.5,382.5C 466.492,382.625 475.992,380.625 485,376.5C 488.097,376.627 491.264,377.293 494.5,378.5 Z"/></g>
<g><path style="opacity:1" fill="#00819d" d="M 436.5,387.5 C 435.732,388.263 435.232,389.263 435,390.5C 434.439,389.978 433.772,389.645 433,389.5C 428.02,391.733 422.854,392.067 417.5,390.5C 413.833,391.167 410.167,391.833 406.5,392.5C 405.186,391.687 404.019,390.687 403,389.5C 402.802,391.382 402.302,393.048 401.5,394.5C 401.5,390.167 401.5,385.833 401.5,381.5C 402.29,380.391 402.79,379.058 403,377.5C 404.019,378.687 405.186,379.687 406.5,380.5C 410.54,379.02 414.706,378.02 419,377.5C 424.988,379.242 430.655,378.576 436,375.5C 436.499,379.486 436.666,383.486 436.5,387.5 Z"/></g>
<g><path style="opacity:1" fill="#046a9b" d="M 539.5,379.5 C 539.5,388.5 539.5,397.5 539.5,406.5C 538.683,404.031 538.183,401.365 538,398.5C 532.585,398.64 526.751,398.807 520.5,399C 519.391,399.638 518.225,400.138 517,400.5C 511.258,399.972 505.092,399.806 498.5,400C 495.888,400.639 493.554,401.806 491.5,403.5C 490.914,403.291 490.414,402.957 490,402.5C 484.637,403.631 479.471,405.297 474.5,407.5C 475.035,409.271 475.869,409.604 477,408.5C 477.384,410.197 477.218,411.863 476.5,413.5C 473.152,410.149 470.152,406.482 467.5,402.5C 468.038,400.883 468.371,399.216 468.5,397.5C 467.127,397.657 465.793,397.49 464.5,397C 464.982,395.992 465.148,394.825 465,393.5C 465.414,393.957 465.914,394.291 466.5,394.5C 477.441,392.475 487.941,389.141 498,384.5C 498.219,385.938 498.719,387.271 499.5,388.5C 500.696,388.154 500.696,387.654 499.5,387C 500.094,386.536 500.761,386.369 501.5,386.5C 502.338,386.842 502.672,387.508 502.5,388.5C 502.56,389.043 502.893,389.376 503.5,389.5C 504.489,385.893 504.823,382.226 504.5,378.5C 505.825,379.953 506.658,379.619 507,377.5C 509.243,378.137 511.576,378.47 514,378.5C 521.876,377.632 529.543,376.965 537,376.5C 537.377,377.942 538.21,378.942 539.5,379.5 Z"/></g>
<g><path style="opacity:1" fill="#2079a0" d="M 436.5,387.5 C 436.194,390.385 436.527,393.052 437.5,395.5C 437.831,425.338 437.498,455.005 436.5,484.5C 436.5,463.833 436.5,443.167 436.5,422.5C 436.5,418.833 436.5,415.167 436.5,411.5C 436.666,407.154 436.499,402.821 436,398.5C 433.048,400.166 430.048,401.833 427,403.5C 426.667,403.167 426.333,402.833 426,402.5C 419.531,403.185 413.031,403.851 406.5,404.5C 404.364,403.528 403.197,401.861 403,399.5C 402.304,402.478 401.804,405.478 401.5,408.5C 400.203,403.934 400.203,399.267 401.5,394.5C 402.302,393.048 402.802,391.382 403,389.5C 404.019,390.687 405.186,391.687 406.5,392.5C 410.167,391.833 413.833,391.167 417.5,390.5C 422.854,392.067 428.02,391.733 433,389.5C 433.772,389.645 434.439,389.978 435,390.5C 435.232,389.263 435.732,388.263 436.5,387.5 Z"/></g>
<g><path style="opacity:1" fill="#0c5c97" d="M 596.5,396.5 C 593.188,396.265 592.355,397.265 594,399.5C 598.979,397.937 603.146,395.271 606.5,391.5C 607.167,391.5 607.833,391.5 608.5,391.5C 618.689,397.353 626.022,405.687 630.5,416.5C 628.133,415.921 626.3,414.588 625,412.5C 624.061,416.386 621.561,418.553 617.5,419C 610.591,420.873 603.758,420.706 597,418.5C 596.503,420.81 596.337,423.143 596.5,425.5C 592.539,415.992 585.206,411.159 574.5,411C 567.174,410.5 559.841,410.334 552.5,410.5C 552.334,401.494 552.5,392.494 553,383.5C 554.025,386.786 555.858,389.452 558.5,391.5C 565.45,390.37 572.45,390.203 579.5,391C 585.923,391.032 591.59,392.866 596.5,396.5 Z"/></g>
<g><path style="opacity:1" fill="#081823" d="M 605.5,390.5 C 606.167,390.5 606.5,390.833 606.5,391.5C 603.146,395.271 598.979,397.937 594,399.5C 592.355,397.265 593.188,396.265 596.5,396.5C 600.054,395.231 603.054,393.231 605.5,390.5 Z"/></g>
<g><path style="opacity:0.502" fill="#bfd6e3" d="M 539.5,341.5 C 539.833,341.5 540.167,341.5 540.5,341.5C 540.5,377.167 540.5,412.833 540.5,448.5C 553.5,448.5 566.5,448.5 579.5,448.5C 566.167,449.833 552.833,449.833 539.5,448.5C 539.5,438.5 539.5,428.5 539.5,418.5C 539.5,414.5 539.5,410.5 539.5,406.5C 539.5,397.5 539.5,388.5 539.5,379.5C 539.5,369.167 539.5,358.833 539.5,348.5C 539.5,346.5 539.5,344.5 539.5,342.5C 539.5,342.167 539.5,341.833 539.5,341.5 Z"/></g>
<g><path style="opacity:1" fill="#075d9a" d="M 539.5,406.5 C 539.5,410.5 539.5,414.5 539.5,418.5C 538.859,416.958 537.859,415.624 536.5,414.5C 521.399,419.28 506.066,420.28 490.5,417.5C 488.133,417.842 485.8,418.342 483.5,419C 484.328,419.915 485.328,420.581 486.5,421C 484.099,421.805 484.266,422.638 487,423.5C 487.333,423.167 487.667,422.833 488,422.5C 488.579,423.928 488.412,425.262 487.5,426.5C 483.487,422.485 479.821,418.152 476.5,413.5C 477.218,411.863 477.384,410.197 477,408.5C 475.869,409.604 475.035,409.271 474.5,407.5C 479.471,405.297 484.637,403.631 490,402.5C 490.414,402.957 490.914,403.291 491.5,403.5C 493.554,401.806 495.888,400.639 498.5,400C 505.092,399.806 511.258,399.972 517,400.5C 518.225,400.138 519.391,399.638 520.5,399C 526.751,398.807 532.585,398.64 538,398.5C 538.183,401.365 538.683,404.031 539.5,406.5 Z"/></g>
<g><path style="opacity:1" fill="#00699c" d="M 436.5,411.5 C 435.71,412.609 435.21,413.942 435,415.5C 434.667,414.833 434.333,414.167 434,413.5C 430.903,415.61 427.57,417.277 424,418.5C 422.333,417.833 420.667,417.167 419,416.5C 417.039,416.975 414.873,416.975 412.5,416.5C 410.285,416.67 408.285,417.337 406.5,418.5C 404.568,417.855 403.401,416.521 403,414.5C 402.79,416.058 402.29,417.391 401.5,418.5C 401.5,415.167 401.5,411.833 401.5,408.5C 401.804,405.478 402.304,402.478 403,399.5C 403.197,401.861 404.364,403.528 406.5,404.5C 413.031,403.851 419.531,403.185 426,402.5C 426.333,402.833 426.667,403.167 427,403.5C 430.048,401.833 433.048,400.166 436,398.5C 436.499,402.821 436.666,407.154 436.5,411.5 Z"/></g>
<g><path style="opacity:1" fill="#195c9b" d="M 452.5,405.5 C 460.137,414.809 467.803,424.142 475.5,433.5C 472.444,434.305 469.277,435.305 466,436.5C 465.691,434.609 466.525,433.275 468.5,432.5C 467.94,430.146 467.273,427.813 466.5,425.5C 461.62,427.069 456.62,428.069 451.5,428.5C 451.175,420.648 451.508,412.982 452.5,405.5 Z"/></g>
<g><path style="opacity:1" fill="#1e629e" d="M 436.5,411.5 C 436.5,415.167 436.5,418.833 436.5,422.5C 435.698,423.952 435.198,425.618 435,427.5C 434.667,427.167 434.333,426.833 434,426.5C 431.708,429.118 428.874,430.951 425.5,432C 419.118,431.89 412.785,432.057 406.5,432.5C 404.362,431.571 403.196,429.904 403,427.5C 401.922,437.807 401.422,448.14 401.5,458.5C 400.378,445.327 400.378,431.994 401.5,418.5C 402.29,417.391 402.79,416.058 403,414.5C 403.401,416.521 404.568,417.855 406.5,418.5C 408.285,417.337 410.285,416.67 412.5,416.5C 414.873,416.975 417.039,416.975 419,416.5C 420.667,417.167 422.333,417.833 424,418.5C 427.57,417.277 430.903,415.61 434,413.5C 434.333,414.167 434.667,414.833 435,415.5C 435.21,413.942 435.71,412.609 436.5,411.5 Z"/></g>
<g><path style="opacity:1" fill="#075094" d="M 539.5,418.5 C 539.5,428.5 539.5,438.5 539.5,448.5C 538.25,448.577 537.417,449.244 537,450.5C 535.933,449.809 534.766,449.309 533.5,449C 534.696,448.346 534.696,447.846 533.5,447.5C 530.014,448.795 526.514,448.795 523,447.5C 519.851,448.578 516.684,449.578 513.5,450.5C 512.252,449.96 511.085,449.293 510,448.5C 509.59,449.901 509.09,451.234 508.5,452.5C 501.031,444.239 494.031,435.572 487.5,426.5C 488.412,425.262 488.579,423.928 488,422.5C 487.667,422.833 487.333,423.167 487,423.5C 484.266,422.638 484.099,421.805 486.5,421C 485.328,420.581 484.328,419.915 483.5,419C 485.8,418.342 488.133,417.842 490.5,417.5C 506.066,420.28 521.399,419.28 536.5,414.5C 537.859,415.624 538.859,416.958 539.5,418.5 Z"/></g>
<g><path style="opacity:1" fill="#114589" d="M 630.5,416.5 C 640.097,453.447 626.097,475.947 588.5,484C 570.167,484.667 551.833,484.667 533.5,484C 524.953,473.625 516.619,463.125 508.5,452.5C 509.09,451.234 509.59,449.901 510,448.5C 511.085,449.293 512.252,449.96 513.5,450.5C 516.684,449.578 519.851,448.578 523,447.5C 526.514,448.795 530.014,448.795 533.5,447.5C 534.696,447.846 534.696,448.346 533.5,449C 534.766,449.309 535.933,449.809 537,450.5C 537.417,449.244 538.25,448.577 539.5,448.5C 552.833,449.833 566.167,449.833 579.5,448.5C 592.436,446.228 598.103,438.561 596.5,425.5C 596.337,423.143 596.503,420.81 597,418.5C 603.758,420.706 610.591,420.873 617.5,419C 621.561,418.553 624.061,416.386 625,412.5C 626.3,414.588 628.133,415.921 630.5,416.5 Z"/></g>
<g><path style="opacity:1" fill="#07488d" d="M 436.5,422.5 C 436.5,443.167 436.5,463.833 436.5,484.5C 424.863,485.065 413.197,485.065 401.5,484.5C 401.5,475.833 401.5,467.167 401.5,458.5C 401.422,448.14 401.922,437.807 403,427.5C 403.196,429.904 404.362,431.571 406.5,432.5C 412.785,432.057 419.118,431.89 425.5,432C 428.874,430.951 431.708,429.118 434,426.5C 434.333,426.833 434.667,427.167 435,427.5C 435.198,425.618 435.698,423.952 436.5,422.5 Z"/></g>
<g><path style="opacity:1" fill="#0e4489" d="M 475.5,433.5 C 489.492,450.168 503.159,467.168 516.5,484.5C 495.012,484.527 473.345,484.527 451.5,484.5C 451.5,465.833 451.5,447.167 451.5,428.5C 456.62,428.069 461.62,427.069 466.5,425.5C 467.273,427.813 467.94,430.146 468.5,432.5C 466.525,433.275 465.691,434.609 466,436.5C 469.277,435.305 472.444,434.305 475.5,433.5 Z"/></g>
<g><path style="opacity:0.502" fill="#bfcfdf" d="M 452.5,405.5 C 451.508,412.982 451.175,420.648 451.5,428.5C 451.5,447.167 451.5,465.833 451.5,484.5C 450.171,457.997 450.171,431.33 451.5,404.5C 452.107,404.624 452.44,404.957 452.5,405.5 Z"/></g>
<g><path style="opacity:1" fill="#2699a1" d="M 375.5,544.5 C 374.675,540.353 374.175,536.019 374,531.5C 373.612,530.572 372.945,529.905 372,529.5C 368.27,531.118 364.603,531.784 361,531.5C 360.501,535.486 360.334,539.486 360.5,543.5C 360.737,544.791 360.404,545.791 359.5,546.5C 359.334,540.824 359.501,535.157 360,529.5C 361.167,521.667 365.667,517.167 373.5,516C 381.868,515.26 390.202,515.426 398.5,516.5C 398.789,520.106 398.456,523.606 397.5,527C 391.552,526.474 385.552,526.474 379.5,527C 378.667,527.833 377.833,528.667 377,529.5C 375.612,534.372 375.112,539.372 375.5,544.5 Z"/></g>
<g><path style="opacity:0.502" fill="#72a7c4" d="M 610.5,520.5 C 591.167,520.5 571.833,520.5 552.5,520.5C 552.5,525.833 552.5,531.167 552.5,536.5C 552.5,545.167 552.5,553.833 552.5,562.5C 552.5,577.833 552.5,593.167 552.5,608.5C 572.167,608.5 591.833,608.5 611.5,608.5C 591.674,609.497 571.674,609.83 551.5,609.5C 551.5,579.5 551.5,549.5 551.5,519.5C 571.34,519.17 591.007,519.503 610.5,520.5 Z"/></g>
<g><path style="opacity:1" fill="#249da8" d="M 324.5,518.5 C 329.167,518.5 333.833,518.5 338.5,518.5C 339.544,523.531 339.544,528.531 338.5,533.5C 333.544,534.494 328.544,534.827 323.5,534.5C 323.392,529.13 323.725,523.797 324.5,518.5 Z"/></g>
<g><path style="opacity:1" fill="#216a9b" d="M 650.5,518.5 C 655.167,518.5 659.833,518.5 664.5,518.5C 665.167,523.16 665.333,527.826 665,532.5C 662.787,533.76 660.287,534.426 657.5,534.5C 654.713,534.426 652.213,533.76 650,532.5C 649.667,527.826 649.833,523.16 650.5,518.5 Z"/></g>
<g><path style="opacity:1" fill="#12729c" d="M 610.5,520.5 C 629.485,522.852 636.819,533.186 632.5,551.5C 632.666,546.489 632.499,541.489 632,536.5C 631.086,540.185 630.419,539.852 630,535.5C 629.36,537.398 628.027,537.732 626,536.5C 624.449,537.054 622.949,537.72 621.5,538.5C 620.137,537.802 618.971,537.802 618,538.5C 617.221,535.903 616.721,535.903 616.5,538.5C 614.133,534.31 610.466,532.143 605.5,532C 593.171,531.5 580.838,531.333 568.5,531.5C 568.5,540.5 568.5,549.5 568.5,558.5C 567.671,550.677 567.171,542.677 567,534.5C 566.581,538.852 565.914,539.185 565,535.5C 561.236,537.272 557.07,537.605 552.5,536.5C 552.5,531.167 552.5,525.833 552.5,520.5C 571.833,520.5 591.167,520.5 610.5,520.5 Z"/></g>
<g><path style="opacity:1" fill="#339ba4" d="M 258.5,547.5 C 255.252,547.493 251.919,547.826 248.5,548.5C 248.709,549.086 249.043,549.586 249.5,550C 248.603,552.087 247.936,554.254 247.5,556.5C 242.864,551.021 238.364,545.354 234,539.5C 233.5,546.492 233.334,553.492 233.5,560.5C 232.918,554.839 231.751,549.173 230,543.5C 227.568,543.477 225.068,543.81 222.5,544.5C 220.889,543.68 220.222,542.346 220.5,540.5C 219.5,540.5 218.5,540.5 217.5,540.5C 217.5,549.167 217.5,557.833 217.5,566.5C 217.5,578.5 217.5,590.5 217.5,602.5C 217.5,604.167 217.5,605.833 217.5,607.5C 216.336,578.67 216.17,549.67 217,520.5C 223.418,519.357 229.918,519.19 236.5,520C 243.962,529.106 251.295,538.273 258.5,547.5 Z"/></g>
<g><path style="opacity:1" fill="#018b9c" d="M 307.5,542.5 C 305.584,542.092 303.751,542.759 302,544.5C 299.6,543.956 297.267,543.289 295,542.5C 294.027,545.579 293.194,548.579 292.5,551.5C 292.5,549.167 292.5,546.833 292.5,544.5C 292.5,536.5 292.5,528.5 292.5,520.5C 297.5,520.5 302.5,520.5 307.5,520.5C 307.5,527.833 307.5,535.167 307.5,542.5 Z"/></g>
<g><path style="opacity:1" fill="#1f839d" d="M 375.5,544.5 C 382.219,546.405 389.219,547.071 396.5,546.5C 396.5,550.167 396.5,553.833 396.5,557.5C 389.833,557.5 383.167,557.5 376.5,557.5C 376.806,560.385 376.473,563.052 375.5,565.5C 375.5,562.5 375.5,559.5 375.5,556.5C 382.167,556.5 388.833,556.5 395.5,556.5C 395.5,553.5 395.5,550.5 395.5,547.5C 387.849,547.402 380.349,547.402 373,547.5C 370.827,545.17 368.327,544.837 365.5,546.5C 364.353,546.182 363.519,545.516 363,544.5C 362.667,545.167 362.333,545.833 362,546.5C 361.768,545.263 361.268,544.263 360.5,543.5C 360.334,539.486 360.501,535.486 361,531.5C 364.603,531.784 368.27,531.118 372,529.5C 372.945,529.905 373.612,530.572 374,531.5C 374.175,536.019 374.675,540.353 375.5,544.5 Z"/></g>
<g><path style="opacity:0.502" fill="#6ec1c5" d="M 308.5,556.5 C 307.514,552.03 307.181,547.363 307.5,542.5C 307.5,535.167 307.5,527.833 307.5,520.5C 302.5,520.5 297.5,520.5 292.5,520.5C 292.5,528.5 292.5,536.5 292.5,544.5C 291.507,536.35 291.174,528.017 291.5,519.5C 297.167,519.5 302.833,519.5 308.5,519.5C 308.5,531.833 308.5,544.167 308.5,556.5 Z"/></g>
<g><path style="opacity:1" fill="#267ba0" d="M 360.5,543.5 C 361.268,544.263 361.768,545.263 362,546.5C 362.333,545.833 362.667,545.167 363,544.5C 363.519,545.516 364.353,546.182 365.5,546.5C 368.327,544.837 370.827,545.17 373,547.5C 380.349,547.402 387.849,547.402 395.5,547.5C 395.5,550.5 395.5,553.5 395.5,556.5C 388.833,556.5 382.167,556.5 375.5,556.5C 375.5,559.5 375.5,562.5 375.5,565.5C 376.734,579.987 376.734,594.32 375.5,608.5C 375.5,603.167 375.5,597.833 375.5,592.5C 375.254,581.824 374.754,571.158 374,560.5C 369.845,559.773 365.845,559.773 362,560.5C 361.768,559.263 361.268,558.263 360.5,557.5C 360.167,557.5 359.833,557.5 359.5,557.5C 355.5,557.5 351.5,557.5 347.5,557.5C 347.5,553.833 347.5,550.167 347.5,546.5C 351.5,546.5 355.5,546.5 359.5,546.5C 360.404,545.791 360.737,544.791 360.5,543.5 Z"/></g>
<g><path style="opacity:1" fill="#167ea2" d="M 429.5,557.5 C 436.648,556.508 443.981,556.175 451.5,556.5C 451.5,553.5 451.5,550.5 451.5,547.5C 444.825,547.334 438.158,547.5 431.5,548C 432.833,548.333 434.167,548.667 435.5,549C 427.897,552.46 420.564,552.126 413.5,548C 409.848,547.501 406.182,547.335 402.5,547.5C 402.5,550.5 402.5,553.5 402.5,556.5C 406.371,556.185 410.038,556.518 413.5,557.5C 409.5,557.5 405.5,557.5 401.5,557.5C 401.5,553.833 401.5,550.167 401.5,546.5C 405.5,546.5 409.5,546.5 413.5,546.5C 413.5,540.167 413.5,533.833 413.5,527.5C 418.833,527.5 424.167,527.5 429.5,527.5C 429.5,533.833 429.5,540.167 429.5,546.5C 437.167,546.5 444.833,546.5 452.5,546.5C 452.5,550.167 452.5,553.833 452.5,557.5C 444.833,557.5 437.167,557.5 429.5,557.5 Z"/></g>
<g><path style="opacity:1" fill="#2c649b" d="M 702.5,595.5 C 701.833,583.993 701.167,572.326 700.5,560.5C 698.333,562.167 696.167,563.833 694,565.5C 692.488,563.043 691.154,563.043 690,565.5C 689.667,563.167 689.333,560.833 689,558.5C 687.709,572.468 687.209,586.468 687.5,600.5C 686.679,597.359 686.179,594.025 686,590.5C 685.5,579.505 685.333,568.505 685.5,557.5C 681.818,557.665 678.152,557.499 674.5,557C 673.544,553.606 673.211,550.106 673.5,546.5C 677.5,546.5 681.5,546.5 685.5,546.5C 685.5,540.167 685.5,533.833 685.5,527.5C 691.093,527.193 696.593,527.527 702,528.5C 702.499,534.491 702.666,540.491 702.5,546.5C 709.833,546.5 717.167,546.5 724.5,546.5C 724.5,550.167 724.5,553.833 724.5,557.5C 717.167,557.5 709.833,557.5 702.5,557.5C 702.5,570.167 702.5,582.833 702.5,595.5 Z"/></g>
<g><path style="opacity:1" fill="#146e9b" d="M 429.5,557.5 C 429.5,569.833 429.5,582.167 429.5,594.5C 428.539,592.735 428.205,590.735 428.5,588.5C 428.666,583.489 428.499,578.489 428,573.5C 427.667,573.833 427.333,574.167 427,574.5C 424.845,572.833 422.345,571.833 419.5,571.5C 418.158,572.902 417.324,572.569 417,570.5C 416.667,571.833 416.333,573.167 416,574.5C 415.667,571.833 415.333,569.167 415,566.5C 414.5,576.828 414.334,587.161 414.5,597.5C 413.504,584.344 413.171,571.01 413.5,557.5C 410.038,556.518 406.371,556.185 402.5,556.5C 402.5,553.5 402.5,550.5 402.5,547.5C 406.182,547.335 409.848,547.501 413.5,548C 420.564,552.126 427.897,552.46 435.5,549C 434.167,548.667 432.833,548.333 431.5,548C 438.158,547.5 444.825,547.334 451.5,547.5C 451.5,550.5 451.5,553.5 451.5,556.5C 443.981,556.175 436.648,556.508 429.5,557.5 Z"/></g>
<g><path style="opacity:1" fill="#1e719f" d="M 485.5,564.5 C 483.932,565.473 482.265,565.64 480.5,565C 481.833,564.333 481.833,563.667 480.5,563C 477.905,562.774 475.405,562.274 473,561.5C 472.333,562.833 471.667,562.833 471,561.5C 469.961,562.244 469.461,563.244 469.5,564.5C 465.941,559.061 462.608,553.394 459.5,547.5C 465.388,546.193 471.221,546.193 477,547.5C 480.372,552.91 483.205,558.577 485.5,564.5 Z"/></g>
<g><path style="opacity:1" fill="#195b95" d="M 568.5,558.5 C 580.171,558.667 591.838,558.5 603.5,558C 614.864,556.484 619.197,549.984 616.5,538.5C 616.721,535.903 617.221,535.903 618,538.5C 618.971,537.802 620.137,537.802 621.5,538.5C 622.949,537.72 624.449,537.054 626,536.5C 628.027,537.732 629.36,537.398 630,535.5C 630.419,539.852 631.086,540.185 632,536.5C 632.499,541.489 632.666,546.489 632.5,551.5C 630.073,557.095 626.073,561.262 620.5,564C 626.733,565.099 631.4,568.265 634.5,573.5C 633.778,573.918 633.278,574.584 633,575.5C 630.259,571.538 627.426,571.538 624.5,575.5C 623.914,575.291 623.414,574.957 623,574.5C 621.604,577.483 621.437,580.483 622.5,583.5C 622.199,585.422 621.533,587.088 620.5,588.5C 621.606,583.322 620.606,578.489 617.5,574C 616.167,573.333 614.833,572.667 613.5,572C 598.558,570.566 583.558,570.066 568.5,570.5C 568.5,579.5 568.5,588.5 568.5,597.5C 567.67,588.676 567.17,579.676 567,570.5C 566.667,571.833 566.333,573.167 566,574.5C 562.244,573.922 558.577,573.922 555,574.5C 554.667,575.167 554.333,575.833 554,576.5C 553.826,571.649 553.326,566.982 552.5,562.5C 552.5,553.833 552.5,545.167 552.5,536.5C 557.07,537.605 561.236,537.272 565,535.5C 565.914,539.185 566.581,538.852 567,534.5C 567.171,542.677 567.671,550.677 568.5,558.5 Z"/></g>
<g><path style="opacity:1" fill="#197da1" d="M 258.5,547.5 C 263.804,553.808 269.137,560.142 274.5,566.5C 272.516,566.383 270.85,567.05 269.5,568.5C 269.346,567.091 269.179,565.424 269,563.5C 268.667,563.833 268.333,564.167 268,564.5C 264.37,562.905 260.537,561.905 256.5,561.5C 253.497,561.812 252.83,563.145 254.5,565.5C 251.815,562.81 249.482,559.81 247.5,556.5C 247.936,554.254 248.603,552.087 249.5,550C 249.043,549.586 248.709,549.086 248.5,548.5C 251.919,547.826 255.252,547.493 258.5,547.5 Z"/></g>
<g><path style="opacity:1" fill="#215997" d="M 762.5,570.5 C 760.33,571.768 758.163,571.768 756,570.5C 755.481,571.516 754.647,572.182 753.5,572.5C 750.567,570.687 747.567,569.02 744.5,567.5C 743.833,568.167 743.167,568.833 742.5,569.5C 738.845,567.951 736.679,565.285 736,561.5C 735.505,563.473 735.338,565.473 735.5,567.5C 733.739,558.207 737.405,551.707 746.5,548C 762.569,543.225 778.569,543.558 794.5,549C 796.389,552.836 797.055,557.003 796.5,561.5C 788.749,558.753 780.749,556.92 772.5,556C 765.216,554.78 758.382,555.947 752,559.5C 749.983,562.127 750.15,564.627 752.5,567C 755.85,568.486 759.184,569.653 762.5,570.5 Z"/></g>
<g><path style="opacity:1" fill="#1b7f9f" d="M 233.5,560.5 C 233.5,576.833 233.5,593.167 233.5,609.5C 227.974,609.821 222.64,609.488 217.5,608.5C 222.5,608.5 227.5,608.5 232.5,608.5C 232.5,602.167 232.5,595.833 232.5,589.5C 232.666,582.825 232.5,576.158 232,569.5C 230.824,563.996 227.657,562.329 222.5,564.5C 221.5,563.833 220.5,563.167 219.5,562.5C 218.828,563.949 218.161,565.282 217.5,566.5C 217.5,557.833 217.5,549.167 217.5,540.5C 218.5,540.5 219.5,540.5 220.5,540.5C 220.222,542.346 220.889,543.68 222.5,544.5C 225.068,543.81 227.568,543.477 230,543.5C 231.751,549.173 232.918,554.839 233.5,560.5 Z"/></g>
<g><path style="opacity:1" fill="#277fa3" d="M 307.5,542.5 C 307.181,547.363 307.514,552.03 308.5,556.5C 308.5,574.167 308.5,591.833 308.5,609.5C 301.978,609.823 295.645,609.49 289.5,608.5C 295.5,608.5 301.5,608.5 307.5,608.5C 307.5,597.5 307.5,586.5 307.5,575.5C 307.665,572.15 307.498,568.817 307,565.5C 305.601,565.501 304.101,565.835 302.5,566.5C 300.78,565.066 298.78,564.233 296.5,564C 295.283,562.352 294.45,560.519 294,558.5C 293.821,562.025 293.321,565.359 292.5,568.5C 291.501,562.672 291.501,557.005 292.5,551.5C 293.194,548.579 294.027,545.579 295,542.5C 297.267,543.289 299.6,543.956 302,544.5C 303.751,542.759 305.584,542.092 307.5,542.5 Z"/></g>
<g><path style="opacity:1" fill="#1f4e8f" d="M 762.5,570.5 C 774.409,571.114 785.742,573.947 796.5,579C 802.126,585.541 802.96,592.708 799,600.5C 794.019,605.908 787.852,609.074 780.5,610C 765.134,611.711 750.134,610.211 735.5,605.5C 735.335,601.818 735.501,598.152 736,594.5C 736.308,593.692 736.808,593.025 737.5,592.5C 751.174,599.461 765.507,601.294 780.5,598C 787.458,592.852 786.791,588.852 778.5,586C 767.413,584.036 756.413,581.702 745.5,579C 740.147,576.82 736.813,572.987 735.5,567.5C 735.338,565.473 735.505,563.473 736,561.5C 736.679,565.285 738.845,567.951 742.5,569.5C 743.167,568.833 743.833,568.167 744.5,567.5C 747.567,569.02 750.567,570.687 753.5,572.5C 754.647,572.182 755.481,571.516 756,570.5C 758.163,571.768 760.33,571.768 762.5,570.5 Z"/></g>
<g><path style="opacity:1" fill="#1f72a0" d="M 274.5,566.5 C 278.064,570.614 281.397,574.948 284.5,579.5C 280.384,578.736 276.384,578.569 272.5,579C 271.328,579.419 270.328,580.085 269.5,581C 269.214,582.388 269.548,583.888 270.5,585.5C 264.817,579.146 259.484,572.48 254.5,565.5C 252.83,563.145 253.497,561.812 256.5,561.5C 260.537,561.905 264.37,562.905 268,564.5C 268.333,564.167 268.667,563.833 269,563.5C 269.179,565.424 269.346,567.091 269.5,568.5C 270.85,567.05 272.516,566.383 274.5,566.5 Z"/></g>
<g><path style="opacity:1" fill="#02699a" d="M 307.5,575.5 C 306.732,576.263 306.232,577.263 306,578.5C 305.667,578.167 305.333,577.833 305,577.5C 304.261,578.574 303.261,579.241 302,579.5C 299.272,579.236 296.939,578.236 295,576.5C 294.077,581.479 293.244,586.479 292.5,591.5C 291.702,591.043 291.369,590.376 291.5,589.5C 292.491,582.687 292.825,575.687 292.5,568.5C 293.321,565.359 293.821,562.025 294,558.5C 294.45,560.519 295.283,562.352 296.5,564C 298.78,564.233 300.78,565.066 302.5,566.5C 304.101,565.835 305.601,565.501 307,565.5C 307.498,568.817 307.665,572.15 307.5,575.5 Z"/></g>
<g><path style="opacity:1" fill="#005d8f" d="M 360.5,557.5 C 361.268,558.263 361.768,559.263 362,560.5C 365.845,559.773 369.845,559.773 374,560.5C 374.754,571.158 375.254,581.824 375.5,592.5C 374.517,588.702 374.183,584.702 374.5,580.5C 372.856,580.714 371.356,580.38 370,579.5C 368.636,580.696 367.136,581.696 365.5,582.5C 364.353,582.182 363.519,581.516 363,580.5C 362.667,581.5 362.333,582.5 362,583.5C 361.827,577.984 361.327,572.651 360.5,567.5C 360.5,564.167 360.5,560.833 360.5,557.5 Z"/></g>
<g><path style="opacity:0.502" fill="#2d7da3" d="M 323.5,546.5 C 328.833,546.5 334.167,546.5 339.5,546.5C 339.5,567.5 339.5,588.5 339.5,609.5C 334.167,609.5 328.833,609.5 323.5,609.5C 323.5,588.5 323.5,567.5 323.5,546.5 Z"/></g>
<g><path style="opacity:1" fill="#035a93" d="M 428.5,588.5 C 427.732,589.263 427.232,590.263 427,591.5C 423.923,589.885 420.59,588.885 417,588.5C 415.805,592.751 415.305,597.085 415.5,601.5C 414.566,600.432 414.232,599.099 414.5,597.5C 414.334,587.161 414.5,576.828 415,566.5C 415.333,569.167 415.667,571.833 416,574.5C 416.333,573.167 416.667,571.833 417,570.5C 417.324,572.569 418.158,572.902 419.5,571.5C 422.345,571.833 424.845,572.833 427,574.5C 427.333,574.167 427.667,573.833 428,573.5C 428.499,578.489 428.666,583.489 428.5,588.5 Z"/></g>
<g><path style="opacity:1" fill="#1d5894" d="M 510.5,605.5 C 509.374,603.5 509.207,601.5 510,599.5C 509.333,600.167 508.667,600.833 508,601.5C 507.009,600.061 505.676,599.061 504,598.5C 501.081,599.187 498.248,600.187 495.5,601.5C 494.743,604.37 493.743,607.036 492.5,609.5C 491.237,604.968 489.403,600.635 487,596.5C 480.888,585.939 475.055,575.273 469.5,564.5C 469.461,563.244 469.961,562.244 471,561.5C 471.667,562.833 472.333,562.833 473,561.5C 475.405,562.274 477.905,562.774 480.5,563C 481.833,563.667 481.833,564.333 480.5,565C 482.265,565.64 483.932,565.473 485.5,564.5C 490.771,573.461 496.104,582.461 501.5,591.5C 509.662,577.18 517.328,562.513 524.5,547.5C 530.167,546.167 535.833,546.167 541.5,547.5C 531.647,567.213 521.314,586.546 510.5,605.5 Z"/></g>
<g><path style="opacity:0.502" fill="#9ab4ce" d="M 650.5,546.5 C 650.5,558.5 650.5,570.5 650.5,582.5C 650.5,591.167 650.5,599.833 650.5,608.5C 655.5,608.5 660.5,608.5 665.5,608.5C 665.5,600.5 665.5,592.5 665.5,584.5C 665.5,571.833 665.5,559.167 665.5,546.5C 666.497,567.327 666.831,588.327 666.5,609.5C 660.833,609.5 655.167,609.5 649.5,609.5C 649.169,588.327 649.503,567.327 650.5,546.5 Z"/></g>
<g><path style="opacity:1" fill="#024d8b" d="M 650.5,546.5 C 655.5,546.5 660.5,546.5 665.5,546.5C 665.5,559.167 665.5,571.833 665.5,584.5C 660.991,580.145 655.991,579.478 650.5,582.5C 650.5,570.5 650.5,558.5 650.5,546.5 Z"/></g>
<g><path style="opacity:1" fill="#016093" d="M 232.5,589.5 C 231.71,590.609 231.21,591.942 231,593.5C 230.667,592.167 230.333,590.833 230,589.5C 228.87,590.114 227.537,590.114 226,589.5C 223.905,590.344 221.905,591.344 220,592.5C 219.667,592.167 219.333,591.833 219,591.5C 218.823,595.356 218.323,599.023 217.5,602.5C 217.5,590.5 217.5,578.5 217.5,566.5C 218.161,565.282 218.828,563.949 219.5,562.5C 220.5,563.167 221.5,563.833 222.5,564.5C 227.657,562.329 230.824,563.996 232,569.5C 232.5,576.158 232.666,582.825 232.5,589.5 Z"/></g>
<g><path style="opacity:1" fill="#005993" d="M 338.5,591.5 C 334.63,590.574 330.797,589.574 327,588.5C 326.667,589.167 326.333,589.833 326,590.5C 325.722,589.584 325.222,588.918 324.5,588.5C 324.333,577.162 324.5,565.828 325,554.5C 325.333,557.167 325.667,559.833 326,562.5C 326.333,561.833 326.667,561.167 327,560.5C 330.285,562.137 333.785,562.804 337.5,562.5C 338.513,570.121 338.847,579.788 338.5,591.5 Z"/></g>
<g><path style="opacity:0.502" fill="#80b0cc" d="M 359.5,557.5 C 359.833,557.5 360.167,557.5 360.5,557.5C 360.5,560.833 360.5,564.167 360.5,567.5C 360.5,581.167 360.5,594.833 360.5,608.5C 365.5,608.5 370.5,608.5 375.5,608.5C 370.36,609.488 365.026,609.821 359.5,609.5C 359.5,592.167 359.5,574.833 359.5,557.5 Z"/></g>
<g><path style="opacity:1" fill="#0c5994" d="M 307.5,575.5 C 307.5,586.5 307.5,597.5 307.5,608.5C 301.5,608.5 295.5,608.5 289.5,608.5C 282.819,601.149 276.486,593.483 270.5,585.5C 269.548,583.888 269.214,582.388 269.5,581C 270.328,580.085 271.328,579.419 272.5,579C 276.384,578.569 280.384,578.736 284.5,579.5C 287.605,582.275 289.938,585.608 291.5,589.5C 291.369,590.376 291.702,591.043 292.5,591.5C 293.244,586.479 294.077,581.479 295,576.5C 296.939,578.236 299.272,579.236 302,579.5C 303.261,579.241 304.261,578.574 305,577.5C 305.333,577.833 305.667,578.167 306,578.5C 306.232,577.263 306.732,576.263 307.5,575.5 Z"/></g>
<g><path style="opacity:1" fill="#014d8b" d="M 360.5,567.5 C 361.327,572.651 361.827,577.984 362,583.5C 362.333,582.5 362.667,581.5 363,580.5C 363.519,581.516 364.353,582.182 365.5,582.5C 367.136,581.696 368.636,580.696 370,579.5C 371.356,580.38 372.856,580.714 374.5,580.5C 374.183,584.702 374.517,588.702 375.5,592.5C 375.5,597.833 375.5,603.167 375.5,608.5C 370.5,608.5 365.5,608.5 360.5,608.5C 360.5,594.833 360.5,581.167 360.5,567.5 Z"/></g>
<g><path style="opacity:1" fill="#13488b" d="M 702.5,595.5 C 704.677,598.831 707.844,600.164 712,599.5C 716.682,599.215 721.182,598.215 725.5,596.5C 726.293,600.213 726.293,603.88 725.5,607.5C 714.042,611.604 702.709,611.437 691.5,607C 689.266,605.362 687.933,603.195 687.5,600.5C 687.209,586.468 687.709,572.468 689,558.5C 689.333,560.833 689.667,563.167 690,565.5C 691.154,563.043 692.488,563.043 694,565.5C 696.167,563.833 698.333,562.167 700.5,560.5C 701.167,572.326 701.833,583.993 702.5,595.5 Z"/></g>
<g><path style="opacity:1" fill="#00528f" d="M 232.5,589.5 C 232.5,595.833 232.5,602.167 232.5,608.5C 227.5,608.5 222.5,608.5 217.5,608.5C 217.5,608.167 217.5,607.833 217.5,607.5C 217.5,605.833 217.5,604.167 217.5,602.5C 218.323,599.023 218.823,595.356 219,591.5C 219.333,591.833 219.667,592.167 220,592.5C 221.905,591.344 223.905,590.344 226,589.5C 227.537,590.114 228.87,590.114 230,589.5C 230.333,590.833 230.667,592.167 231,593.5C 231.21,591.942 231.71,590.609 232.5,589.5 Z"/></g>
<g><path style="opacity:1" fill="#073a7e" d="M 665.5,584.5 C 665.5,592.5 665.5,600.5 665.5,608.5C 660.5,608.5 655.5,608.5 650.5,608.5C 650.5,599.833 650.5,591.167 650.5,582.5C 655.991,579.478 660.991,580.145 665.5,584.5 Z"/></g>
<g><path style="opacity:1" fill="#014b8d" d="M 324.5,588.5 C 325.222,588.918 325.722,589.584 326,590.5C 326.333,589.833 326.667,589.167 327,588.5C 330.797,589.574 334.63,590.574 338.5,591.5C 338.5,597.167 338.5,602.833 338.5,608.5C 333.833,608.5 329.167,608.5 324.5,608.5C 324.5,601.833 324.5,595.167 324.5,588.5 Z"/></g>
<g><path style="opacity:1" fill="#245695" d="M 428.5,588.5 C 428.205,590.735 428.539,592.735 429.5,594.5C 431.675,598.255 435.009,599.921 439.5,599.5C 443.7,599.322 447.7,598.322 451.5,596.5C 453.13,599.981 454.13,603.648 454.5,607.5C 445.02,610.25 435.353,611.083 425.5,610C 420.751,608.746 417.418,605.912 415.5,601.5C 415.305,597.085 415.805,592.751 417,588.5C 420.59,588.885 423.923,589.885 427,591.5C 427.232,590.263 427.732,589.263 428.5,588.5 Z"/></g>
<g><path style="opacity:1" fill="#0c4488" d="M 552.5,562.5 C 553.326,566.982 553.826,571.649 554,576.5C 554.333,575.833 554.667,575.167 555,574.5C 558.577,573.922 562.244,573.922 566,574.5C 566.333,573.167 566.667,571.833 567,570.5C 567.17,579.676 567.67,588.676 568.5,597.5C 581.171,597.667 593.838,597.5 606.5,597C 612.984,596.934 617.651,594.101 620.5,588.5C 621.533,587.088 622.199,585.422 622.5,583.5C 621.437,580.483 621.604,577.483 623,574.5C 623.414,574.957 623.914,575.291 624.5,575.5C 627.426,571.538 630.259,571.538 633,575.5C 633.278,574.584 633.778,573.918 634.5,573.5C 639.64,581.206 639.807,589.206 635,597.5C 628.873,604.714 621.04,608.38 611.5,608.5C 591.833,608.5 572.167,608.5 552.5,608.5C 552.5,593.167 552.5,577.833 552.5,562.5 Z"/></g>
<g><path style="opacity:1" fill="#1c468a" d="M 510.5,605.5 C 506.262,615.645 501.262,625.312 495.5,634.5C 490.056,635.108 485.056,634.442 480.5,632.5C 484.234,624.7 488.234,617.033 492.5,609.5C 493.743,607.036 494.743,604.37 495.5,601.5C 498.248,600.187 501.081,599.187 504,598.5C 505.676,599.061 507.009,600.061 508,601.5C 508.667,600.833 509.333,600.167 510,599.5C 509.207,601.5 509.374,603.5 510.5,605.5 Z"/></g>
<g><path style="opacity:0.502" fill="#cbd1e5" d="M 480.5,632.5 C 485.056,634.442 490.056,635.108 495.5,634.5C 490.36,635.488 485.026,635.821 479.5,635.5C 479.263,634.209 479.596,633.209 480.5,632.5 Z"/></g>
</svg>
