<svg xmlns="http://www.w3.org/2000/svg" width="1024" height="1024" viewBox="0 0 1024 1024" version="1.1"><path d="M 499.750 110.745 C 504.837 110.927, 513.162 110.927, 518.250 110.745 C 523.337 110.564, 519.175 110.415, 509 110.415 C 498.825 110.415, 494.662 110.564, 499.750 110.745 M 468.500 113 C 465.133 113.603, 464.975 113.727, 467.500 113.784 C 469.150 113.821, 472.525 113.491, 475 113.051 C 479.038 112.333, 479.140 112.252, 476 112.267 C 474.075 112.276, 470.700 112.606, 468.500 113 M 420 124.500 C 416.425 125.789, 413.975 126.879, 414.555 126.922 C 415.136 126.965, 418.736 125.908, 422.555 124.574 C 426.375 123.240, 428.825 122.151, 428 122.153 C 427.175 122.155, 423.575 123.211, 420 124.500 M 599.500 124 C 602.250 125.015, 605.175 125.845, 606 125.845 C 606.825 125.845, 605.250 125.015, 602.500 124 C 599.750 122.985, 596.825 122.155, 596 122.155 C 595.175 122.155, 596.750 122.985, 599.500 124 M 611.504 127.853 C 613.706 128.874, 616.631 130, 618.004 130.356 C 619.377 130.712, 618.698 130.168, 616.496 129.147 C 614.294 128.126, 611.369 127, 609.996 126.644 C 608.623 126.288, 609.302 126.832, 611.504 127.853 M 406.503 129.135 C 401.053 131.344, 399.015 132.706, 402.996 131.479 C 406.672 130.345, 413.661 127.144, 412.500 127.125 C 411.950 127.116, 409.251 128.021, 406.503 129.135 M 635.083 137.385 C 636.101 138.323, 654 146.968, 654 146.520 C 654 145.965, 636.441 137, 635.353 137 C 634.976 137, 634.854 137.173, 635.083 137.385 M 371.750 145.064 C 368.587 146.696, 366 148.256, 366 148.530 C 366 148.805, 368.700 147.666, 372 146 C 375.300 144.334, 378 142.753, 378 142.486 C 378 141.819, 378.185 141.742, 371.750 145.064 M 662 151.337 C 662 151.593, 663.501 152.688, 665.336 153.771 C 667.171 154.854, 669.984 156.526, 671.586 157.488 L 674.500 159.237 672 157.168 C 669.143 154.804, 662 150.639, 662 151.337 M 685 166.318 C 685 166.561, 687.587 168.701, 690.750 171.075 C 693.913 173.448, 695.958 174.718, 695.295 173.897 C 693.937 172.214, 685 165.635, 685 166.318 M 322 179.353 C 317.325 183.371, 312.825 187.515, 312 188.560 C 310.689 190.222, 314.931 186.665, 328 175.144 C 329.925 173.447, 331.275 172.056, 331 172.053 C 330.725 172.050, 326.675 175.335, 322 179.353 M 408 205.043 C 403.325 205.384, 438.069 205.669, 485.209 205.675 C 555.652 205.685, 571.237 205.928, 572.709 207.039 C 574.429 208.337, 574.429 208.313, 572.714 206.445 C 570.976 204.551, 568.899 204.499, 493.714 204.461 C 451.246 204.439, 412.675 204.701, 408 205.043 M 381.299 218.257 C 378.517 222.354, 375.980 228.398, 376.067 230.718 C 376.104 231.698, 376.700 230.700, 377.392 228.500 C 379.012 223.353, 380.742 220.058, 383.299 217.250 C 384.426 216.012, 384.933 215.003, 384.424 215.007 C 383.916 215.011, 382.509 216.473, 381.299 218.257 M 480.194 224.747 L 551.889 225.013 552.194 254.257 C 552.426 276.449, 552.820 283.982, 553.826 285.500 L 555.151 287.500 554.347 285.500 C 553.905 284.400, 553.309 270.225, 553.022 254 L 552.500 224.500 480.500 224.490 L 408.500 224.480 480.194 224.747 M 400.837 227.250 C 398.561 229.092, 395.994 233.223, 396.039 234.973 C 396.061 235.813, 396.688 235.100, 397.433 233.388 C 398.178 231.676, 399.820 229.314, 401.082 228.138 C 403.553 225.836, 403.377 225.195, 400.837 227.250 M 375.471 297.228 L 375.500 360.955 378.472 363.728 L 381.444 366.500 378.972 363.670 L 376.500 360.840 375.971 297.170 L 375.442 233.500 375.471 297.228 M 572 256.465 L 572 276.930 575.091 280.451 C 576.966 282.587, 579.748 284.394, 582.162 285.044 C 587.517 286.486, 621.345 285.663, 621.639 284.084 C 621.755 283.460, 621.659 283.299, 621.427 283.725 C 621.194 284.151, 611.514 284.275, 599.917 284 L 578.831 283.500 575.876 280.191 L 572.922 276.881 573.211 256.440 C 573.370 245.197, 573.163 235.998, 572.750 235.999 C 572.337 236, 572 245.209, 572 256.465 M 395.470 299.500 C 395.470 333.600, 395.596 347.695, 395.749 330.822 C 395.903 313.949, 395.903 286.049, 395.750 268.822 C 395.596 251.595, 395.470 265.400, 395.470 299.500 M 762.468 252.500 C 764.007 255.250, 765.730 257.950, 766.298 258.500 C 766.865 259.050, 766.070 257.250, 764.532 254.500 C 762.993 251.750, 761.270 249.050, 760.702 248.500 C 760.135 247.950, 760.930 249.750, 762.468 252.500 M 252.448 268.102 C 250.481 272.009, 249.035 275.368, 249.234 275.567 C 249.433 275.767, 251.258 272.570, 253.290 268.465 C 255.321 264.359, 256.768 261, 256.504 261 C 256.241 261, 254.416 264.196, 252.448 268.102 M 771.705 269.472 C 773.182 272.482, 774.557 274.776, 774.762 274.571 C 775.211 274.122, 770.167 264, 769.494 264 C 769.234 264, 770.229 266.462, 771.705 269.472 M 641 275.500 C 646.203 280.725, 650.685 285, 650.960 285 C 651.235 285, 647.203 280.725, 642 275.500 C 636.797 270.275, 632.315 266, 632.040 266 C 631.765 266, 635.797 270.275, 641 275.500 M 654 314.066 L 654 338.133 643.998 337.816 C 638.497 337.642, 633.997 337.837, 633.998 338.250 C 633.999 338.663, 638.725 339, 644.500 339 L 655 339 655 314.500 C 655 301.025, 654.775 290, 654.500 290 C 654.225 290, 654 300.830, 654 314.066 M 591.750 304.748 C 599.587 304.917, 612.413 304.917, 620.250 304.748 C 628.087 304.579, 621.675 304.441, 606 304.441 C 590.325 304.441, 583.913 304.579, 591.750 304.748 M 469.500 358 C 474.979 363.500, 479.687 368, 479.962 368 C 480.237 368, 475.979 363.500, 470.500 358 C 465.021 352.500, 460.313 348, 460.038 348 C 459.763 348, 464.021 352.500, 469.500 358 M 224.480 361.346 C 224.097 364.923, 223.982 368.446, 224.225 369.174 C 224.468 369.903, 224.976 367.171, 225.354 363.104 C 225.732 359.036, 225.846 355.513, 225.609 355.275 C 225.371 355.037, 224.863 357.769, 224.480 361.346 M 443.217 358.113 C 443.597 359.202, 472.262 388.071, 472.614 387.719 C 472.766 387.567, 466.150 380.661, 457.912 372.372 C 449.674 364.083, 443.061 357.667, 443.217 358.113 M 591.227 367.750 L 586.314 372.500 590.907 368.596 C 597.346 363.122, 597.474 363, 596.770 363 C 596.423 363, 593.929 365.137, 591.227 367.750 M 223.320 379 C 223.320 382.575, 223.502 384.038, 223.723 382.250 C 223.945 380.462, 223.945 377.538, 223.723 375.750 C 223.502 373.962, 223.320 375.425, 223.320 379 M 625.750 373.723 C 627.538 373.945, 630.462 373.945, 632.250 373.723 C 634.038 373.502, 632.575 373.320, 629 373.320 C 625.425 373.320, 623.962 373.502, 625.750 373.723 M 801.336 382 C 801.336 386.125, 801.513 387.813, 801.728 385.750 C 801.944 383.688, 801.944 380.313, 801.728 378.250 C 801.513 376.188, 801.336 377.875, 801.336 382 M 601.660 384.955 C 599.694 387.130, 597.167 390.712, 596.043 392.915 C 592.884 399.108, 593.666 399.173, 597.066 393 C 598.733 389.975, 601.513 386.038, 603.244 384.250 C 604.976 382.462, 606.131 381, 605.813 381 C 605.494 381, 603.625 382.780, 601.660 384.955 M 361.324 387.750 C 381.577 387.901, 414.427 387.901, 434.324 387.750 C 454.221 387.598, 437.650 387.474, 397.500 387.474 C 357.350 387.475, 341.071 387.598, 361.324 387.750 M 592.225 420.250 L 592 438 630 438 L 668 438 667.783 424.750 L 667.565 411.500 667.253 424.250 L 666.940 437 629.994 437 L 593.047 437 592.748 419.750 L 592.450 402.500 592.225 420.250 M 223.328 413.500 C 223.333 417.350, 223.513 418.802, 223.730 416.728 C 223.946 414.653, 223.943 411.503, 223.722 409.728 C 223.501 407.952, 223.324 409.650, 223.328 413.500 M 394.947 407.750 L 470.393 408.013 466.447 412.256 L 462.500 416.500 466.750 412.547 C 469.087 410.373, 471 408.235, 471 407.797 C 471 407.359, 436.913 407.110, 395.250 407.244 L 319.500 407.487 394.947 407.750 M 483.508 423.750 L 467.768 440.500 482.452 425.500 C 499.247 408.345, 500.507 407, 499.779 407 C 499.487 407, 492.165 414.538, 483.508 423.750 M 572.397 422 C 572.397 429.975, 572.553 433.238, 572.743 429.250 C 572.932 425.262, 572.932 418.738, 572.743 414.750 C 572.553 410.762, 572.397 414.025, 572.397 422 M 801.310 415.500 C 801.315 418.800, 801.502 420.029, 801.725 418.232 C 801.947 416.435, 801.943 413.735, 801.715 412.232 C 801.486 410.729, 801.304 412.200, 801.310 415.500 M 687.320 426 C 687.320 429.575, 687.502 431.038, 687.723 429.250 C 687.945 427.462, 687.945 424.538, 687.723 422.750 C 687.502 420.962, 687.320 422.425, 687.320 426 M 798.150 439.650 C 797.467 444.375, 797.103 448.437, 797.342 448.676 C 797.581 448.914, 798.350 445.258, 799.050 440.550 C 799.750 435.842, 800.114 431.781, 799.858 431.524 C 799.602 431.268, 798.833 434.925, 798.150 439.650 M 376.466 488 C 376.466 517.975, 376.594 530.237, 376.749 515.250 C 376.905 500.262, 376.905 475.737, 376.749 460.750 C 376.594 445.762, 376.466 458.025, 376.466 488 M 395.465 485.500 C 395.465 514.100, 395.593 525.656, 395.749 511.180 C 395.906 496.704, 395.906 473.304, 395.749 459.180 C 395.593 445.056, 395.465 456.900, 395.465 485.500 M 568.218 459.750 C 566.670 461.262, 566.474 461.600, 567.782 460.500 C 570.086 458.562, 572.015 458.484, 629.830 457.984 L 689.500 457.469 630.266 457.234 L 571.032 457 568.218 459.750 M 715.226 502.500 C 715.087 527.250, 714.741 548.625, 714.458 550 L 713.944 552.500 714.982 550.136 C 715.663 548.585, 715.927 532.243, 715.750 502.636 L 715.479 457.500 715.226 502.500 M 543.457 502 C 543.457 524.825, 543.588 534.163, 543.749 522.750 C 543.909 511.338, 543.909 492.663, 543.749 481.250 C 543.588 469.838, 543.457 479.175, 543.457 502 M 694.564 463.711 C 695.892 466.473, 696.065 472.455, 695.804 506.531 C 695.637 528.316, 695.793 545.096, 696.150 543.820 C 696.508 542.544, 696.845 524.337, 696.900 503.361 C 696.996 466.670, 696.924 465.132, 695.011 462.861 L 693.021 460.500 694.564 463.711 M 563.455 505.500 C 563.455 526.950, 563.587 535.583, 563.749 524.684 C 563.911 513.785, 563.910 496.235, 563.748 485.684 C 563.587 475.133, 563.454 484.050, 563.455 505.500 M 638.543 479.863 C 641.925 481.926, 647 487.555, 647 489.243 C 647 489.843, 647.290 490.043, 647.644 489.689 C 649.256 488.077, 639.584 477.991, 636.438 478.004 C 635.922 478.006, 636.869 478.842, 638.543 479.863 M 646.537 502.884 C 646.182 504.003, 644.116 506.324, 641.946 508.043 L 638 511.168 638.198 521.834 L 638.395 532.500 638.948 521.891 C 639.494 511.406, 639.538 511.250, 642.773 508.533 C 646.150 505.696, 648.532 502.199, 647.672 501.339 C 647.403 501.070, 646.892 501.765, 646.537 502.884 M 619.355 520.500 C 619.352 525.450, 619.521 527.601, 619.731 525.280 C 619.940 522.959, 619.943 518.909, 619.736 516.280 C 619.530 513.651, 619.358 515.550, 619.355 520.500 M 772.212 520.538 C 769.903 525.192, 768.231 529, 768.496 529 C 769.162 529, 777.212 512.878, 776.767 512.434 C 776.570 512.237, 774.520 515.883, 772.212 520.538 M 694 547.757 C 694 549.445, 688.925 555.074, 685.543 557.137 C 683.869 558.158, 683.061 558.994, 683.747 558.996 C 686.576 559.005, 696.057 548.724, 694.581 547.248 C 694.261 546.928, 694 547.157, 694 547.757 M 437.322 548.750 C 454.274 548.903, 481.724 548.903, 498.322 548.749 C 514.920 548.595, 501.050 548.470, 467.500 548.470 C 433.950 548.470, 420.370 548.596, 437.322 548.750 M 545.010 550.783 C 544.995 552.675, 549.757 561.735, 551.231 562.621 C 552.232 563.223, 552.247 563.071, 551.301 561.900 C 550.641 561.085, 548.958 557.961, 547.560 554.958 C 546.163 551.956, 545.015 550.077, 545.010 550.783 M 568.500 553.910 C 574.112 560.152, 572.750 560.023, 630.218 559.771 L 682.500 559.542 628.500 558.991 C 598.800 558.688, 574.389 558.340, 574.253 558.220 C 574.117 558.099, 572.092 556.329, 569.753 554.286 C 565.597 550.658, 565.569 550.649, 568.500 553.910 M 529.054 558.124 C 529.024 559.018, 529.661 561.621, 530.468 563.909 L 531.936 568.069 467.218 567.782 C 407.805 567.519, 402.132 567.348, 398.010 565.707 C 395.540 564.724, 393.965 564.327, 394.510 564.827 C 395.054 565.326, 397.718 566.469, 400.428 567.367 C 404.780 568.809, 412.817 569, 469.178 569 C 504.280 569, 532.993 568.888, 532.985 568.750 C 532.894 567.203, 529.093 556.930, 529.054 558.124 M 736.449 575.750 C 733.813 578.913, 729.821 583.521, 727.578 585.990 C 724.406 589.483, 724.238 589.816, 726.819 587.490 C 730.236 584.412, 742.490 570, 741.691 570 C 741.444 570, 739.086 572.587, 736.449 575.750 M 571 577.735 C 574.185 579.341, 579.130 579.526, 626 579.789 C 654.325 579.948, 679.208 579.723, 681.295 579.289 C 683.382 578.855, 661.602 578.635, 632.894 578.800 C 584.911 579.077, 577.294 578.806, 569.498 576.549 C 568.399 576.231, 569.075 576.765, 571 577.735 M 298 587.500 C 300.987 590.525, 303.657 593, 303.932 593 C 304.207 593, 301.987 590.525, 299 587.500 C 296.013 584.475, 293.343 582, 293.068 582 C 292.793 582, 295.013 584.475, 298 587.500 M 712.500 601.664 C 702.606 611.184, 702.405 611.442, 710.500 604.226 C 719.167 596.500, 724.812 590.956, 723.924 591.040 C 723.691 591.062, 718.550 595.843, 712.500 601.664 M 307.036 597.358 C 321.111 610.410, 334 621.573, 334 620.710 C 334 620.448, 330.962 617.661, 327.250 614.517 C 323.538 611.372, 317.520 605.920, 313.877 602.400 C 310.234 598.880, 306.875 596, 306.413 596 C 305.950 596, 306.230 596.611, 307.036 597.358 M 692.972 618.335 C 680.438 628.599, 679.348 629.522, 680.444 628.934 C 684.404 626.811, 702.788 611.648, 700.872 612.085 C 700.668 612.132, 697.112 614.944, 692.972 618.335 M 343 627.492 C 343 628.008, 355.597 636.506, 361.500 639.972 C 363.700 641.263, 365.050 641.870, 364.500 641.320 C 363.030 639.850, 343 626.967, 343 627.492 M 667.240 636.926 C 659.107 642.259, 656.388 644.591, 662.500 640.992 C 668.162 637.658, 675 632.986, 675 632.452 C 675 631.818, 675.259 631.669, 667.240 636.926 M 371 645.471 C 371 645.746, 373.700 647.334, 377 649 C 380.300 650.666, 383 651.804, 383 651.529 C 383 651.254, 380.300 649.666, 377 648 C 373.700 646.334, 371 645.196, 371 645.471 M 489.768 681.725 C 491.565 681.947, 494.265 681.943, 495.768 681.715 C 497.271 681.486, 495.800 681.304, 492.500 681.310 C 489.200 681.315, 487.971 681.502, 489.768 681.725 M 508.789 682.741 C 512.248 682.937, 517.648 682.936, 520.789 682.738 C 523.930 682.540, 521.100 682.380, 514.500 682.382 C 507.900 682.384, 505.330 682.546, 508.789 682.741 M 254.250 733.728 C 256.313 733.944, 259.688 733.944, 261.750 733.728 C 263.813 733.513, 262.125 733.336, 258 733.336 C 253.875 733.336, 252.188 733.513, 254.250 733.728 M 805.250 733.728 C 807.313 733.944, 810.688 733.944, 812.750 733.728 C 814.813 733.513, 813.125 733.336, 809 733.336 C 804.875 733.336, 803.188 733.513, 805.250 733.728 M 268.883 735.080 C 271.154 735.989, 271.242 736.369, 270.759 743.122 C 270.464 747.248, 270.611 749.644, 271.111 748.855 C 271.583 748.110, 271.976 744.736, 271.985 741.357 C 272 735.232, 271.195 733.872, 267.668 734.063 C 267.026 734.098, 267.572 734.556, 268.883 735.080 M 85.241 791.750 L 85.482 844.500 85.750 792.184 L 86.018 739.868 95.917 740.184 C 101.361 740.358, 105.605 740.163, 105.349 739.750 C 105.092 739.337, 100.409 739, 94.941 739 L 85 739 85.241 791.750 M 153 775.023 C 153 800.486, 152.684 810.923, 151.926 810.454 C 151.336 810.089, 151.448 810.745, 152.176 811.911 C 153.292 813.698, 153.541 808.205, 153.762 777.016 L 154.024 740 162.939 740 C 170.566 740, 171.928 740.253, 172.369 741.750 C 172.771 743.112, 172.840 743.056, 172.681 741.500 C 172.494 739.673, 171.634 739.475, 162.738 739.214 L 153 738.928 153 775.023 M 450.323 739.750 L 489.146 740.024 488.823 748.420 C 488.645 753.037, 488.837 756.606, 489.250 756.349 C 489.663 756.092, 490 752.084, 490 747.441 L 490 739 450.750 739.238 L 411.500 739.476 450.323 739.750 M 187.125 746.234 C 187.030 749.063, 187.667 750.651, 189.750 752.782 C 191.262 754.330, 191.630 754.557, 190.566 753.288 C 189.502 752.018, 188.321 749.071, 187.941 746.740 L 187.250 742.500 187.125 746.234 M 298.500 745.375 L 290.500 747.620 290.214 757.310 L 289.928 767 283.964 767 L 278 767 278 774.950 L 278 782.900 283.750 783.200 L 289.500 783.500 290.039 806 L 290.577 828.500 290.539 805.500 L 290.500 782.500 284.750 782.200 L 279 781.900 279 774.950 L 279 768 284.964 768 L 290.928 768 291.214 758.280 L 291.500 748.559 299 746.354 C 303.125 745.141, 307.063 744.115, 307.750 744.074 C 308.685 744.019, 309 747.027, 309 756 L 309 768 318.458 768 L 327.916 768 328.257 775.750 L 328.598 783.500 328.799 775.250 L 329 767 319.532 767 L 310.063 767 309.782 755.262 C 309.553 745.727, 309.218 743.487, 308 743.327 C 307.175 743.218, 302.900 744.140, 298.500 745.375 M 254.455 752.455 C 253.105 753.805, 252.041 755.942, 252.090 757.205 C 252.161 758.996, 252.390 758.771, 253.136 756.182 C 253.803 753.869, 255.062 752.443, 257.296 751.471 C 259.258 750.618, 259.804 750.063, 258.705 750.039 C 257.717 750.018, 255.805 751.105, 254.455 752.455 M 232 760.500 L 232 767 226 767 L 220 767 220 775 L 220 783 225.980 783 L 231.959 783 232.251 803.750 L 232.543 824.500 232.771 803.250 L 233 782 227 782 L 221 782 221 775 L 221 768 227 768 L 233 768 233 761 C 233 757.150, 232.775 754, 232.500 754 C 232.225 754, 232 756.925, 232 760.500 M 440.239 799.750 L 440 844 450 844 L 460 844 459.761 799.750 L 459.522 755.500 459.250 799.250 L 458.979 843 450 843 L 441.021 843 440.750 799.250 L 440.478 755.500 440.239 799.750 M 802.185 762.250 L 802 768 812 768 L 822 768 822 774.964 L 822 781.928 812.250 782.214 L 802.500 782.500 802.235 812.713 L 801.971 842.925 792.735 843.255 L 783.500 843.585 793.250 843.792 L 803 844 803 813.500 L 803 783 813 783 L 823 783 823 775 L 823 767 813.052 767 L 803.105 767 802.737 761.750 L 802.370 756.500 802.185 762.250 M 251.404 765 C 251.498 767.458, 251.656 767.505, 260.750 767.788 L 270 768.075 270 775.038 L 270 782 261 782 C 256.050 782, 251.999 782.337, 251.998 782.750 C 251.997 783.163, 256.272 783.357, 261.498 783.181 L 271 782.863 271 774.931 L 271 767 261.566 767 C 252.572 767, 252.114 766.895, 251.720 764.750 C 251.361 762.792, 251.320 762.825, 251.404 765 M 570.728 765.722 C 572.503 765.943, 575.653 765.946, 577.728 765.730 C 579.802 765.513, 578.350 765.333, 574.500 765.328 C 570.650 765.324, 568.952 765.501, 570.728 765.722 M 657.083 765.366 C 657.313 765.567, 661.325 765.954, 666 766.226 C 670.675 766.498, 673.375 766.378, 672 765.960 C 669.503 765.200, 656.295 764.674, 657.083 765.366 M 727.500 765.497 C 728.050 765.683, 732.550 766.031, 737.500 766.269 C 742.450 766.508, 745.375 766.365, 744 765.951 C 741.620 765.235, 725.411 764.789, 727.500 765.497 M 858.728 765.722 C 860.503 765.943, 863.653 765.946, 865.728 765.730 C 867.802 765.513, 866.350 765.333, 862.500 765.328 C 858.650 765.324, 856.952 765.501, 858.728 765.722 M 948.450 765.716 L 953.911 766.097 954.274 772.299 L 954.637 778.500 954.568 772 L 954.500 765.500 948.745 765.418 L 942.990 765.336 948.450 765.716 M 718.250 767.973 C 715.913 769.034, 714 770.124, 714 770.395 C 714 770.666, 715.913 770.066, 718.250 769.061 C 720.587 768.056, 723.175 766.992, 724 766.696 C 725.333 766.218, 725.333 766.152, 724 766.101 C 723.175 766.070, 720.587 766.912, 718.250 767.973 M 198.750 767.745 L 208 768.075 208 805.500 L 208 842.925 198.750 843.255 L 189.500 843.585 199.250 843.792 L 209 844 209 805.500 L 209 767 199.250 767.208 L 189.500 767.415 198.750 767.745 M 334.998 767.750 C 334.997 768.163, 339.457 768.358, 344.910 768.185 C 354.299 767.888, 354.860 767.984, 355.503 770.011 C 356.383 772.781, 357.099 772.095, 356.344 769.206 C 355.795 767.110, 355.249 767, 345.383 767 C 339.673 767, 334.999 767.337, 334.998 767.750 M 401.768 767.725 C 403.565 767.947, 406.265 767.943, 407.768 767.715 C 409.271 767.486, 407.800 767.304, 404.500 767.310 C 401.200 767.315, 399.971 767.502, 401.768 767.725 M 491 805.392 L 491 843.858 500.104 844.179 C 505.111 844.356, 509.661 844.217, 510.215 843.872 C 511.279 843.209, 510.655 806.322, 509.562 805.228 C 509.240 804.907, 509.036 813.274, 509.109 823.821 C 509.181 834.369, 508.961 842.999, 508.620 842.999 C 508.279 843, 504.400 843, 500 843 L 492 843 492 805.500 L 492 768 500.430 768 C 507.634 768, 508.922 768.255, 509.279 769.750 C 509.597 771.082, 509.673 771.022, 509.598 769.500 C 509.509 767.673, 508.699 767.475, 500.250 767.212 L 491 766.925 491 805.392 M 623 805.500 L 623 844 633 844 L 643 844 642.804 836.750 L 642.608 829.500 642.258 836.250 L 641.909 843 632.954 843 L 624 843 624 805.500 L 624 768 632.430 768 C 640.378 768, 640.886 768.129, 641.294 770.250 C 641.666 772.179, 641.747 772.108, 641.864 769.750 L 642 767 632.500 767 L 623 767 623 805.500 M 774.750 767.723 C 776.538 767.945, 779.462 767.945, 781.250 767.723 C 783.038 767.502, 781.575 767.320, 778 767.320 C 774.425 767.320, 772.962 767.502, 774.750 767.723 M 909 805.500 L 909 844 919 844 L 929 844 928.770 821.250 L 928.540 798.500 928.251 820.750 L 927.962 843 918.981 843 L 910 843 910 805.500 L 910 768 918.448 768 L 926.895 768 927.198 773.250 L 927.500 778.500 929.500 775.166 C 930.600 773.333, 933.300 770.750, 935.500 769.426 C 937.700 768.102, 939.050 767.018, 938.500 767.016 C 936.917 767.012, 931.735 770.705, 929.805 773.213 L 928.044 775.500 928.022 771.250 L 928 767 918.500 767 L 909 767 909 805.500 M 841.253 771.932 C 837.458 774.681, 833.180 779.586, 831.601 783 C 831.220 783.825, 831.703 783.375, 832.676 782 C 835.043 778.655, 840.910 772.840, 844 770.775 C 845.375 769.857, 846.230 769.081, 845.900 769.052 C 845.570 769.024, 843.479 770.319, 841.253 771.932 M 685.455 776.495 C 687.357 779.654, 689.156 784.097, 689.453 786.369 C 689.750 788.641, 690.181 792.075, 690.412 794 C 690.643 795.925, 690.709 794.305, 690.560 790.400 C 690.348 784.848, 689.676 782.175, 687.476 778.133 C 685.929 775.291, 684.063 772.468, 683.330 771.859 C 682.597 771.250, 683.553 773.337, 685.455 776.495 M 104 807.401 L 104 842.919 95.750 843.256 L 87.500 843.593 96.225 843.796 L 104.950 844 105.225 808.404 C 105.376 788.826, 105.162 772.600, 104.750 772.345 C 104.338 772.090, 104 787.865, 104 807.401 M 547.299 777.250 C 546.172 778.487, 544.729 780.510, 544.092 781.745 C 543.057 783.754, 543.280 784.200, 546.218 785.991 C 548.023 787.092, 549.950 787.974, 550.500 787.952 C 551.050 787.930, 549.805 787.017, 547.732 785.923 C 544.324 784.124, 544.074 783.723, 545.107 781.717 C 545.736 780.498, 547.172 778.487, 548.299 777.250 C 549.426 776.013, 550.124 775, 549.849 775 C 549.574 775, 548.426 776.013, 547.299 777.250 M 535.168 779.550 C 535.076 781.778, 534.460 784.140, 533.800 784.800 C 532.867 785.733, 532.874 786, 533.831 786 C 535.573 786, 536.197 783.823, 535.735 779.355 L 535.336 775.500 535.168 779.550 M 567.165 781.877 C 566.384 782.372, 568.044 782.540, 571.165 782.282 C 578.493 781.677, 579.488 781.170, 573.500 781.094 C 570.750 781.059, 567.899 781.411, 567.165 781.877 M 309.218 802.750 L 309.436 823.500 309.968 803.500 L 310.500 783.500 319 782.936 L 327.500 782.373 318.250 782.186 L 309 782 309.218 802.750 M 651.421 783.896 C 647.424 785.712, 642.996 790.177, 643.004 792.385 C 643.006 792.998, 643.886 792.059, 644.960 790.299 C 647.187 786.645, 651.290 784.238, 657.326 783.044 C 660.848 782.348, 661.031 782.205, 658.500 782.132 C 656.850 782.083, 653.665 782.878, 651.421 783.896 M 777.735 782.713 L 783.970 783.095 784.258 812.297 L 784.545 841.500 784.522 812 L 784.500 782.500 778 782.416 L 771.500 782.331 777.735 782.713 M 875.810 789.261 C 877.289 792.155, 878.652 794.174, 878.838 793.749 C 879.174 792.977, 874.275 784, 873.518 784 C 873.298 784, 874.330 786.368, 875.810 789.261 M 143.596 798.750 C 148.541 806.466, 152.900 812.351, 150.448 808 C 148.033 803.715, 138.920 790, 138.488 790 C 138.213 790, 140.512 793.938, 143.596 798.750 M 605.974 817.623 C 605.662 835.488, 605.841 844.616, 606.500 844.364 C 607.128 844.123, 607.405 837.385, 607.244 826.240 C 606.759 792.685, 606.446 790.562, 605.974 817.623 M 510.975 794.565 C 510.439 795.976, 510.053 798.563, 510.118 800.315 C 510.213 802.888, 510.387 802.597, 511.028 798.800 C 511.463 796.215, 512.112 793.628, 512.469 793.050 C 512.826 792.473, 512.855 792, 512.534 792 C 512.213 792, 511.512 793.154, 510.975 794.565 M 642.310 799.500 C 642.315 802.800, 642.502 804.029, 642.725 802.232 C 642.947 800.435, 642.943 797.735, 642.715 796.232 C 642.486 794.729, 642.304 796.200, 642.310 799.500 M 844.998 796.250 C 844.999 796.663, 852.763 796.915, 862.250 796.811 C 879.843 796.618, 877.804 796.229, 856.748 795.761 C 850.284 795.618, 844.997 795.837, 844.998 796.250 M 826.365 805.500 C 826.368 811, 826.536 813.122, 826.738 810.216 C 826.941 807.311, 826.939 802.811, 826.734 800.216 C 826.528 797.622, 826.363 800, 826.365 805.500 M 572.287 797.740 C 575.469 797.939, 580.419 797.937, 583.287 797.736 C 586.154 797.535, 583.550 797.372, 577.500 797.374 C 571.450 797.376, 569.104 797.541, 572.287 797.740 M 672.429 819.500 C 672.429 832.150, 672.573 837.187, 672.747 830.694 C 672.922 824.200, 672.921 813.850, 672.746 807.694 C 672.571 801.537, 672.428 806.850, 672.429 819.500 M 690.310 803.500 C 690.315 806.800, 690.502 808.029, 690.725 806.232 C 690.947 804.435, 690.943 801.735, 690.715 800.232 C 690.486 798.729, 690.304 800.200, 690.310 803.500 M 551.500 801.871 C 549.850 802.895, 547.379 805.031, 546.009 806.617 C 543.608 809.397, 543.643 809.389, 547.009 806.367 C 548.929 804.643, 551.850 802.524, 553.500 801.657 C 555.150 800.790, 556.050 800.064, 555.500 800.044 C 554.950 800.024, 553.150 800.846, 551.500 801.871 M 896.935 804 L 896.500 808.500 870.250 808.767 L 844 809.033 844.116 811.267 C 844.204 812.959, 844.343 813.076, 844.689 811.750 C 845.110 810.140, 847.221 810, 871.054 810 L 896.962 810 897.559 807.621 C 897.887 806.312, 897.979 803.950, 897.763 802.371 C 897.452 800.101, 897.279 800.443, 896.935 804 M 579.690 810.743 L 587.879 811.079 588.280 814.289 C 588.668 817.402, 588.685 817.386, 588.840 813.750 L 589 810 580.250 810.204 L 571.500 810.407 579.690 810.743 M 375.889 816.055 L 374.563 821.228 372.784 817.364 C 370.923 813.322, 371.396 816.369, 373.413 821.417 C 374.575 824.324, 374.586 824.311, 376.329 818.040 C 377.292 814.578, 377.885 811.551, 377.647 811.314 C 377.410 811.076, 376.618 813.210, 375.889 816.055 M 763.328 820.500 C 763.333 824.350, 763.513 825.802, 763.730 823.728 C 763.946 821.653, 763.943 818.503, 763.722 816.728 C 763.501 814.952, 763.324 816.650, 763.328 820.500 M 540.070 821.583 C 540.109 824.288, 540.510 827.400, 540.962 828.500 C 541.444 829.674, 541.565 827.817, 541.256 824 C 540.619 816.138, 539.974 814.822, 540.070 821.583 M 140.106 825.750 C 144.991 833.078, 148.364 837.451, 146.470 834 C 144.645 830.676, 135.906 818, 135.439 818 C 135.164 818, 137.264 821.487, 140.106 825.750 M 709.862 821.763 C 708.656 823.301, 708.684 823.356, 710.109 822.245 C 711.429 821.214, 712.145 821.322, 714.109 822.846 C 716.897 825.010, 721 827.265, 721 826.634 C 721 826.394, 719.313 825.148, 717.250 823.865 C 715.188 822.582, 712.988 821.194, 712.362 820.779 C 711.724 820.357, 710.625 820.790, 709.862 821.763 M 879.500 824.588 L 876.500 827.165 879.821 824.964 L 883.143 822.762 886.321 825.631 L 889.500 828.500 886.563 825.250 C 884.948 823.462, 883.373 822.002, 883.063 822.005 C 882.753 822.008, 881.150 823.170, 879.500 824.588 M 832.699 829.795 C 833.681 831.607, 835.818 834.307, 837.447 835.795 L 840.410 838.500 837.455 834.976 C 835.830 833.038, 833.693 830.338, 832.706 828.976 C 830.979 826.592, 830.979 826.622, 832.699 829.795 M 702.063 833.131 C 702.029 834.029, 703.462 835.860, 705.250 837.202 C 709.969 840.745, 711.996 841.645, 708.500 838.646 C 706.850 837.230, 705.148 836.056, 704.718 836.036 C 704.288 836.016, 703.529 834.987, 703.031 833.750 C 702.416 832.221, 702.106 832.023, 702.063 833.131 M 384.063 841.563 C 382.889 844.698, 382.104 847.437, 382.317 847.650 C 382.530 847.863, 383.653 845.461, 384.813 842.313 C 385.972 839.164, 386.758 836.425, 386.558 836.225 C 386.359 836.025, 385.236 838.427, 384.063 841.563 M 587.558 836.907 C 587.250 837.405, 584.896 839.205, 582.327 840.907 C 579.759 842.608, 578.117 844, 578.679 844 C 579.240 844, 581.538 842.668, 583.785 841.041 C 587.335 838.469, 587.928 838.306, 588.319 839.791 C 588.582 840.793, 588.816 840.363, 588.884 838.750 C 589.003 835.932, 588.549 835.302, 587.558 836.907 M 752.102 840.641 C 750.813 841.544, 747.901 842.864, 745.630 843.574 C 743.358 844.285, 742.302 844.896, 743.282 844.933 C 745.458 845.015, 750.786 842.775, 753.500 840.639 C 756.150 838.552, 755.083 838.553, 752.102 840.641 M 842 839.611 C 842 839.886, 844.587 841.299, 847.750 842.752 C 854.029 845.636, 867.522 846.984, 873.763 845.350 C 876.087 844.742, 873.642 844.496, 865.263 844.498 C 854.576 844.500, 852.974 844.253, 847.750 841.805 C 844.587 840.323, 842 839.336, 842 839.611 M 326.500 843.138 C 322.746 844.543, 319.506 844.926, 313.500 844.676 C 309.100 844.492, 304.600 844.033, 303.500 843.656 C 302.400 843.279, 302.850 843.631, 304.500 844.440 C 310.159 847.213, 329.361 845.460, 331.516 841.974 C 331.847 841.438, 331.979 841.060, 331.809 841.134 C 331.639 841.207, 329.250 842.109, 326.500 843.138 M 151.884 843.288 C 152.320 843.722, 157.137 843.944, 162.588 843.782 L 172.500 843.488 161.796 842.994 C 155.908 842.722, 151.448 842.855, 151.884 843.288 M 237.784 843.738 C 240.689 843.941, 245.189 843.939, 247.784 843.734 C 250.378 843.528, 248 843.363, 242.500 843.365 C 237 843.368, 234.878 843.536, 237.784 843.738 M 589.325 843.658 C 590.033 844.366, 603.164 844.170, 603.894 843.440 C 604.135 843.198, 600.808 843, 596.500 843 C 592.192 843, 588.963 843.296, 589.325 843.658 M 676.784 843.738 C 679.689 843.941, 684.189 843.939, 686.784 843.734 C 689.378 843.528, 687 843.363, 681.500 843.365 C 676 843.368, 673.878 843.536, 676.784 843.738 M 557.787 845.180 C 558.729 845.554, 562.650 845.859, 566.500 845.859 C 570.350 845.859, 574.271 845.554, 575.213 845.180 C 576.155 844.806, 572.234 844.500, 566.500 844.500 C 560.766 844.500, 556.845 844.806, 557.787 845.180 M 722 845.065 C 724.405 845.773, 742.542 846.199, 740.500 845.500 C 739.950 845.311, 735 844.971, 729.500 844.743 C 724 844.515, 720.625 844.660, 722 845.065 M 378.315 856.068 C 376.580 859.881, 375.373 863, 375.633 863 C 376.306 863, 382.313 849.980, 381.852 849.519 C 381.642 849.309, 380.051 852.256, 378.315 856.068 M 342.173 869.143 C 341.971 876.914, 342.176 877.086, 351.332 876.823 L 357.500 876.647 350.500 876.073 L 343.500 875.500 342.923 869 L 342.345 862.500 342.173 869.143" stroke="none" fill="#8ba4c3" fill-rule="evenodd"/><path d="M 475 113.031 C 417.804 120.801, 367.873 142.288, 325.616 177.316 C 288.760 207.867, 260.747 246.573, 242.975 291.500 C 216.870 357.492, 216.938 433.971, 243.157 498.879 C 265.658 554.582, 303.160 600.545, 353 633.504 C 421.555 678.840, 506.127 693.062, 585.238 672.559 C 657.998 653.701, 722.421 605.500, 761.072 541 C 790.246 492.316, 804.363 436.580, 801.149 382.773 C 799.317 352.109, 792.975 320.960, 783.650 296.835 C 768.809 258.435, 749.880 228.621, 720.795 197.837 C 680.981 155.697, 617.704 123.207, 558.605 114.561 C 530.387 110.432, 498.433 109.847, 475 113.031 M 407.500 204.955 C 396.949 205.638, 391.719 207.802, 385.092 214.227 C 382.667 216.577, 379.517 220.975, 378.092 224 L 375.500 229.500 375.500 295.169 L 375.500 360.838 377.926 363.420 C 381.316 367.030, 386.477 368.322, 390.073 366.462 C 396.284 363.251, 396 366.501, 396 298.593 C 396 238.229, 396.053 236.523, 398.044 232.409 C 401.816 224.617, 397.610 225, 479.346 225 L 551.889 225 552.194 254.250 C 552.486 282.153, 552.601 283.684, 554.689 287.500 C 559.076 295.516, 565.690 300.981, 573.932 303.404 C 578.322 304.694, 584.601 305, 606.682 305 L 634 305 634 322 L 634 339 644.500 339 L 655 339 655 314.644 L 655 290.288 651.558 285.894 C 649.665 283.477, 630.712 264.175, 609.441 243 L 570.767 204.500 493.633 204.436 C 451.210 204.401, 412.450 204.635, 407.500 204.955 M 573 257.100 L 573 277.200 576.400 280.600 L 579.800 284 599.700 284 C 614.248 284, 619.956 284.336, 620.922 285.250 C 622.009 286.277, 622.056 286.144, 621.187 284.500 C 620.033 282.320, 574.661 237, 573.631 237 C 573.284 237, 573 246.045, 573 257.100 M 445.589 348.077 C 443.828 350.169, 443 352.333, 443 354.840 C 443 358.248, 444.058 359.583, 457 372.500 C 464.700 380.185, 471 386.704, 471 386.987 C 471 387.269, 436.912 387.500, 395.250 387.500 C 323.466 387.500, 319.359 387.596, 316.801 389.332 C 312.979 391.925, 311.509 396.889, 313.296 401.164 C 316.116 407.912, 310.648 407.449, 394.125 408 L 469.943 408.500 462.721 416.192 C 458.750 420.422, 452.688 426.796, 449.250 430.355 C 443.527 436.281, 443.001 437.193, 443.015 441.163 C 443.033 446.032, 443.455 446.900, 446.973 449.308 C 449.791 451.237, 454.115 451.497, 457.316 449.932 C 458.517 449.344, 469.962 438.215, 482.750 425.201 C 504.222 403.349, 505.999 401.270, 505.992 398.019 C 505.984 394.774, 504.093 392.571, 481.731 369.750 L 457.479 345 452.828 345 C 448.863 345, 447.796 345.453, 445.589 348.077 M 625 353.070 C 600.431 355.238, 581.594 371.034, 574.403 395.500 C 573.027 400.181, 572.624 405.382, 572.570 419.161 L 572.500 436.822 567.458 437.457 C 561.322 438.230, 552.992 442.811, 549.681 447.234 C 543.256 455.816, 543.529 453.665, 543.194 498.500 C 542.993 525.398, 543.270 541.697, 543.998 545.889 C 546.274 558.996, 554.367 569.601, 566.776 575.734 L 574.395 579.500 628.448 579.500 L 682.500 579.500 689.273 577.161 C 700.564 573.261, 709.084 565.197, 713.657 554.080 C 715.934 548.545, 715.953 548.141, 715.954 503.500 C 715.956 460.411, 715.870 458.309, 713.925 454 C 709.828 444.925, 698.779 437.003, 690.212 436.999 L 687.500 436.998 687.363 420.700 C 687.287 411.737, 686.684 401.725, 686.023 398.452 C 682.093 378.997, 666.257 361.583, 647.078 355.624 C 637.433 352.627, 634.225 352.256, 625 353.070 M 617 375.807 C 606.765 379.967, 601.163 384.972, 596.197 394.393 C 593.596 399.327, 593.493 400.136, 593.174 418.250 L 592.844 437 629.922 437 L 667 437 667 423.684 C 667 407.474, 665.781 400.300, 661.733 392.674 C 658.172 385.966, 652.887 381.071, 645.086 377.254 C 637.821 373.699, 623.945 372.985, 617 375.807 M 383.326 427.172 C 381.326 427.705, 379.373 429.279, 378.043 431.430 C 375.956 434.807, 375.937 435.398, 376.217 489.671 L 376.500 544.500 378.835 549.241 C 381.232 554.108, 387.574 560.852, 392.641 563.921 C 401.053 569.017, 400.801 569, 469.285 569 C 526.385 569, 533.151 568.836, 532.624 567.463 C 530.871 562.894, 528.613 553.591, 528.082 548.750 C 528.037 548.337, 500.663 547.999, 467.250 547.998 C 411.416 547.997, 406.217 547.855, 403 546.248 C 395.896 542.699, 396.004 543.630, 395.998 486 C 395.993 437.149, 395.895 434.340, 394.090 431.381 C 391.795 427.617, 387.687 426.011, 383.326 427.172 M 567.766 460.917 L 564.500 463.834 564.201 503.167 C 564.036 524.800, 564.171 543.972, 564.500 545.771 C 565.245 549.840, 570.412 555.856, 574.702 557.649 C 577.278 558.725, 588.537 559, 630.018 559 C 686.584 559, 684.727 559.175, 690.128 553.339 C 695.573 547.456, 695.478 548.223, 695.810 507.500 C 695.981 486.600, 695.858 468.088, 695.536 466.362 C 695.214 464.636, 693.776 462.049, 692.339 460.612 L 689.727 458 630.379 458 L 571.032 458 567.766 460.917 M 623.791 476.988 C 614.211 479.876, 607.949 491.255, 610.944 500.331 C 611.586 502.277, 613.774 505.368, 615.806 507.202 L 619.500 510.536 619.153 518.018 C 618.671 528.385, 620.368 535.414, 623.972 537.980 C 629.223 541.719, 635.650 539.681, 637.986 533.536 C 638.544 532.069, 639 526.512, 639 521.185 L 639 511.500 642.603 508.625 C 653.718 499.756, 649.585 482.454, 635.178 477.545 C 630.226 475.858, 627.917 475.745, 623.791 476.988 M 246.637 735.465 C 242.192 737.050, 237.519 741.168, 235.251 745.500 C 234.271 747.371, 233.501 752.171, 233.206 758.250 L 232.733 768 226.866 768 L 221 768 221 775 L 221 782 226.971 782 L 232.942 782 233.221 811.750 C 233.399 830.755, 233.139 841.765, 232.500 842.235 C 231.950 842.639, 236.113 842.976, 241.750 842.985 L 252 843 252 812.500 L 252 782 261 782 L 270 782 270 775 L 270 768 261.059 768 C 256.141 768, 251.859 767.581, 251.542 767.068 C 251.226 766.556, 251.272 763.538, 251.645 760.361 C 252.137 756.177, 252.994 753.915, 254.754 752.155 C 256.981 749.928, 257.739 749.772, 263.842 750.283 L 270.500 750.840 270.824 743.423 C 271.139 736.202, 271.078 735.980, 268.509 735.003 C 264.717 733.562, 251.174 733.848, 246.637 735.465 M 796.200 736.588 C 793.344 738.011, 790.105 740.323, 789.002 741.725 C 786.046 745.482, 784 753.443, 784 761.182 L 784 768 778 768 L 772 768 772 774.952 L 772 781.905 778.250 782.202 L 784.500 782.500 784.500 812.750 L 784.500 843.001 793.235 843 L 801.971 843 802.235 812.750 L 802.500 782.500 812.250 782.214 L 822 781.928 822 774.964 L 822 768 812 768 L 802 768 802.002 762.750 C 802.004 755.896, 804.535 750.856, 808.500 749.811 C 811.828 748.934, 817.806 749.709, 819.774 751.273 C 820.475 751.830, 821.201 752.108, 821.388 751.893 C 821.574 751.677, 821.978 748.024, 822.284 743.775 L 822.842 736.050 819.171 735.031 C 817.152 734.470, 812.326 734.009, 808.446 734.006 C 802.856 734.001, 800.316 734.537, 796.200 736.588 M 193.314 736.950 C 189.399 739.337, 188 741.814, 188 746.358 C 188 750.662, 191.865 755.592, 195.943 756.488 C 200.762 757.546, 206.829 755.328, 209.042 751.699 C 211.389 747.850, 211.511 744.889, 209.483 740.967 C 206.534 735.265, 199.105 733.419, 193.314 736.950 M 86 792.107 C 86 839.211, 86.152 844.156, 87.582 843.607 C 88.452 843.273, 92.496 843, 96.569 843 L 103.975 843 104.237 807.428 L 104.500 771.857 115.947 788.678 C 122.242 797.930, 133.042 813.934, 139.947 824.243 L 152.500 842.986 162.250 842.993 L 172 843 172 791.500 L 172 740 163 740 L 154 740 154 777.162 L 154 814.324 129.312 777.162 L 104.625 740 95.312 740 L 86 740 86 792.107 M 412.513 747.750 L 412.526 755.500 426.763 755.777 L 441 756.055 441 799.527 L 441 843 450 843 L 459 843 459 799.500 L 459 756 474 756 L 489 756 489 748 L 489 740 450.750 740 L 412.500 740.001 412.513 747.750 M 299 746.354 L 291.500 748.559 291.214 758.280 L 290.928 768 284.964 768 L 279 768 279 774.950 L 279 781.900 284.750 782.200 L 290.500 782.500 291 806.500 C 291.461 828.613, 291.669 830.815, 293.650 834.500 C 297.491 841.646, 304.141 845, 314.468 845 C 320.550 845, 331.023 842.596, 330.976 841.211 C 330.962 840.820, 330.508 838.475, 329.967 836 C 327.851 826.319, 328.220 826.966, 325.423 828.029 C 320.296 829.979, 315.069 829.223, 311.923 826.077 L 309 823.154 309 802.508 L 309 781.863 318.502 782.181 L 328.004 782.500 328.002 775.250 L 328 768 318.500 768 L 309 768 309 756 C 309 747.027, 308.685 744.019, 307.750 744.074 C 307.063 744.115, 303.125 745.141, 299 746.354 M 519.074 768.651 C 515.578 770.393, 513.026 772.535, 511.627 774.901 L 509.500 778.500 509.198 773.250 L 508.895 768 500.448 768 L 492 768 492 805.500 L 492 843 500 843 C 504.400 843, 508.279 843, 508.621 842.999 C 508.962 842.999, 509.187 835.224, 509.120 825.721 C 508.962 803.166, 509.980 795.026, 513.543 790.355 C 517.114 785.673, 521.890 783.751, 528.914 784.168 L 534.500 784.500 535.162 779.500 C 535.527 776.750, 535.864 772.587, 535.912 770.250 L 536 766 530.196 766 C 525.922 766, 522.991 766.699, 519.074 768.651 M 564.500 766.886 C 556.747 768.877, 548.643 774.972, 545.364 781.278 C 543.922 784.051, 543.927 784.058, 548.919 786.371 C 551.669 787.645, 554.514 789.182, 555.243 789.786 C 556.754 791.041, 558.020 790.376, 559.596 787.500 C 561.262 784.460, 568.017 781.035, 572.384 781.016 C 582.337 780.974, 588 785.584, 588 793.728 L 588 797.720 574.220 798.216 C 559.154 798.758, 553.383 800.404, 547.624 805.804 C 537.125 815.646, 539.566 834.892, 552.215 842.001 C 555.257 843.710, 558.467 844.473, 563.951 844.787 C 573.337 845.326, 578.400 844.002, 584.356 839.454 L 589 835.908 589 839.454 L 589 843 595.918 843 C 599.723 843, 603.548 843.273, 604.418 843.607 C 605.836 844.151, 606 841.463, 606 817.656 C 606 802.233, 605.542 788.963, 604.908 786.006 C 603.360 778.790, 598.745 773.117, 591.500 769.526 C 586.359 766.977, 584.212 766.520, 576.500 766.333 C 571.550 766.213, 566.150 766.462, 564.500 766.886 M 652.155 767.809 C 649.765 768.815, 646.278 771.007, 644.405 772.679 L 641 775.720 641 771.860 L 641 768 632.500 768 L 624 768 624 805.500 L 624 843 633 843 L 642 843 642.002 818.750 C 642.003 797.659, 642.231 794.047, 643.752 791.020 C 645.812 786.918, 650.820 783.312, 655.734 782.390 C 660.852 781.430, 667.846 784.577, 670.452 789.014 C 672.370 792.279, 672.500 794.104, 672.500 817.748 L 672.500 842.996 681.794 842.998 L 691.087 843 690.508 815.118 C 690.189 799.783, 689.515 785.795, 689.010 784.034 C 687.257 777.921, 683.055 772.117, 678.416 769.398 C 672.311 765.820, 658.816 765.004, 652.155 767.809 M 719.632 768.390 C 712.868 771.252, 709.531 774.062, 707.038 779 C 704.452 784.121, 703.763 789.399, 705.050 794.235 C 707.484 803.386, 714.195 808.254, 729.500 811.969 C 734.450 813.170, 739.962 815.055, 741.750 816.158 C 744.517 817.865, 745 818.742, 745 822.059 C 745 827.500, 741.787 829.500, 733.044 829.500 C 726.543 829.500, 719.403 826.959, 713.391 822.506 C 711.373 821.011, 711.106 821.178, 707.141 826.429 C 704.864 829.446, 703 832.532, 703 833.288 C 703 835.167, 710.423 840.286, 716.500 842.598 C 720.368 844.069, 724.118 844.500, 733.063 844.500 C 744.046 844.500, 744.923 844.345, 750.563 841.403 C 759.358 836.815, 762.393 832.037, 762.846 822.062 C 763.235 813.498, 761.970 809.760, 757.153 805.230 C 753.758 802.037, 749.956 800.451, 737 796.822 C 724.327 793.273, 722 791.924, 722 788.132 C 722 783.593, 725.136 781.614, 733.038 781.168 C 739.227 780.818, 740.620 781.115, 746.715 784.083 C 750.447 785.901, 753.802 787.413, 754.172 787.444 C 754.541 787.475, 756.680 784.800, 758.924 781.500 C 763.673 774.517, 763.793 774.753, 753 769.754 C 747.397 767.159, 745.051 766.686, 736 766.326 C 726.525 765.949, 724.927 766.150, 719.632 768.390 M 851 767.513 C 841.174 770.764, 832.741 779.621, 828.797 790.832 C 827.143 795.533, 826.870 798.377, 827.197 807.500 C 827.535 816.937, 827.977 819.299, 830.309 824.124 C 834.353 832.495, 839.879 838.211, 847.192 841.587 C 853.029 844.283, 854.359 844.497, 865 844.454 C 875.361 844.413, 877.047 844.145, 882.018 841.742 C 885.052 840.275, 889.009 837.554, 890.811 835.695 L 894.086 832.316 888.623 827.649 L 883.161 822.983 878.210 826.060 C 869.893 831.230, 859.400 831.557, 852.790 826.851 C 849.316 824.377, 845.366 817.688, 844.463 812.750 L 843.777 809 869.920 809 C 893.496 809, 896.126 808.835, 896.708 807.318 C 897.772 804.546, 895.213 790.145, 892.670 784.590 C 887.161 772.557, 878.198 766.850, 864 766.334 C 858.388 766.130, 853.971 766.530, 851 767.513 M 937.234 768.571 C 933.952 770.206, 931.244 772.479, 929.788 774.821 L 927.500 778.500 927.198 773.250 L 926.895 768 918.448 768 L 910 768 910 805.500 L 910 843 919 843 L 928 843 928.006 821.750 C 928.009 809.417, 928.471 798.842, 929.108 796.549 C 931.638 787.438, 937.865 783.293, 947.527 784.291 L 952.766 784.831 953.372 781.166 C 953.705 779.150, 953.983 774.913, 953.989 771.750 L 954 766 948.196 766 C 943.968 766, 940.993 766.698, 937.234 768.571 M 393.494 768.010 C 392.293 769.953, 379.404 807.768, 375.116 821.928 C 374.534 823.853, 372.764 819.604, 366.579 801.428 C 362.287 788.818, 357.894 776.138, 356.816 773.250 L 354.856 768 345.321 768 C 336.640 768, 335.849 768.157, 336.485 769.750 C 336.870 770.712, 338.895 776.225, 340.985 782 C 343.076 787.775, 347.343 799.025, 350.468 807 C 362.217 836.984, 364.216 843.035, 363.549 846.588 C 362.207 853.745, 354.509 859.444, 347.681 858.336 C 344.507 857.821, 344.031 858.028, 343.496 860.158 C 343.165 861.480, 343.030 865.473, 343.197 869.031 L 343.500 875.500 351.500 875.500 C 367.367 875.499, 373.638 869.470, 382.672 845.531 C 400.575 798.088, 411.001 769.763, 410.992 768.591 C 410.982 767.343, 394.250 766.787, 393.494 768.010 M 190.036 805.500 L 190.136 843 199.068 843 L 208 843 208 805.500 L 208 768 198.968 768 L 189.936 768 190.036 805.500 M 853.284 783.093 C 849.782 785.336, 846.629 789.920, 845.609 794.250 L 844.962 797 861.981 797 C 878.759 797, 879 796.969, 879 794.838 C 879 791.203, 874.325 784.382, 870.633 782.630 C 865.738 780.307, 857.281 780.533, 853.284 783.093 M 569.500 810.930 C 559.866 813.261, 556.214 823.084, 563.077 828.208 C 568.350 832.145, 578.067 831.339, 583.832 826.488 C 586.738 824.043, 589 817.945, 589 812.557 C 589 810.013, 588.959 810.001, 580.750 810.102 C 576.212 810.159, 571.150 810.531, 569.500 810.930" stroke="none" fill="#336392" fill-rule="evenodd"/></svg>
